<svg width="119" height="154" viewBox="0 0 119 154" fill="none" xmlns="http://www.w3.org/2000/svg">
<path d="M118.219 31.8744L109.809 33.3853L102.028 34.3584L98.4442 34.6879V146.507L101.064 146.153L105.981 145.143L110.467 143.833L116.415 141.365L118.532 140.297V33.7761L118.219 31.8744Z" fill="#BCBCBC"/>
<path d="M54.0542 56.2578L52.9948 144.205L67.8472 142.524L66.6998 127.428L66.7519 47.8694L54.0542 56.2578Z" fill="#BCBCBC"/>
<path d="M52.9615 21.1415V46.9023L67.2724 46.567L72.8253 42.4555L68.9922 38.9602L69.3019 28.5399L70.5889 26.4658L70.9098 25.0265L70.5889 23.877L59.8023 22.5093L52.9615 21.1415Z" fill="#BCBCBC"/>
<path d="M118.532 21.1415V31.3084L118.219 31.8744L111.549 33.0727L103.351 34.2192L98.4442 34.6879V146.507L90.2046 147.097L80.2639 146.497L76.8477 145.924L76.9607 25.0599L77.3161 24.0071L80.4431 24.5501L85.204 24.5462L94.7754 24.1895L103.351 23.5201L111.059 22.5093L118.532 21.1415Z" fill="#333333"/>
<path d="M53.0134 145.299L53.4011 146.477L62.8331 149.734L73.3161 151.961L83.7382 153.148L94.5411 153.323L105.417 151.864L112.797 148.952L118.531 145.924V140.01L116.866 141.391L111.276 143.547L107.249 144.792L100.198 146.289L94.4572 146.927H85.9886L80.2638 146.497L78.4608 146.758L77.1598 147.748L76.5353 148.581L75.5466 148.842L74.7365 149.734L72.0716 149.988L70.9345 149.734L70.863 148.686L71.215 147.881L71.1392 147.096L71.4355 146.341L71.3023 145.56L71.4355 144.205L54.7828 144.934L53.0134 145.299Z" fill="#1C1C1C"/>
<path d="M52.9615 15.3062V21.1415L64.388 23.1895L70.5889 23.877V22.8458L71.0713 21.8188L70.379 20.5769L71.448 18.7101L71.9021 18.1553L61.7788 17.0081L55.3033 15.723L52.9615 15.3062Z" fill="#1C1C1C"/>
<path d="M74.7802 18.3667L83.3827 18.6971L91.732 18.5913L98.7863 18.1717L105.829 17.4429L112.457 16.4639L118.531 15.3062V21.1415L116.073 21.7415L109.085 22.8458L101.74 23.6458L95.3296 24.1971L89.9565 24.5501L80.9588 24.476L80.1262 23.4861L78.6578 22.5092L77.6977 22.3097L77.6283 20.7768L76.6187 20.2449L75.6791 19.5916L75.1297 18.7101L74.7802 18.3667Z" fill="#1C1C1C"/>
<path d="M74.4606 127.273L75.1297 126.59L74.532 124.509L74.2645 122.499L75.1144 120.715L74.4152 119.392L74.5463 116.094L74.2367 114.02L74.4152 110.759L74.4824 107.339L74.327 105.877L74.3738 103.535L74.4291 99.7288L74.6543 95.9339L74.3046 94.1526L74.3644 91.4353L73.9972 89.5302L74.5115 87.3404L74.6427 85.3225L74.3263 83.4472L74.7802 82.0699L74.6636 80.8782L74.0589 79.8076L74.3394 77.7712L74.0356 74.5291L73.8902 72.2138L74.3711 70.8582L74.0739 69.6702L74.1542 67.6559L74.4961 66.6405L74.3553 64.9406L74.4327 61.192L74.0739 60.3247L73.8776 59.7189L74.395 58.2905L74.3428 54.7917L74.7802 51.9535L74.3497 50.1885L74.6117 46.9023L74.5479 44.2357L73.95 42.3977L74.6117 39.7626L74.0739 38.6996L71.5916 38.9602V32.3954L74.3497 31.9555V30.1914L74.3711 28.2848L73.789 26.4658L66.5368 27.1528L61.7751 27.4462L48.7462 27.7342L42.0331 27.7063L29.1272 26.9768L18.303 25.8306L10.8353 24.7245L4.35634 23.5903L0.468384 22.8458V105.066L4.53453 106.663L9.3519 109.249L14.6809 113.32L18.8995 117.927L23.0954 124.724L25.9026 132.123L27.2272 138.34L27.6701 144.049L42.8126 144.793L55.3712 145.143L64.1499 144.778L73.7773 144.049L74.3497 145.924L74.0739 142.941L74.3695 138.973L71.4355 139.338V133.039L74.5737 132.896L74.4714 133.524L75.1297 131.832L74.4837 129.876L74.4606 127.273ZM4.66857 35.5215L1.95372 35.2089L2.27475 28.6878L4.66857 29.1526V35.5215ZM12.9429 37.0845L8.72766 36.1988V29.9466L12.9429 30.5718V37.0845ZM18.8234 37.7618V31.3083L24.6437 31.9555L24.6518 38.4491L18.8234 37.7618ZM37.7138 140.141L31.7292 139.985L31.7812 133.316L37.7138 133.524V140.141ZM37.799 39.4291L31.9374 39.0673V32.5517L37.799 32.9235V39.4291ZM51.3999 140.506H45.6758V133.983L51.5043 133.837L51.3999 140.506ZM51.6604 39.5333L45.832 39.7626V33.1509L51.6604 33.2727V39.5333ZM64.6703 139.985L59.1021 140.297V133.851L64.6703 133.513V139.985ZM64.8265 39.2463L59.2582 39.5333V33.3853L64.8265 32.9235V39.2463Z" fill="#606060"/>
<path d="M74.4009 35.2088L74.391 34.808L74.0739 35.954L74.4009 35.2088Z" fill="#7D4839"/>
<path d="M71.7142 144.205L71.3983 145.924L71.1392 147.097V148.582L70.9345 149.734L73.3882 149.863L74.7365 149.734L75.5466 148.842L76.5354 148.581L77.1598 147.748L78.3229 147.034V146.248L76.8476 145.924V25.6186L77.3159 24.0071H79.0183L80.443 24.5501L80.1261 23.4861L78.6577 22.5092L77.6976 22.3097L77.6282 20.7768L76.6186 20.2449L75.679 19.5916L74.6099 17.7028L73.7501 17.0081L72.5795 17.3577L71.1233 19.277L70.3788 20.5769L71.0712 21.8188L70.5888 22.8458L70.9096 25.0264L70.5888 26.8185L74.0739 26.4658L74.3497 29.5187L74.3985 32.5517L74.0588 31.9786L71.5916 32.3954V38.9602L74.0739 38.6997L74.4009 40.0437L73.95 42.3977L74.5479 44.2357L74.7802 47.2881L74.3497 50.1885L74.7802 51.9535L74.4009 54.4143L74.3848 57.8369L73.8776 59.7189L74.4327 61.192L74.2456 64.3335L74.496 66.6405L74.0588 68.6399L74.3711 70.8582L73.8901 72.2138L74.3214 78.8074L74.0588 79.8076L74.8291 81.4128L74.3263 83.4472L74.6427 85.3225L74.3041 88.2232L74.0739 89.9283L74.4483 92.8512L74.5752 94.6941L74.5118 97.4266L74.2456 100.961L74.3541 104.519L74.3214 106.196L74.4483 107.848L74.3603 111.763L74.1936 114.455L74.5462 116.094L74.3848 119.096L75.083 121.003L74.2645 122.499L74.5319 124.509L75.1296 126.59L74.4606 127.273L74.4837 129.876L75.1296 131.832L74.5737 132.896L71.4355 133.039V139.338L74.2934 139.338L74.0739 144.049L71.7142 144.205Z" fill="#232323"/>
<path d="M53.6049 15.3061L60.2005 13.9251L71.9039 12.7156L75.0783 12.5441V2.43709L78.4144 1.26241L82.7908 0.468811H88.4376L92.1952 1.45294L95.3296 2.53635V12.7303L99.9273 13.0518L110.335 14.0182L118.531 15.0803L115.722 15.9265L104.102 17.6716L92.1952 18.5637L81.1718 18.7101L74.9847 18.1717L74.0739 17.0081L72.5796 17.3577L71.3529 18.093L56.8798 16.1909L53.6049 15.3061Z" fill="#1C1C1C"/>
<path d="M89.1835 154C86.2337 154 83.1997 153.836 80.0969 153.507C71.7552 152.623 62.8188 150.537 53.5361 147.305C53.3195 147.23 53.1165 147.033 52.8299 146.317C52.7823 146.198 52.545 145.591 52.545 145.299C52.545 145.04 52.7547 144.83 53.0134 144.83C53.2681 144.83 53.4752 145.034 53.4816 145.287C53.5053 145.493 53.785 146.232 53.9298 146.449C67.9853 151.333 79.6507 153.083 89.1412 153.083C103.115 153.083 112.384 149.293 117.681 146.135L117.795 146.067C117.96 145.969 118.063 145.787 118.063 145.594V15.3061C118.063 15.0472 118.273 14.8372 118.531 14.8372C118.79 14.8372 119 15.0472 119 15.3061V145.594C119 146.116 118.721 146.607 118.274 146.873L118.16 146.941C116.178 148.123 110.144 151.72 99.5033 153.277C96.2081 153.759 92.7577 154 89.1835 154ZM53.4817 145.292C53.4817 145.294 53.4818 145.297 53.4818 145.299C53.4818 145.297 53.4817 145.295 53.4817 145.292Z" fill="black"/>
<path d="M89.6831 147.526C85.4817 147.526 81.1546 147.18 76.7749 146.492C76.5194 146.452 76.3447 146.212 76.3849 145.956C76.425 145.7 76.6649 145.525 76.9202 145.565C87.0817 147.162 96.6829 146.901 105.457 144.788C112.155 143.176 116.316 140.955 117.795 140.075C117.96 139.977 118.063 139.796 118.063 139.602V137.991C118.063 137.732 118.273 137.522 118.531 137.522C118.79 137.522 119 137.732 119 137.991V139.602C119 140.125 118.721 140.615 118.274 140.882C116.758 141.783 112.498 144.058 105.676 145.7C101.708 146.656 97.496 147.243 93.1578 147.446C92.0104 147.5 90.8515 147.526 89.6831 147.526Z" fill="black"/>
<path d="M71.9043 18.6407C71.8916 18.6407 71.8788 18.6402 71.8659 18.6392C60.1396 17.687 52.9121 15.7784 52.8404 15.7592C52.5905 15.6923 52.4421 15.4354 52.5089 15.1852C52.5757 14.935 52.8323 14.7865 53.0822 14.8532C53.1531 14.8721 60.3076 16.7598 71.9417 17.7044C72.1995 17.7254 72.3915 17.9516 72.3706 18.2097C72.3508 18.4549 72.1458 18.6407 71.9043 18.6407Z" fill="black"/>
<path d="M85.4569 19.1786C81.8806 19.1786 78.3026 19.0639 74.7501 18.8346C74.492 18.8179 74.2962 18.5949 74.3129 18.3365C74.3295 18.0781 74.5517 17.8822 74.8104 17.8987C89.667 18.8577 104.344 17.8311 118.435 14.8474C118.687 14.7937 118.936 14.9557 118.99 15.2091C119.043 15.4625 118.881 15.7113 118.628 15.7649C110.892 17.4032 102.854 18.4646 94.7366 18.9197C91.6579 19.0923 88.558 19.1786 85.4569 19.1786Z" fill="black"/>
<path d="M70.5893 24.3459C70.5751 24.3459 70.5609 24.3453 70.5465 24.344C59.702 23.3606 52.9108 21.6128 52.8434 21.5953C52.5931 21.5301 52.443 21.2741 52.5081 21.0235C52.5732 20.7728 52.829 20.6225 53.0792 20.6877C53.1459 20.705 59.8703 22.4342 70.631 23.41C70.8886 23.4333 71.0785 23.6613 71.0552 23.9192C71.0332 24.1628 70.8289 24.3459 70.5893 24.3459Z" fill="black"/>
<path d="M84.0229 25.0186C83.0372 25.0186 82.1318 25.0102 81.3155 24.997C81.0569 24.9927 80.8506 24.7794 80.8548 24.5205C80.859 24.2615 81.0708 24.0552 81.3307 24.0592C88.6686 24.1788 103.247 23.899 118.435 20.6827C118.688 20.6296 118.936 20.7911 118.99 21.0445C119.043 21.2979 118.881 21.5467 118.628 21.6003C105.041 24.4776 91.9442 25.0186 84.0229 25.0186Z" fill="black"/>
<path d="M98.6172 35.1399C98.3758 35.1399 98.1709 34.9543 98.1509 34.7092C98.1298 34.4511 98.3217 34.2247 98.5795 34.2036C105.481 33.6382 112.056 32.7002 118.122 31.4156C118.375 31.3622 118.624 31.524 118.677 31.7774C118.731 32.0307 118.569 32.2795 118.316 32.3332C112.211 33.6259 105.596 34.5697 98.6559 35.1383C98.6429 35.1394 98.63 35.1399 98.6172 35.1399Z" fill="black"/>
<path d="M52.9615 27.9741C52.7028 27.9741 52.4931 27.7642 52.4931 27.5052V15.3061C52.4931 15.0472 52.7028 14.8372 52.9615 14.8372C53.2201 14.8372 53.4298 15.0472 53.4298 15.3061V27.5052C53.4298 27.7642 53.2201 27.9741 52.9615 27.9741Z" fill="black"/>
<path d="M95.3295 2.90617C95.2746 2.90622 95.2189 2.8965 95.1646 2.87599C89.2074 0.631307 84.1248 0.743761 80.9101 1.23338C77.4215 1.76472 75.3149 2.84247 75.2941 2.85331C75.0645 2.97231 74.7819 2.88276 74.6628 2.65314C74.5436 2.42347 74.6327 2.14072 74.862 2.0212C74.9515 1.97455 77.0968 0.871874 80.7252 0.312954C82.8484 -0.0140533 85.0424 -0.0852919 87.2464 0.10159C89.9983 0.334825 92.7734 0.972971 95.4945 1.99831C95.7366 2.08954 95.859 2.35996 95.7679 2.60231C95.6972 2.79026 95.5189 2.90617 95.3295 2.90617Z" fill="black"/>
<path d="M95.3296 17.462C95.0709 17.462 94.8612 17.252 94.8612 16.9931V3.11893C92.4095 3.98613 89.9176 4.54002 87.4449 4.76684C85.295 4.96395 83.1507 4.91591 81.0715 4.62391C78.4296 4.25284 76.5006 3.56836 75.5466 3.17348V16.9931C75.5466 17.252 75.3369 17.462 75.0783 17.462C74.8196 17.462 74.6099 17.252 74.6099 16.9931V2.4811C74.6099 2.3106 74.6963 2.15516 74.841 2.06541C74.9856 1.97576 75.1629 1.96746 75.3152 2.04322C75.5507 2.16106 77.7101 3.20482 81.2016 3.6952C85.7616 4.33563 90.4323 3.7789 95.0835 2.04032C95.2461 1.97962 95.4282 2.00246 95.5706 2.10142C95.713 2.20033 95.798 2.36295 95.798 2.53646V16.9931C95.798 17.252 95.5883 17.462 95.3296 17.462Z" fill="black"/>
<path d="M118.532 15.7751C118.507 15.7751 118.483 15.7732 118.457 15.7691C110.625 14.5101 102.835 13.6452 95.3021 13.1984C95.0439 13.1831 94.8469 12.9611 94.8622 12.7026C94.8775 12.4441 95.099 12.2472 95.3575 12.2622C102.921 12.7108 110.743 13.5792 118.606 14.8432C118.861 14.8842 119.035 15.1247 118.994 15.3805C118.957 15.611 118.758 15.7751 118.532 15.7751Z" fill="black"/>
<path d="M52.9613 15.7752C52.755 15.7752 52.566 15.6377 52.5095 15.4287C52.4419 15.1787 52.5895 14.9213 52.8391 14.8536C52.918 14.8322 60.8891 12.7083 75.0575 12.0757C75.3156 12.0635 75.5348 12.2645 75.5463 12.5233C75.5578 12.782 75.3577 13.0011 75.0993 13.0126C61.0459 13.64 53.1619 15.7377 53.0839 15.7588C53.0429 15.7699 53.0018 15.7752 52.9613 15.7752Z" fill="black"/>
<path d="M70.7273 26.6743C70.6767 26.6743 70.6253 26.666 70.5748 26.6486C70.3302 26.5642 70.2002 26.2974 70.2845 26.0525C70.4091 25.6902 70.573 24.9646 70.2698 24.1754C69.8745 23.1465 70.2422 22.6161 70.4855 22.2651C70.6397 22.0426 70.6408 22.0176 70.6209 21.9476C70.5724 21.7778 70.4534 21.6325 70.3274 21.4786C70.0636 21.1564 69.6222 20.6173 70.1795 19.8091C70.3682 19.5355 70.5133 19.301 70.6537 19.0743C70.9229 18.6394 71.1555 18.2637 71.5615 17.8333C71.7355 17.6488 71.7868 17.5146 71.832 17.3961C72.0091 16.9322 72.3042 16.7987 72.85 16.9353C72.9717 16.9657 73.1787 16.9249 73.379 16.8854C73.8246 16.7976 74.6541 16.634 75.039 17.5148C75.3131 18.1422 75.1519 18.467 74.9471 18.7709C74.8364 18.935 74.7319 19.09 74.7135 19.4955C74.6944 19.9157 74.6443 21.02 74.7686 21.2624C75.2237 21.6395 75.3452 22.1438 75.1752 22.9414C75.1112 23.2413 75.1053 23.6092 75.0996 23.965C75.0919 24.4456 75.0847 24.8996 74.9338 25.2395C74.7851 25.5745 74.7363 25.7961 74.7846 25.9169C74.8806 26.1574 74.7638 26.4303 74.5236 26.5265C74.2835 26.6226 74.0109 26.5056 73.9148 26.2653C73.7222 25.7832 73.8891 25.2837 74.0778 24.8586C74.1511 24.6935 74.1575 24.2985 74.163 23.95C74.1691 23.568 74.1761 23.1349 74.2591 22.7455C74.3849 22.1557 74.2608 22.0563 74.1612 21.9766C73.7474 21.6451 73.7093 20.9611 73.7778 19.453C73.8081 18.784 74.0263 18.4604 74.1706 18.2462C74.1988 18.2045 74.2459 18.1347 74.2485 18.118C74.2486 18.1175 74.2561 18.0629 74.1808 17.8907C74.115 17.7402 74.0973 17.6998 73.5599 17.8056C73.2832 17.8601 72.9709 17.9217 72.6582 17.8534C72.5905 18.0124 72.4768 18.2289 72.2425 18.4772C71.9017 18.8386 71.7023 19.1606 71.4499 19.5684C71.3103 19.7937 71.1521 20.0493 70.9503 20.3419C70.7938 20.5689 70.8035 20.5808 71.0518 20.884C71.2158 21.0843 71.4198 21.3334 71.5215 21.69C71.6681 22.2038 71.4294 22.5483 71.2551 22.7998C71.0645 23.0747 70.9268 23.2733 71.144 23.8387C71.5538 24.9054 71.3363 25.875 71.1701 26.3579C71.1033 26.5522 70.9217 26.6743 70.7273 26.6743Z" fill="black"/>
<path d="M76.8468 27.1844C76.6073 27.1844 76.4033 27.0022 76.3812 26.7588C76.3615 26.5418 76.395 25.8323 76.4693 25.2074C76.5884 24.2069 76.7543 23.6137 77.2497 23.5429C77.5573 23.4989 77.9878 23.5168 78.3022 23.5301C78.4054 23.5344 78.4944 23.5381 78.5465 23.5381C78.6952 23.5381 78.9125 23.5924 79.4955 23.7473C79.6252 23.7818 79.7637 23.8186 79.9029 23.8546C79.6677 23.6397 79.1863 23.3716 78.9082 23.2167C78.628 23.0606 78.4713 22.9716 78.3678 22.8806C78.3374 22.8724 78.2938 22.8627 78.2592 22.8549C77.9928 22.7953 77.2853 22.6371 77.3031 21.8867C77.3066 21.7396 77.324 21.607 77.3393 21.49C77.3695 21.2597 77.3137 21.1118 77.1717 21.0462C76.8997 20.9205 76.3779 20.6683 75.9405 20.3917C75.6413 20.2025 75.0353 19.8193 75.1324 19.3056C75.0742 19.1184 74.7528 18.6197 74.4144 18.1959C74.253 17.9936 74.2857 17.6986 74.4877 17.5368C74.6897 17.3752 74.9844 17.4079 75.1459 17.61C75.942 18.6063 76.0796 19.0875 76.0766 19.3327C76.232 19.482 76.7094 19.7997 77.5643 20.1947C78.4032 20.5823 78.3186 21.227 78.2681 21.6121C78.256 21.7044 78.2444 21.7921 78.2406 21.8792C78.2986 21.9028 78.4023 21.926 78.4634 21.9397C78.6423 21.9797 78.8439 22.0248 78.992 22.1803C79.0494 22.2221 79.2228 22.3187 79.3636 22.3972C79.9795 22.7402 80.5105 23.0544 80.77 23.4255C80.8683 23.5662 81.053 23.7214 81.2014 23.8462C81.4505 24.0555 81.7605 24.3161 81.5989 24.6906C81.4333 25.0745 80.9874 25.0219 80.7479 24.9938C80.3649 24.9486 79.7753 24.792 79.2552 24.6537C78.9765 24.5797 78.6311 24.4879 78.534 24.4759C78.4641 24.4755 78.3746 24.4717 78.263 24.4671C78.0599 24.4586 77.7763 24.4467 77.5555 24.4565C77.4004 24.9265 77.2878 26.3717 77.3141 26.6739C77.3364 26.9316 77.1464 27.1596 76.8891 27.1825C76.8749 27.1838 76.8608 27.1844 76.8468 27.1844Z" fill="black"/>
<path d="M76.8477 146.393C76.589 146.393 76.3793 146.183 76.3793 145.924V26.7262C76.3793 26.4673 76.589 26.2573 76.8477 26.2573C77.1064 26.2573 77.316 26.4673 77.316 26.7262V145.924C77.316 146.183 77.1064 146.393 76.8477 146.393Z" fill="black"/>
<path d="M72.4764 150.457C71.785 150.457 71.3343 150.438 71.0984 150.399C70.7856 150.346 70.5796 150.167 70.4853 149.864C70.3126 149.663 70.3491 149.358 70.3796 149.104C70.3918 149.002 70.4121 148.832 70.4035 148.776C70.3234 148.374 70.5867 148.106 70.7538 147.965C70.7388 147.901 70.7179 147.831 70.7028 147.798C70.5673 147.526 70.5767 146.842 70.9767 146.526C70.9758 146.507 70.9743 146.484 70.973 146.467C70.9703 146.429 70.9673 146.386 70.9673 146.341C70.9673 146.215 70.9298 145.906 70.8987 145.799C70.7033 145.488 70.9185 145.168 70.9917 145.06C71.0015 145.045 71.0142 145.026 71.0242 145.01C71.0638 144.69 71.329 144.467 71.4148 144.403L71.9542 145.123C71.9553 145.113 71.956 145.102 71.956 145.091C71.956 145.102 71.9557 145.113 71.9551 145.124L71.9768 145.153L71.9807 145.15C71.9712 145.158 71.9595 145.169 71.9497 145.179C71.9283 145.327 71.8572 145.449 71.797 145.541C71.8982 145.882 71.904 146.335 71.904 146.341C71.904 146.359 71.9059 146.379 71.9074 146.4C71.9188 146.561 71.9484 146.979 71.5828 147.245C71.5669 147.294 71.5592 147.383 71.5643 147.433C71.6283 147.589 71.7995 148.068 71.6464 148.374C71.5844 148.498 71.4882 148.576 71.4033 148.644C71.3846 148.659 71.3589 148.68 71.3373 148.699C71.3517 148.864 71.3304 149.042 71.3096 149.216C71.3045 149.258 71.2978 149.314 71.2934 149.361C71.3196 149.405 71.338 149.448 71.3511 149.486C71.511 149.502 71.8324 149.519 72.4764 149.519C72.6388 149.518 73.3122 149.418 73.5771 149.336C73.593 149.291 73.6093 149.239 73.6202 149.203C73.6552 149.09 73.6866 148.989 73.7466 148.9C73.7549 148.845 73.7665 148.757 73.78 148.654C73.7797 148.632 73.7755 148.584 73.7723 148.548C73.7598 148.405 73.7429 148.212 73.7807 148.014C73.7575 147.985 73.7296 147.948 73.7 147.904L73.6824 147.877C73.5314 147.653 73.1302 147.055 73.5503 146.635C73.6661 146.519 73.7794 146.353 73.8254 146.236C73.8347 146.003 73.7314 145.052 73.6255 144.268C73.5909 144.011 73.7706 143.775 74.0269 143.74C74.2835 143.706 74.5191 143.885 74.5538 144.142C74.828 146.173 74.7588 146.394 74.7292 146.488C74.652 146.734 74.4928 146.977 74.3386 147.16C74.3782 147.233 74.4356 147.318 74.4597 147.354L74.4793 147.383C74.4923 147.403 74.5076 147.423 74.5253 147.445C74.6188 147.565 74.7929 147.789 74.7022 148.183C74.6866 148.251 74.697 148.37 74.7054 148.466C74.7145 148.569 74.723 148.666 74.7101 148.765C74.6598 149.15 74.6424 149.284 74.5348 149.418C74.5284 149.438 74.521 149.461 74.5149 149.481C74.472 149.62 74.4186 149.792 74.3232 149.936C74.207 150.11 74.0138 150.228 73.327 150.352C72.9999 150.411 72.6263 150.457 72.4764 150.457ZM71.5423 147.382C71.5427 147.383 71.5479 147.394 71.5562 147.413C71.5528 147.404 71.5482 147.394 71.5423 147.382Z" fill="black"/>
<path d="M73.8248 150.203C73.6798 150.203 73.6234 150.175 73.5679 150.147C73.3365 150.031 73.2427 149.75 73.3584 149.518C73.4525 149.329 73.6567 149.232 73.8539 149.265C74.0314 149.256 74.6126 149.141 74.8512 149.065C74.9109 148.996 74.9809 148.942 75.0411 148.895C75.0953 148.853 75.205 148.768 75.2346 148.719C75.2406 148.457 75.3714 148.306 75.4501 148.239C75.6861 148.037 75.985 148.084 76.1827 148.115C76.2141 148.12 76.2546 148.127 76.2891 148.131C76.3092 148.079 76.3259 148.001 76.3273 147.954C76.3272 147.826 76.3659 147.622 76.6995 147.347C76.9219 147.163 77.1293 147.07 77.316 147.07C77.4065 147.07 77.5973 147.043 77.6995 147.021C77.7241 146.994 77.7545 146.96 77.7811 146.931C78.1134 146.562 78.4724 146.19 78.8852 146.052C79.1305 145.971 79.3958 146.103 79.4776 146.349C79.5594 146.595 79.4268 146.86 79.1814 146.942C78.9681 147.013 78.6362 147.382 78.4767 147.559C78.3322 147.719 78.2597 147.8 78.1499 147.855C77.9606 147.949 77.5767 147.996 77.3843 148.006C77.3467 148.028 77.2933 148.07 77.2541 148.106C77.2164 148.41 77.0631 148.854 76.6573 149.017C76.467 149.093 76.2755 149.077 76.1119 149.053C76.0011 149.337 75.7606 149.524 75.6145 149.637C75.6051 149.644 75.5943 149.652 75.5841 149.66C75.5469 149.724 75.4894 149.789 75.401 149.844C75.3492 149.876 75.1916 149.974 74.523 150.108C74.1685 150.179 73.9588 150.203 73.8248 150.203ZM75.6507 149.416C75.6507 149.423 75.6505 149.43 75.6501 149.438C75.6505 149.431 75.6507 149.424 75.6507 149.416Z" fill="black"/>
<path d="M98.4442 146.976C98.1855 146.976 97.9759 146.766 97.9759 146.507V34.6878C97.9759 34.4289 98.1855 34.2189 98.4442 34.2189C98.7029 34.2189 98.9126 34.4289 98.9126 34.6878V146.507C98.9126 146.766 98.7029 146.976 98.4442 146.976Z" fill="black"/>
<path d="M27.6704 144.518C27.6661 144.518 27.6619 144.517 27.6577 144.517C27.3991 144.511 27.1951 144.295 27.2019 144.036C27.204 143.954 27.3515 136.613 24.1132 128.234C21.1337 120.525 14.587 110.325 0.318804 105.511L0 105.403V22.2584L0.572185 22.3886C0.658833 22.4083 9.39107 24.3766 22.7531 25.7971C35.0803 27.1076 53.9816 28.2065 74.0227 25.9997C74.2796 25.9715 74.5112 26.1571 74.5394 26.4145C74.5677 26.672 74.3822 26.9036 74.1251 26.9319C65.2352 27.9108 55.8264 28.3291 46.1592 28.1756C38.4272 28.0527 30.5136 27.5656 22.6382 26.7279C11.1683 25.5079 3.09047 23.8844 0.936722 23.4273V104.731C7.25438 106.914 12.6114 110.306 16.8643 114.818C20.3229 118.488 23.06 122.899 24.9995 127.929C26.7227 132.398 27.4842 136.54 27.8196 139.227C28.1838 142.146 28.1403 143.984 28.1383 144.061C28.1315 144.316 27.9233 144.518 27.6704 144.518Z" fill="black"/>
<path d="M71.5912 39.1686C71.3527 39.1686 71.1489 38.9871 71.1256 38.7446C71.1008 38.4868 71.2894 38.2577 71.5469 38.2329C72.4962 38.1415 73.1355 38.0791 74.0078 37.983C74.2649 37.9552 74.4963 38.1404 74.5246 38.3978C74.5528 38.6553 74.3674 38.8869 74.1102 38.9152C73.232 39.0119 72.5898 39.0746 71.6366 39.1665C71.6214 39.1679 71.6062 39.1686 71.5912 39.1686Z" fill="black"/>
<path d="M59.2579 40.0022C59.0072 40.0022 58.7995 39.8035 58.7902 39.5507C58.7806 39.2918 58.9824 39.0743 59.2409 39.0647C61.2081 38.9919 62.4503 38.9091 64.3306 38.7838L64.7955 38.7528C65.0536 38.7357 65.2767 38.9312 65.2938 39.1897C65.311 39.448 65.1156 39.6715 64.8575 39.6886L64.3928 39.7195C62.5042 39.8454 61.2565 39.9286 59.2755 40.0019C59.2697 40.0021 59.2638 40.0022 59.2579 40.0022Z" fill="black"/>
<path d="M48.2192 40.2315C47.4505 40.2315 46.6709 40.226 45.8235 40.2105C45.5648 40.2058 45.359 39.9921 45.3637 39.7331C45.3684 39.4772 45.5772 39.2728 45.8318 39.2728C45.8347 39.2728 45.8376 39.2728 45.8406 39.2729C47.6283 39.3054 49.1176 39.2933 50.8421 39.2793L51.6569 39.2728H51.6605C51.9175 39.2728 52.1269 39.4804 52.1288 39.7381C52.1308 39.9971 51.9227 40.2086 51.664 40.2106L50.8497 40.2171C49.9336 40.2245 49.0833 40.2315 48.2192 40.2315Z" fill="black"/>
<path d="M37.8702 39.898C37.8628 39.898 37.8553 39.8978 37.8478 39.8975C35.7285 39.7976 33.9824 39.6834 31.852 39.5313C31.5939 39.5129 31.3997 39.2885 31.4181 39.0302C31.4365 38.7719 31.66 38.5775 31.9186 38.5958C34.042 38.7474 35.7819 38.8613 37.8918 38.9607C38.1502 38.9728 38.3498 39.1924 38.3377 39.4511C38.3259 39.7023 38.1188 39.898 37.8702 39.898Z" fill="black"/>
<path d="M24.6524 38.9081C24.6371 38.9081 24.6218 38.9073 24.6063 38.9058C23.0584 38.7544 21.5736 38.5716 20.1377 38.3948C19.6743 38.3377 19.2175 38.2814 18.7676 38.2273C18.5108 38.1965 18.3275 37.963 18.3584 37.7059C18.3892 37.4487 18.6223 37.2653 18.8792 37.2962C19.33 37.3504 19.7877 37.4068 20.252 37.4639C21.6822 37.64 23.1611 37.8222 24.6974 37.9725C24.9548 37.9976 25.1431 38.2269 25.118 38.4847C25.0943 38.7269 24.8905 38.9081 24.6524 38.9081Z" fill="black"/>
<path d="M12.9435 37.5535C12.921 37.5535 12.8982 37.5518 12.8752 37.5485C11.9115 37.4075 11.0365 37.2467 10.1904 37.0913C9.65543 36.993 9.15017 36.9002 8.65144 36.8177C8.39623 36.7756 8.2235 36.5342 8.26563 36.2787C8.3078 36.0232 8.54902 35.8506 8.80404 35.8924C9.31101 35.9762 9.82028 36.0698 10.3594 36.1689C11.1973 36.3228 12.0638 36.482 13.0107 36.6205C13.2666 36.658 13.4438 36.896 13.4064 37.1523C13.3724 37.3855 13.1722 37.5535 12.9435 37.5535Z" fill="black"/>
<path d="M4.66916 36.0947C4.64079 36.0947 4.61204 36.0921 4.58313 36.0867C4.1199 36.0006 3.68963 35.9296 3.31001 35.8671C2.88318 35.7966 2.51455 35.7358 2.1819 35.6685C1.92837 35.6171 1.76443 35.3697 1.81573 35.1159C1.86705 34.862 2.11418 34.6979 2.36769 34.7493C2.68361 34.8133 3.04445 34.8728 3.46225 34.9417C3.84627 35.005 4.28152 35.0768 4.75411 35.1647C5.00842 35.2119 5.17632 35.4566 5.12911 35.7113C5.08726 35.937 4.89044 36.0947 4.66916 36.0947Z" fill="black"/>
<path d="M71.591 32.7438C71.3524 32.7438 71.1486 32.5621 71.1253 32.3195C71.1007 32.0617 71.2894 31.8327 71.5469 31.808C72.4712 31.7193 73.4041 31.6232 74.3199 31.5224C74.5767 31.4944 74.8083 31.6798 74.8366 31.9372C74.8649 32.1947 74.6794 32.4263 74.4223 32.4546C73.5022 32.5559 72.5649 32.6525 71.6362 32.7416C71.6211 32.743 71.6059 32.7438 71.591 32.7438Z" fill="black"/>
<path d="M59.4338 33.5558C59.1835 33.5558 58.9759 33.3576 58.9661 33.1051C58.9561 32.8462 59.1575 32.6284 59.416 32.6183C60.8097 32.5643 62.0356 32.48 63.3334 32.3909C63.8033 32.3585 64.2865 32.3253 64.7961 32.2922C65.0543 32.275 65.277 32.4713 65.2938 32.7298C65.3106 32.9882 65.1149 33.2113 64.8568 33.2281C64.3484 33.2611 63.8664 33.2942 63.3976 33.3265C62.0926 33.4162 60.8599 33.5009 59.4522 33.5554C59.4461 33.5557 59.4399 33.5558 59.4338 33.5558Z" fill="black"/>
<path d="M50.3733 33.7295C48.865 33.7295 47.3399 33.7155 45.8234 33.6875C45.5648 33.6827 45.359 33.4689 45.3637 33.21C45.3684 32.954 45.5772 32.7498 45.8318 32.7498C45.8347 32.7498 45.8377 32.7498 45.8406 32.7499C47.7835 32.7856 49.7408 32.7986 51.6579 32.7882H51.6605C51.918 32.7882 52.1274 32.9965 52.1288 33.2546C52.1302 33.5136 51.9216 33.7246 51.663 33.726C51.2349 33.7283 50.8047 33.7295 50.3733 33.7295Z" fill="black"/>
<path d="M37.8703 33.4155C37.8625 33.4155 37.8547 33.4153 37.8467 33.4149C36.2395 33.335 34.5705 33.2133 32.9565 33.0957C32.5986 33.0696 32.2469 33.0439 31.904 33.0194C31.646 33.0009 31.4518 32.7765 31.4703 32.5182C31.4887 32.2599 31.7123 32.0644 31.9708 32.084C32.3141 32.1086 32.6662 32.1342 33.0245 32.1604C34.6332 32.2776 36.2967 32.3989 37.8932 32.4782C38.1515 32.4911 38.3506 32.7111 38.3377 32.9698C38.3253 33.2206 38.1183 33.4155 37.8703 33.4155Z" fill="black"/>
<path d="M24.6443 32.4245C24.6287 32.4245 24.613 32.4237 24.5972 32.4221C22.6529 32.2276 20.6912 32.0095 18.7665 31.7738C18.5098 31.7423 18.3271 31.5084 18.3585 31.2514C18.3899 30.9943 18.6234 30.8118 18.8802 30.8429C20.7981 31.0778 22.7529 31.2951 24.6903 31.4889C24.9477 31.5147 25.1355 31.7445 25.1098 32.0021C25.0856 32.2439 24.882 32.4245 24.6443 32.4245Z" fill="black"/>
<path d="M12.9435 30.988C12.921 30.988 12.8982 30.9864 12.8752 30.983C11.4468 30.7741 10.0258 30.5532 8.65158 30.3264C8.39635 30.2843 8.22355 30.0431 8.26561 29.7875C8.30766 29.532 8.54874 29.3586 8.80389 29.4011C10.1725 29.6269 11.5879 29.8469 13.0107 30.0551C13.2666 30.0925 13.4438 30.3306 13.4064 30.5868C13.3723 30.8201 13.1722 30.988 12.9435 30.988Z" fill="black"/>
<path d="M4.66915 29.6217C4.64071 29.6217 4.61191 29.6191 4.58294 29.6137C3.73825 29.4563 2.93035 29.2994 2.18168 29.1474C1.92817 29.0959 1.76436 28.8484 1.81577 28.5946C1.86719 28.3409 2.11443 28.1765 2.36788 28.2283C3.11162 28.3793 3.91451 28.5352 4.75427 28.6916C5.00858 28.739 5.17637 28.9838 5.12906 29.2384C5.08713 29.464 4.89035 29.6217 4.66915 29.6217Z" fill="black"/>
<path d="M2.2747 35.6778C2.01604 35.6778 1.80634 35.4678 1.80634 35.2088V28.7483C1.80634 28.4893 2.01604 28.2794 2.2747 28.2794C2.53336 28.2794 2.74304 28.4893 2.74304 28.7483V35.2088C2.74304 35.4678 2.53336 35.6778 2.2747 35.6778Z" fill="black"/>
<path d="M4.66871 36.0946C4.41005 36.0946 4.20035 35.8846 4.20035 35.6256V29.1651C4.20035 28.9061 4.41005 28.6962 4.66871 28.6962C4.92737 28.6962 5.13707 28.9061 5.13707 29.1651V35.6256C5.13707 35.8846 4.92737 36.0946 4.66871 36.0946Z" fill="black"/>
<path d="M8.72767 36.8239C8.46901 36.8239 8.25931 36.614 8.25931 36.355V29.9466C8.25931 29.6876 8.46901 29.4777 8.72767 29.4777C8.98633 29.4777 9.19603 29.6876 9.19603 29.9466V36.355C9.19603 36.614 8.98633 36.8239 8.72767 36.8239Z" fill="black"/>
<path d="M12.943 37.4493C12.6844 37.4493 12.4747 37.2393 12.4747 36.9803V30.5719C12.4747 30.3129 12.6844 30.103 12.943 30.103C13.2017 30.103 13.4114 30.3129 13.4114 30.5719V36.9803C13.4114 37.2393 13.2017 37.4493 12.943 37.4493Z" fill="black"/>
<path d="M18.8233 38.2307C18.5647 38.2307 18.355 38.0208 18.355 37.7618V31.4575C18.355 31.1986 18.5647 30.9886 18.8233 30.9886C19.082 30.9886 19.2917 31.1986 19.2917 31.4575V37.7618C19.2917 38.0208 19.082 38.2307 18.8233 38.2307Z" fill="black"/>
<path d="M24.652 38.7517C24.3933 38.7517 24.1836 38.5418 24.1836 38.2828V32.1349C24.1836 31.8759 24.3933 31.666 24.652 31.666C24.9106 31.666 25.1203 31.8759 25.1203 32.1349V38.2828C25.1203 38.5418 24.9106 38.7517 24.652 38.7517Z" fill="black"/>
<path d="M31.8855 39.4291C31.6268 39.4291 31.4171 39.2191 31.4171 38.9602V32.5517C31.4171 32.2927 31.6268 32.0828 31.8855 32.0828C32.1441 32.0828 32.3538 32.2927 32.3538 32.5517V38.9602C32.3538 39.2191 32.1441 39.4291 31.8855 39.4291Z" fill="black"/>
<path d="M37.8699 39.898C37.6112 39.898 37.4015 39.6881 37.4015 39.4291V32.9685C37.4015 32.7096 37.6112 32.4996 37.8699 32.4996C38.1285 32.4996 38.3382 32.7096 38.3382 32.9685V39.4291C38.3382 39.6881 38.1285 39.898 37.8699 39.898Z" fill="black"/>
<path d="M45.832 40.2106C45.5733 40.2106 45.3636 40.0006 45.3636 39.7417V33.229C45.3636 32.97 45.5733 32.7601 45.832 32.7601C46.0907 32.7601 46.3004 32.97 46.3004 33.229V39.7417C46.3004 40.0006 46.0907 40.2106 45.832 40.2106Z" fill="black"/>
<path d="M51.6604 40.2106C51.4017 40.2106 51.192 40.0007 51.192 39.7417V33.3854C51.192 33.1264 51.4017 32.9164 51.6604 32.9164C51.9191 32.9164 52.1288 33.1264 52.1288 33.3854V39.7417C52.1288 40.0007 51.9191 40.2106 51.6604 40.2106Z" fill="black"/>
<path d="M59.2582 39.898C58.9996 39.898 58.7899 39.6881 58.7899 39.4291V33.0727C58.7899 32.8137 58.9996 32.6038 59.2582 32.6038C59.5169 32.6038 59.7266 32.8137 59.7266 33.0727V39.4291C59.7266 39.6881 59.5169 39.898 59.2582 39.898Z" fill="black"/>
<path d="M64.8266 39.5334C64.5679 39.5334 64.3582 39.3234 64.3582 39.0644V32.7602C64.3582 32.5012 64.5679 32.2913 64.8266 32.2913C65.0853 32.2913 65.295 32.5012 65.295 32.7602V39.0644C65.295 39.3234 65.0853 39.5334 64.8266 39.5334Z" fill="black"/>
<path d="M71.5917 39.1686C71.3331 39.1686 71.1234 38.9587 71.1234 38.6997V32.3433C71.1234 32.0843 71.3331 31.8744 71.5917 31.8744C71.8504 31.8744 72.0601 32.0843 72.0601 32.3433V38.6997C72.0601 38.9587 71.8504 39.1686 71.5917 39.1686Z" fill="black"/>
<path d="M71.435 139.933C71.1966 139.933 70.9927 139.751 70.9694 139.509C70.9446 139.251 71.1333 139.022 71.3907 138.997C72.34 138.905 72.9793 138.843 73.8517 138.747C74.1086 138.719 74.3401 138.904 74.3684 139.162C74.3967 139.419 74.2112 139.651 73.9541 139.679C73.0758 139.776 72.4336 139.839 71.4804 139.93C71.4652 139.932 71.45 139.933 71.435 139.933Z" fill="black"/>
<path d="M59.1017 140.766C58.851 140.766 58.6433 140.568 58.634 140.315C58.6244 140.056 58.8262 139.838 59.0847 139.829C61.0519 139.756 62.294 139.673 64.1743 139.548L64.6392 139.517C64.8974 139.5 65.1205 139.695 65.1376 139.954C65.1547 140.212 64.9594 140.436 64.7013 140.453L64.2366 140.484C62.348 140.61 61.1003 140.693 59.1193 140.766C59.1135 140.766 59.1076 140.766 59.1017 140.766Z" fill="black"/>
<path d="M48.063 140.995C47.2943 140.995 46.5147 140.99 45.6673 140.974C45.4087 140.97 45.2028 140.756 45.2075 140.497C45.2122 140.241 45.421 140.037 45.6756 140.037C45.6786 140.037 45.6814 140.037 45.6843 140.037C47.4721 140.069 48.9615 140.057 50.6859 140.043L51.5007 140.037H51.5043C51.7614 140.037 51.9707 140.244 51.9726 140.502C51.9746 140.761 51.7665 140.973 51.5078 140.975L50.6936 140.981C49.7774 140.988 48.9271 140.995 48.063 140.995Z" fill="black"/>
<path d="M37.7142 140.662C37.7068 140.662 37.6993 140.662 37.6918 140.661C35.5725 140.562 33.8264 140.447 31.696 140.295C31.438 140.277 31.2437 140.053 31.2621 139.794C31.2805 139.536 31.5045 139.341 31.7626 139.36C33.886 139.511 35.6259 139.625 37.7359 139.725C37.9942 139.737 38.1939 139.956 38.1817 140.215C38.1699 140.466 37.9628 140.662 37.7142 140.662Z" fill="black"/>
<path d="M71.435 133.508C71.1965 133.508 70.9926 133.326 70.9694 133.084C70.9447 132.826 71.1334 132.597 71.3909 132.572C72.3152 132.483 73.2482 132.387 74.1639 132.286C74.421 132.259 74.6524 132.444 74.6806 132.701C74.7089 132.959 74.5234 133.19 74.2663 133.219C73.3463 133.32 72.4089 133.417 71.4803 133.506C71.4651 133.507 71.45 133.508 71.435 133.508Z" fill="black"/>
<path d="M59.2778 134.32C59.0275 134.32 58.8199 134.122 58.8101 133.869C58.8001 133.61 59.0015 133.392 59.26 133.382C60.6537 133.328 61.8796 133.244 63.1774 133.155C63.6473 133.123 64.1304 133.089 64.6401 133.056C64.898 133.039 65.1211 133.235 65.1378 133.494C65.1546 133.752 64.9589 133.975 64.7008 133.992C64.1924 134.025 63.7103 134.058 63.2416 134.091C61.9365 134.18 60.7039 134.265 59.2962 134.32C59.2901 134.32 59.2839 134.32 59.2778 134.32Z" fill="black"/>
<path d="M50.2171 134.494C48.7088 134.494 47.1837 134.479 45.6672 134.452C45.4086 134.447 45.2028 134.233 45.2075 133.974C45.2122 133.718 45.421 133.514 45.6756 133.514C45.6786 133.514 45.6815 133.514 45.6844 133.514C47.6274 133.55 49.5846 133.563 51.5017 133.552H51.5043C51.7618 133.552 51.9712 133.76 51.9726 134.019C51.974 134.278 51.7655 134.489 51.5068 134.49C51.0788 134.492 50.6486 134.494 50.2171 134.494Z" fill="black"/>
<path d="M37.7141 134.18C37.7063 134.18 37.6984 134.179 37.6905 134.179C36.0832 134.099 34.4143 133.977 32.8003 133.86C32.4423 133.834 32.0906 133.808 31.7478 133.784C31.4898 133.765 31.2956 133.541 31.314 133.282C31.3325 133.024 31.5567 132.828 31.8146 132.848C32.1579 132.873 32.51 132.898 32.8683 132.924C34.477 133.042 36.1405 133.163 37.737 133.242C37.9953 133.255 38.1943 133.475 38.1815 133.734C38.1691 133.985 37.9621 134.18 37.7141 134.18Z" fill="black"/>
<path d="M31.7293 140.193C31.4706 140.193 31.2609 139.983 31.2609 139.724V133.316C31.2609 133.057 31.4706 132.847 31.7293 132.847C31.988 132.847 32.1976 133.057 32.1976 133.316V139.724C32.1976 139.983 31.988 140.193 31.7293 140.193Z" fill="black"/>
<path d="M37.7139 140.662C37.4552 140.662 37.2455 140.452 37.2455 140.193V133.733C37.2455 133.474 37.4552 133.264 37.7139 133.264C37.9725 133.264 38.1822 133.474 38.1822 133.733V140.193C38.1822 140.452 37.9725 140.662 37.7139 140.662Z" fill="black"/>
<path d="M45.6758 140.975C45.4171 140.975 45.2075 140.765 45.2075 140.506V133.993C45.2075 133.734 45.4171 133.524 45.6758 133.524C45.9345 133.524 46.1442 133.734 46.1442 133.993V140.506C46.1442 140.765 45.9345 140.975 45.6758 140.975Z" fill="black"/>
<path d="M51.5044 140.975C51.2458 140.975 51.0361 140.765 51.0361 140.506V134.149C51.0361 133.89 51.2458 133.68 51.5044 133.68C51.7631 133.68 51.9728 133.89 51.9728 134.149V140.506C51.9728 140.765 51.7631 140.975 51.5044 140.975Z" fill="black"/>
<path d="M59.102 140.662C58.8434 140.662 58.6337 140.452 58.6337 140.193V133.837C58.6337 133.578 58.8434 133.368 59.102 133.368C59.3607 133.368 59.5704 133.578 59.5704 133.837V140.193C59.5704 140.452 59.3607 140.662 59.102 140.662Z" fill="black"/>
<path d="M64.6704 140.297C64.4117 140.297 64.2021 140.087 64.2021 139.828V133.524C64.2021 133.265 64.4117 133.055 64.6704 133.055C64.9291 133.055 65.1388 133.265 65.1388 133.524V139.828C65.1388 140.087 64.9291 140.297 64.6704 140.297Z" fill="black"/>
<path d="M71.4356 139.933C71.1769 139.933 70.9672 139.723 70.9672 139.464V133.107C70.9672 132.848 71.1769 132.638 71.4356 132.638C71.6942 132.638 71.9039 132.848 71.9039 133.107V139.464C71.9039 139.723 71.6942 139.933 71.4356 139.933Z" fill="black"/>
<path d="M53.9471 145.444C43.8924 145.444 34.0837 144.939 27.6395 144.516C27.3814 144.5 27.1859 144.276 27.2028 144.018C27.2197 143.76 27.4428 143.564 27.7007 143.581C38.4756 144.287 58.6863 145.225 73.6297 143.635C73.64 143.364 73.6371 143.128 73.6193 143.054C73.5272 142.682 73.5728 141.332 73.6105 141.074C73.6185 141.019 73.6336 140.921 73.653 140.795C73.7198 140.361 73.8442 139.554 73.8838 139.166C73.9438 138.576 73.8884 138.36 73.8712 138.31C73.6368 138.068 73.6491 137.678 73.7905 136.279C73.8352 135.836 73.8814 135.379 73.8814 135.118C73.8814 134.105 73.893 133.357 74.0442 132.945C74.153 132.649 74.4576 132.081 74.6206 131.784L74.0036 129.916L74.0209 129.804C74.1485 128.978 74.179 128.051 74.0854 127.854C73.9684 127.667 73.9335 127.451 73.9845 127.231C74.063 126.892 74.338 126.605 74.5723 126.413C74.3693 125.812 73.9902 124.597 74.0158 123.989C74.03 123.649 73.9657 123.508 73.8912 123.345C73.836 123.225 73.7674 123.075 73.7488 122.879C73.702 122.389 74.1509 121.392 74.6551 120.867C74.6606 120.861 74.6624 120.858 74.6624 120.858C74.6846 120.748 74.4407 120.359 74.3235 120.172C74.2062 119.985 74.0848 119.791 73.9912 119.592C73.7573 119.092 73.8483 118.48 73.9215 117.987C73.9492 117.8 73.9912 117.518 73.9721 117.432C73.8766 117.156 73.9358 116.85 74.0044 116.495C74.0825 116.092 74.171 115.634 74.0001 115.307C73.56 114.463 73.8627 112.487 73.9469 111.998V110.217L73.9489 110.195C74.0062 109.586 74.0343 108.82 73.9867 108.629C73.8763 108.387 73.9173 108.07 73.9785 107.598C74.0238 107.247 74.1082 106.595 74 106.388C73.7623 105.931 73.84 105.336 73.9151 104.759C73.9555 104.45 74.0011 104.1 73.9607 103.936C73.862 103.538 73.9034 103.05 73.9398 102.62C73.9565 102.423 73.9793 102.153 73.9638 102.071C73.8791 101.769 73.8985 101.219 73.9326 100.532C73.9388 100.408 73.9443 100.297 73.9471 100.21C73.9486 100.163 73.9503 100.099 73.9524 100.02C73.9967 98.377 74.0577 97.6169 74.17 97.309C74.271 96.9767 74.1756 95.0919 74.0052 94.7644C73.8841 94.5749 73.7703 94.2335 73.8356 93.1602C73.8639 92.694 73.9155 92.2702 73.9318 92.1424C73.9076 91.2927 73.8081 90.4059 73.7142 90.1989C73.3485 89.7874 73.5812 89.101 73.8064 88.4366C73.8653 88.2629 73.9209 88.0987 73.9439 87.9959C74.0227 87.6431 74.1144 86.6396 74.1431 86.2827C74.215 85.366 74.1614 84.354 74.0305 84.1603C73.6581 83.6842 73.9373 82.9662 74.1836 82.3327C74.2593 82.1379 74.371 81.8506 74.3874 81.7309C74.2657 81.4118 74.2276 81.1411 74.1994 80.9409C74.1584 80.6491 74.1431 80.6296 74.0773 80.585C73.5773 80.247 73.6971 79.4558 73.8239 78.6181C73.8579 78.3935 73.9083 78.0605 73.9014 77.94C73.7874 77.6744 73.7402 77.1584 73.6724 75.9509C73.6525 75.5951 73.6318 75.2272 73.6122 75.1115C73.582 74.9337 73.5706 74.638 73.5562 74.2637C73.539 73.8148 73.5101 73.0636 73.4305 72.849C73.2481 72.3568 73.5078 71.8703 73.7165 71.4793C73.7955 71.3313 73.8773 71.1782 73.9016 71.0829C73.94 70.8918 73.8072 69.9688 73.6167 69.1105L73.6068 69.0657L73.6057 69.0199C73.5936 68.5036 73.6064 67.2503 73.9865 66.764C74.1017 66.6109 73.9996 65.8685 73.956 65.5516C73.9277 65.3456 73.901 65.1511 73.8882 64.9744C73.8496 64.4388 73.8681 63.4626 73.8804 62.8166C73.8834 62.6617 73.8859 62.5291 73.887 62.4316C73.8885 62.3036 73.9043 62.159 73.9225 61.9916C73.9672 61.5823 74.0419 60.8973 73.7833 60.6924C73.0584 60.1181 73.5466 59.0637 73.8088 58.4973C73.8551 58.3975 73.9177 58.2622 73.9331 58.2118C73.9719 57.9224 73.9802 57.0003 73.8889 56.4966C73.8066 56.0423 73.8373 55.4763 73.862 55.0214C73.872 54.8385 73.8814 54.6658 73.8814 54.5353C73.8814 54.2814 74.0329 52.2825 74.3733 51.7203C74.3918 51.495 74.1392 50.7412 73.9758 50.4838C73.737 50.1073 73.8496 49.4669 74.1408 48.4168L74.1705 48.3093C74.2417 48.0483 74.2445 47.2329 74.2058 46.9552C74.1628 46.8859 74.1298 46.7953 74.1172 46.6767C74.1099 46.6086 74.1068 46.523 74.1074 46.4074C74.1084 46.2186 74.1191 45.9789 74.1304 45.7252C74.1449 45.4005 74.1647 44.9559 74.147 44.8136C74.1424 44.7762 74.1373 44.7321 74.1316 44.6824C73.9971 43.5206 73.8458 43.2265 73.7676 43.1546C73.2319 42.6917 73.5729 41.7661 73.7985 41.1536C73.8319 41.063 73.8734 40.9505 73.8827 40.913C73.8925 40.8596 73.9079 40.796 73.9272 40.7161C74.1054 39.9792 74.067 39.7601 74.027 39.6951C73.7746 39.4231 73.7113 38.9274 73.8153 38.0393C73.879 37.4954 73.9847 37.0055 73.9892 36.9849L74.0007 36.932L74.0239 36.8831C74.0701 36.7848 74.1117 36.6599 74.1315 36.5685C74.0155 36.4978 73.9222 36.3962 73.8603 36.2712C73.7158 35.979 73.7477 35.5901 73.9609 35.0478C73.9922 34.9069 73.9802 34.338 73.9344 33.8172L73.9326 33.7793L73.9256 32.7543L73.9259 32.7452C73.9522 31.9147 73.9078 31.0312 73.8307 30.8294C73.5594 30.4391 73.7532 30.0459 73.8583 29.833C73.8773 29.7943 73.9039 29.7405 73.9179 29.7045C73.8519 29.5185 73.826 29.2809 73.8409 28.9969C73.8477 28.8668 73.8581 28.7659 73.871 28.6864C73.8633 28.6458 73.8537 28.5936 73.8427 28.533C73.8164 28.3885 73.782 28.1957 73.7479 28.0029C73.6798 27.6183 73.6126 27.2336 73.6126 27.2336C73.568 26.9785 73.7384 26.7356 73.9932 26.691C74.2479 26.6464 74.4907 26.8169 74.5353 27.0721C74.6029 27.4593 74.7034 28.0297 74.7611 28.3479L74.8178 28.3712L74.8181 29.1178L74.7739 29.1218C74.7721 29.2341 74.7793 29.3411 74.802 29.3943C74.949 29.7396 74.7981 30.0457 74.6982 30.2482C74.6815 30.2819 74.6592 30.3272 74.6444 30.3623C74.7475 30.5417 74.8386 30.8775 74.8632 31.7703C74.8764 32.2527 74.8645 32.694 74.8624 32.7656L74.8692 33.7541C74.9198 34.3367 74.9542 35.0843 74.8363 35.3818C74.7511 35.5968 74.7219 35.7288 74.7125 35.8028C74.843 35.8721 74.9458 35.9814 75.009 36.1204C75.1785 36.4936 75.0024 36.9905 74.894 37.2334C74.7308 38.0079 74.6572 38.865 74.7353 39.0812C75.1664 39.5775 74.9531 40.4594 74.8376 40.9369C74.8234 40.9958 74.8086 41.0567 74.8039 41.0834C74.7859 41.1835 74.7427 41.3007 74.6774 41.4781C74.4834 42.0046 74.3962 42.3411 74.4176 42.4795C74.8345 42.8833 74.969 43.7703 75.062 44.5744C75.0675 44.6213 75.0723 44.6629 75.0766 44.6981C75.1021 44.9035 75.089 45.2547 75.0662 45.767C75.0555 46.0071 75.0401 46.3511 75.0446 46.5128C75.2494 46.9378 75.163 48.231 75.0741 48.5565L75.0434 48.6677C74.9042 49.1694 74.7485 49.8032 74.7849 50.0109C74.9126 50.2242 75.0747 50.6143 75.1778 50.9591C75.3571 51.5588 75.3525 51.9615 75.1629 52.2241C75.0246 52.4966 74.8181 54.0534 74.8181 54.5353C74.8181 54.6912 74.808 54.8764 74.7974 55.0724C74.7753 55.4782 74.7479 55.9833 74.8106 56.3292C74.9267 56.9702 74.9074 58.0219 74.8585 58.3581C74.8369 58.5067 74.7621 58.6682 74.6587 58.8917C74.276 59.7181 74.3102 59.9139 74.3646 59.957C75.0294 60.4837 74.9237 61.4524 74.8537 62.0934C74.8388 62.2305 74.8246 62.36 74.8237 62.4424C74.8225 62.5416 74.82 62.6767 74.817 62.8344C74.8057 63.4252 74.7869 64.4139 74.8225 64.9068C74.8331 65.0532 74.8578 65.2331 74.884 65.4236C74.9825 66.1401 75.0844 66.881 74.7242 67.3419C74.6151 67.4976 74.5292 68.2577 74.5412 68.9529C74.6703 69.5406 74.9299 70.8439 74.809 71.3159C74.7566 71.5206 74.6479 71.7243 74.5427 71.9214C74.462 72.0725 74.273 72.4264 74.3087 72.5227C74.4309 72.8522 74.4619 73.4372 74.4923 74.2276C74.5038 74.527 74.5157 74.8366 74.5357 74.9543C74.5628 75.1138 74.5807 75.417 74.6077 75.8983C74.6364 76.4099 74.6895 77.3582 74.7607 77.5661C74.8849 77.8169 74.8421 78.1506 74.7501 78.7586C74.7055 79.0528 74.6156 79.647 74.6613 79.8508C75.0319 80.1338 75.0844 80.5072 75.127 80.8102C75.1536 80.9995 75.1812 81.1953 75.2754 81.4293C75.41 81.7634 75.254 82.1648 75.0565 82.6728C74.959 82.9236 74.7588 83.4387 74.7861 83.6063C75.1989 84.1761 75.1274 85.7155 75.0768 86.3572C75.0657 86.4959 74.9654 87.72 74.858 88.2006C74.8241 88.3525 74.7607 88.5397 74.6935 88.738C74.6141 88.9721 74.4541 89.444 74.4589 89.627C74.6086 89.8183 74.7258 90.1761 74.8074 91.0948C74.8554 91.6357 74.8686 92.1335 74.8692 92.1544L74.8701 92.1918L74.8652 92.2289C74.7469 93.1115 74.7175 94.0594 74.8013 94.2701C75.1564 94.8479 75.2358 97.1215 75.0498 97.6309C75.0024 97.7654 74.936 98.2935 74.8888 100.045C74.8867 100.126 74.8849 100.192 74.8834 100.24C74.8804 100.331 74.8747 100.448 74.8682 100.578C74.8524 100.896 74.8154 101.641 74.8656 101.817C74.929 102.039 74.9044 102.33 74.8732 102.699C74.8444 103.039 74.8085 103.463 74.8698 103.711C74.9528 104.046 74.9 104.451 74.844 104.881C74.7956 105.252 74.7294 105.76 74.8305 105.954C75.0751 106.423 74.986 107.111 74.9074 107.718C74.8821 107.914 74.8479 108.178 74.8546 108.276C74.9691 108.571 74.9789 109.238 74.8836 110.261V112.079L74.8764 112.12C74.721 113.001 74.604 114.438 74.8304 114.872C75.1529 115.491 75.0206 116.175 74.924 116.674C74.8926 116.836 74.8497 117.058 74.8601 117.133C74.9542 117.41 74.9049 117.742 74.848 118.125C74.7934 118.493 74.7254 118.95 74.8392 119.193C74.9085 119.341 75.0098 119.503 75.1169 119.674C75.2775 119.93 75.4436 120.195 75.532 120.466C75.7007 120.985 75.5156 121.324 75.3305 121.517C74.9586 121.904 74.6812 122.618 74.6816 122.793C74.6859 122.829 74.7058 122.874 74.7428 122.955C74.8354 123.157 74.9754 123.463 74.9517 124.028C74.9327 124.479 75.321 125.741 75.5702 126.431L75.6999 126.79L75.3748 126.99C75.1809 127.11 74.9695 127.304 74.9107 127.411C75.1898 127.952 75.0554 129.204 74.9635 129.835L75.6393 131.881L75.5378 132.062C75.4005 132.306 75.0224 132.999 74.9233 133.269C74.8181 133.556 74.8181 134.496 74.8181 135.118C74.8181 135.426 74.7716 135.886 74.7224 136.373C74.676 136.833 74.6077 137.51 74.627 137.752C74.8341 138.032 74.8923 138.508 74.8157 139.261C74.7737 139.673 74.6517 140.465 74.5788 140.938C74.5599 141.061 74.5452 141.156 74.5374 141.21C74.5032 141.444 74.4828 142.617 74.529 142.83C74.6083 143.151 74.5581 143.88 74.5408 144.096L74.5098 144.482L74.1251 144.525C67.9719 145.202 60.9001 145.444 53.9471 145.444ZM74.8338 108.229C74.8339 108.229 74.8341 108.23 74.8343 108.23L74.8338 108.229ZM73.7406 90.2271C73.7409 90.2274 73.7412 90.2278 73.7416 90.2281L73.7406 90.2271ZM74.754 77.553C74.755 77.5549 74.756 77.5568 74.7569 77.5587C74.7559 77.5567 74.7549 77.5548 74.754 77.553ZM74.4649 47.157C74.4933 47.1665 74.524 47.1736 74.5571 47.1774C74.5353 47.1748 74.5028 47.1692 74.4649 47.157Z" fill="black"/>
<path d="M91.8169 35.9542C91.9476 35.9542 92.0651 36.0588 92.0651 36.2027V39.1845C92.0651 40.7932 90.7589 42.114 89.1783 42.114C87.5586 42.114 86.2393 40.7932 86.2393 39.1976V37.3013H83.1695C83.0389 37.3013 82.9213 37.1836 82.9213 37.0528V36.2027C82.9213 36.0588 83.0389 35.9542 83.1695 35.9542H91.8169ZM87.5194 39.1061C87.5194 40.0085 88.2509 40.7669 89.1914 40.7669C90.0796 40.7669 90.7589 40.0085 90.7589 39.1061V37.3013H87.5194V39.1061Z" fill="#EFEFEF"/>
<path d="M92.1958 47.7502C92.1958 50.3658 90.0927 52.4583 87.4802 52.4583C84.8676 52.4583 82.7908 50.3659 82.7908 47.7502C82.7908 45.1346 84.8676 43.0553 87.4802 43.0553C90.0927 43.0553 92.1958 45.1346 92.1958 47.7502ZM84.0969 47.7502C84.0969 49.6204 85.6123 51.1505 87.4802 51.1505C89.3351 51.1505 90.8895 49.6204 90.8895 47.7502C90.8895 45.8932 89.3351 44.363 87.4802 44.363C85.6123 44.363 84.0969 45.8932 84.0969 47.7502Z" fill="#EFEFEF"/>
<path d="M91.8169 54.3278C91.9476 54.3278 92.0651 54.4324 92.0651 54.5763V58.1335C92.0651 59.7029 90.8242 60.9846 89.2698 60.9846C88.0679 60.9846 87.0753 60.1867 86.6181 59.0489L83.3001 60.8407C83.1303 60.9322 82.9213 60.8407 82.9213 60.6183V59.5982C82.9213 59.4936 82.9866 59.4152 83.0389 59.389L86.5004 57.6496V55.6748H83.1695C83.0389 55.6748 82.9213 55.5572 82.9213 55.4263V54.5763C82.9213 54.4324 83.0389 54.3278 83.1695 54.3278H91.8169ZM87.6239 58.0289C87.6239 58.8789 88.3423 59.6245 89.2436 59.6245C90.0927 59.6245 90.7981 58.8789 90.7981 58.0289V55.7009H87.6239V58.0289Z" fill="#EFEFEF"/>
<path d="M90.8373 64.2797V62.148C90.8373 62.0042 90.9548 61.8995 91.0854 61.8995H91.8169C91.9476 61.8995 92.0651 62.0042 92.0651 62.148V67.7716C92.0651 67.9154 91.9476 68.0201 91.8169 68.0201H91.0854C90.9548 68.0201 90.8373 67.9154 90.8373 67.7716V65.6398H83.1695C83.0389 65.6398 82.9213 65.5221 82.9213 65.3914V64.5282C82.9213 64.3974 83.0389 64.2797 83.1695 64.2797H90.8373Z" fill="#EFEFEF"/>
<path d="M91.8169 69.4321C91.9476 69.4321 92.0651 69.5367 92.0651 69.6806V73.2378C92.0651 74.8072 90.8242 76.0888 89.2698 76.0888C88.0679 76.0888 87.0753 75.291 86.6181 74.1533L83.3001 75.945C83.1303 76.0366 82.9213 75.945 82.9213 75.7227V74.7026C82.9213 74.5979 82.9866 74.5194 83.0389 74.4933L86.5004 72.754V70.7791H83.1695C83.0389 70.7791 82.9213 70.6615 82.9213 70.5306V69.6806C82.9213 69.5367 83.0389 69.4321 83.1695 69.4321H91.8169ZM87.6239 73.1332C87.6239 73.9832 88.3423 74.7287 89.2436 74.7287C90.0927 74.7287 90.7981 73.9832 90.7981 73.1332V70.8053H87.6239V73.1332Z" fill="#EFEFEF"/>
<path d="M83.2609 76.8992L92.0521 80.9141C92.1304 80.9534 92.1958 81.0711 92.1958 81.1365V81.2672C92.1958 81.3326 92.1304 81.4504 92.0521 81.4896L83.2609 85.4784C83.0911 85.5568 82.9213 85.4522 82.9213 85.2561V84.4322C82.9213 84.2752 82.9998 84.1837 83.1173 84.1314L84.9068 83.3205V79.044C84.3059 78.7825 83.7181 78.5077 83.1173 78.2463C83.0258 78.207 82.9213 78.1024 82.9213 77.9455V77.1215C82.9213 76.9253 83.0911 76.8207 83.2609 76.8992ZM86.0303 82.8236L89.6094 81.2149V81.1496L86.0303 79.554V82.8236Z" fill="#EFEFEF"/>
<path d="M85.1158 88.6031H85.8996L91.8692 93.442C91.9084 93.4812 91.9476 93.5858 91.9476 93.6381V94.122C91.9476 94.2528 91.8431 94.3705 91.6994 94.3705H85.9258V95.4299C85.9258 95.5737 85.8213 95.6783 85.6906 95.6783H85.1419C85.0113 95.6783 84.8938 95.5737 84.8938 95.4299V94.3705L83.1695 94.3836C83.0389 94.3836 82.9213 94.2659 82.9213 94.1351V93.3635C82.9213 93.2328 83.0389 93.115 83.1695 93.115H84.8676V88.8516C84.8676 88.7077 84.9853 88.6031 85.1158 88.6031ZM85.9518 93.1673H89.7923L85.9518 90.0155V93.1673Z" fill="#EFEFEF"/>
<path d="M87.3626 97.0379C90.2234 97.0379 91.9345 98.215 91.9345 100.281C91.9345 102.334 90.2234 103.512 87.3626 103.512C84.5019 103.512 82.7908 102.334 82.7908 100.281C82.7908 98.215 84.5019 97.0379 87.3626 97.0379ZM87.3626 102.191C89.5049 102.191 90.7328 101.497 90.7328 100.281C90.7328 99.052 89.5049 98.3588 87.3626 98.3588C85.1943 98.3588 83.9794 99.052 83.9794 100.281C83.9794 101.497 85.1943 102.191 87.3626 102.191Z" fill="#EFEFEF"/>
<path d="M87.3626 105.29C90.2234 105.29 91.9345 106.467 91.9345 108.533C91.9345 110.586 90.2234 111.763 87.3626 111.763C84.5019 111.763 82.7908 110.586 82.7908 108.533C82.7908 106.467 84.5019 105.29 87.3626 105.29ZM87.3626 110.443C89.5049 110.443 90.7328 109.749 90.7328 108.533C90.7328 107.304 89.5049 106.611 87.3626 106.611C85.1943 106.611 83.9794 107.304 83.9794 108.533C83.9794 109.749 85.1943 110.443 87.3626 110.443Z" fill="#EFEFEF"/>
<path d="M89.4078 126.978L89.6244 127.233C89.6999 127.336 89.681 127.412 89.5774 127.487C89.4738 127.572 88.9275 128.081 88.9275 128.892C88.9275 129.609 89.3608 130.25 90.1049 130.25C90.7453 130.25 91.3388 129.75 91.3388 128.581V128.053C91.3388 127.949 91.3952 127.874 91.546 127.874H91.772C91.9227 127.874 91.9792 127.921 91.9792 128.072V128.591C91.9792 129.6 92.4972 130.09 93.1189 130.09C93.863 130.09 94.3151 129.524 94.3151 128.855C94.3151 128.213 93.9383 127.827 93.7028 127.619C93.637 127.563 93.5993 127.468 93.6841 127.374L93.863 127.148C93.929 127.072 94.042 127.082 94.1079 127.148C94.1079 127.148 94.9367 127.827 94.9367 128.855C94.9367 129.996 94.268 130.797 93.2131 130.797C92.4878 130.797 91.9227 130.25 91.7249 129.826H91.6967C91.5083 130.269 90.9808 130.958 90.1708 130.958C89.1441 130.958 88.3435 130.165 88.3435 128.864C88.3435 127.704 88.9463 127.176 89.1818 126.969C89.2477 126.912 89.3514 126.903 89.4078 126.978Z" fill="#EFEFEF"/>
<path d="M95.0592 135.145C95.0969 135.239 95.0497 135.314 94.965 135.352L94.739 135.456C94.626 135.503 94.5224 135.465 94.4658 135.286C94.3245 134.862 93.3921 133.192 92.1205 132.862C92.1205 132.862 92.5444 133.485 92.5444 134.296C92.5444 135.362 91.7532 136.323 90.5004 136.323C89.3137 136.323 88.3435 135.371 88.3435 134.239C88.3435 132.712 89.5303 132.042 91.0279 132.042C93.5334 132.042 94.6824 134.192 95.0592 135.145ZM90.4628 135.654C91.2822 135.654 91.9322 135.022 91.9322 134.23C91.9322 133.353 91.3199 132.74 91.3199 132.74C90.378 132.58 88.9652 132.947 88.9652 134.239C88.9652 135.031 89.6527 135.654 90.4628 135.654Z" fill="#EFEFEF"/>
<path d="M87.3583 124.206C87.4526 124.206 87.5373 124.281 87.5373 124.385V128.1C87.5373 128.204 87.4526 128.279 87.3583 128.279H87.0852C86.991 128.279 86.9062 128.204 86.9062 128.1V124.932H84.608V127.638C84.608 127.732 84.5232 127.817 84.429 127.817H84.1559C84.0523 127.817 83.977 127.732 83.977 127.638V124.932H81.5751V128.1C81.5751 128.204 81.4903 128.279 81.3962 128.279H81.123C81.0288 128.279 80.944 128.204 80.944 128.1V124.385C80.944 124.281 81.0288 124.206 81.123 124.206H87.3583Z" fill="#EFEFEF"/>
<path d="M84.3254 131.118L87.2736 129.279C87.396 129.204 87.5373 129.279 87.5373 129.439V129.949C87.5373 130.014 87.4996 130.081 87.4526 130.109L84.9565 131.561V131.57L87.4526 133.042C87.4996 133.07 87.5373 133.126 87.5373 133.202V133.711C87.5373 133.871 87.396 133.947 87.2736 133.871L84.3254 132.033L81.2077 133.937C81.0759 134.013 80.944 133.937 80.944 133.777V133.343C80.944 133.268 80.9911 133.202 81.0288 133.183L83.6944 131.57V131.561L81.0288 129.967C80.9817 129.939 80.944 129.883 80.944 129.807V129.373C80.944 129.204 81.0853 129.128 81.2077 129.204L84.3254 131.118Z" fill="#EFEFEF"/>
<path d="M87.3583 135.286C87.4526 135.286 87.5373 135.361 87.5373 135.465V137.549C87.5373 138.709 86.5953 139.662 85.4557 139.662C84.2877 139.662 83.3364 138.709 83.3364 137.559V136.003H81.123C81.0288 136.003 80.944 135.918 80.944 135.824V135.465C80.944 135.361 81.0288 135.286 81.123 135.286H87.3583ZM84.0334 137.502C84.0334 138.275 84.6645 138.936 85.4746 138.936C86.2374 138.936 86.8215 138.275 86.8215 137.502V136.003H84.0334V137.502Z" fill="#EFEFEF"/>
<path d="M103.247 76.9581C103.291 76.9581 103.332 76.994 103.332 77.0432V78.0335C103.332 78.5847 102.884 79.0372 102.343 79.0372C101.788 79.0372 101.336 78.5847 101.336 78.038V77.2987H100.284C100.239 77.2987 100.199 77.2583 100.199 77.2135V77.0432C100.199 76.994 100.239 76.9581 100.284 76.9581H103.247ZM101.667 78.0111C101.667 78.3785 101.967 78.6922 102.352 78.6922C102.714 78.6922 102.992 78.3785 102.992 78.0111V77.2987H101.667V78.0111Z" fill="black"/>
<path d="M102.034 80.0768C102.034 80.5741 101.604 80.9685 101.098 80.9685C100.584 80.9685 100.154 80.5741 100.154 80.0768C100.154 79.5794 100.584 79.1851 101.098 79.1851C101.604 79.1851 102.034 79.5794 102.034 80.0768ZM100.445 80.0768C100.445 80.4039 100.736 80.6593 101.098 80.6593C101.452 80.6593 101.738 80.4039 101.738 80.0768C101.738 79.7497 101.452 79.4942 101.098 79.4942C100.736 79.4942 100.445 79.7497 100.445 80.0768Z" fill="black"/>
<path d="M101.904 81.4747C101.949 81.4747 101.989 81.5149 101.989 81.5597V81.6449C101.989 81.6807 101.967 81.7121 101.926 81.7211L101.797 81.7569C101.797 81.7569 102.034 81.9227 102.034 82.2946C102.034 82.429 102.011 82.6531 101.886 82.6083L101.734 82.5545C101.676 82.5321 101.676 82.4918 101.694 82.4469C101.711 82.4067 101.729 82.3394 101.729 82.2722C101.729 81.9317 101.479 81.7838 101.479 81.7838H100.284C100.239 81.7838 100.199 81.7435 100.199 81.6986V81.5597C100.199 81.5149 100.239 81.4747 100.284 81.4747H101.904Z" fill="black"/>
<path d="M101.72 83.0877V82.8592C101.72 82.8099 101.761 82.774 101.805 82.774H101.904C101.953 82.774 101.989 82.8099 101.989 82.8592V83.0877H102.486C102.531 83.0877 102.571 83.1281 102.571 83.1729L102.58 83.3162C102.58 83.361 102.54 83.3969 102.495 83.3969H101.989V83.9166C101.989 83.9659 101.953 84.0018 101.904 84.0018H101.805C101.761 84.0018 101.72 83.9659 101.72 83.9166V83.3969H100.673C100.494 83.3969 100.458 83.4417 100.458 83.5448C100.458 83.6568 100.526 83.8137 100.557 83.8718C100.593 83.9391 100.566 83.957 100.53 83.9794L100.418 84.0466C100.364 84.078 100.338 84.0645 100.306 84.0153C100.266 83.9526 100.154 83.7106 100.154 83.4999C100.154 83.1414 100.369 83.0877 100.646 83.0877H101.72Z" fill="black"/>
<path d="M101.904 84.5036C101.949 84.5036 101.989 84.5439 101.989 84.5886V84.6738C101.989 84.7096 101.967 84.7411 101.926 84.75L101.797 84.7858C101.797 84.7858 102.034 84.9516 102.034 85.3236C102.034 85.4579 102.011 85.682 101.886 85.6372L101.734 85.5835C101.676 85.561 101.676 85.5208 101.694 85.476C101.711 85.4356 101.729 85.3684 101.729 85.3011C101.729 84.9606 101.479 84.8127 101.479 84.8127H100.284C100.239 84.8127 100.199 84.7725 100.199 84.7276V84.5886C100.199 84.5439 100.239 84.5036 100.284 84.5036H101.904Z" fill="black"/>
<path d="M101.336 86.5871C101.336 86.7798 101.277 86.968 101.277 86.968C101.609 86.9726 101.761 86.9322 101.761 86.6767C101.761 86.4303 101.694 86.2197 101.662 86.1391C101.644 86.0942 101.667 86.0673 101.707 86.0539L101.819 86.0181C101.873 86.0002 101.899 86.0271 101.917 86.0673C101.931 86.0942 102.034 86.3541 102.034 86.6902C102.034 87.1473 101.801 87.2592 101.277 87.2592H100.284C100.239 87.2592 100.199 87.219 100.199 87.1742V87.089C100.199 87.0397 100.226 87.0263 100.266 87.0128L100.387 86.977C100.293 86.8829 100.154 86.6992 100.154 86.4213C100.154 86.1077 100.382 85.8702 100.74 85.8702C101.08 85.8702 101.336 86.1256 101.336 86.5871ZM100.423 86.4707C100.423 86.6947 100.561 86.8874 100.673 86.9635H101.027C101.058 86.9097 101.098 86.7843 101.098 86.5871C101.098 86.3362 100.973 86.157 100.74 86.157C100.561 86.157 100.423 86.278 100.423 86.4707Z" fill="black"/>
<path d="M100.973 88.6302H101.139L103.265 90.3285C103.278 90.3419 103.291 90.3554 103.291 90.3956V90.4853C103.291 90.5301 103.256 90.5705 103.206 90.5705L101.161 90.5749V90.9379C101.161 90.9871 101.125 91.0231 101.08 91.0231H100.982C100.937 91.0231 100.897 90.9871 100.897 90.9379V90.5749H100.284C100.239 90.5749 100.199 90.5346 100.199 90.4898V90.3375C100.199 90.2927 100.239 90.2523 100.284 90.2523H100.888V88.7153C100.888 88.666 100.928 88.6302 100.973 88.6302ZM101.165 90.2702H102.723L101.165 89.0067V90.2702Z" fill="black"/>
<path d="M101.72 91.5114C102.701 91.5114 103.287 91.9057 103.287 92.6002C103.287 93.2948 102.701 93.6891 101.72 93.6891C100.74 93.6891 100.154 93.2948 100.154 92.6002C100.154 91.9057 100.74 91.5114 101.72 91.5114ZM101.72 93.371C102.531 93.371 102.996 93.0932 102.996 92.6002C102.996 92.1073 102.531 91.8295 101.72 91.8295C100.901 91.8295 100.445 92.1073 100.445 92.6002C100.445 93.0932 100.901 93.371 101.72 93.371Z" fill="black"/>
<path d="M101.72 94.3431C102.701 94.3431 103.287 94.7374 103.287 95.432C103.287 96.1265 102.701 96.5208 101.72 96.5208C100.74 96.5208 100.154 96.1265 100.154 95.432C100.154 94.7374 100.74 94.3431 101.72 94.3431ZM101.72 96.2027C102.531 96.2027 102.996 95.9249 102.996 95.432C102.996 94.939 102.531 94.6612 101.72 94.6612C100.901 94.6612 100.445 94.939 100.445 95.432C100.445 95.9249 100.901 96.2027 101.72 96.2027Z" fill="black"/>
<path d="M101.367 98.0978C101.51 98.0978 101.622 98.2143 101.622 98.3533C101.622 98.4966 101.51 98.6086 101.367 98.6086C101.228 98.6086 101.112 98.4966 101.112 98.3533C101.112 98.2143 101.228 98.0978 101.367 98.0978Z" fill="black"/>
<path d="M100.66 100.078L100.763 100.199C100.798 100.248 100.79 100.284 100.74 100.32C100.691 100.361 100.432 100.603 100.432 100.988C100.432 101.328 100.637 101.633 100.991 101.633C101.295 101.633 101.577 101.396 101.577 100.84V100.589C101.577 100.54 101.604 100.504 101.676 100.504H101.783C101.855 100.504 101.882 100.526 101.882 100.598V100.844C101.882 101.324 102.128 101.557 102.423 101.557C102.777 101.557 102.992 101.288 102.992 100.97C102.992 100.665 102.812 100.482 102.701 100.383C102.669 100.356 102.651 100.311 102.692 100.266L102.777 100.159C102.808 100.123 102.862 100.127 102.893 100.159C102.893 100.159 103.287 100.482 103.287 100.97C103.287 101.512 102.969 101.893 102.468 101.893C102.123 101.893 101.855 101.633 101.761 101.431H101.747C101.658 101.642 101.407 101.969 101.022 101.969C100.534 101.969 100.154 101.593 100.154 100.974C100.154 100.423 100.44 100.172 100.552 100.074C100.584 100.047 100.633 100.042 100.66 100.078Z" fill="black"/>
<path d="M103.345 103.959C103.363 104.003 103.341 104.039 103.3 104.057L103.193 104.106C103.139 104.129 103.09 104.111 103.063 104.026C102.996 103.824 102.553 103.031 101.949 102.874C101.949 102.874 102.15 103.17 102.15 103.555C102.15 104.062 101.774 104.519 101.179 104.519C100.615 104.519 100.154 104.066 100.154 103.528C100.154 102.803 100.718 102.484 101.43 102.484C102.62 102.484 103.166 103.506 103.345 103.959ZM101.161 104.201C101.55 104.201 101.859 103.9 101.859 103.524C101.859 103.107 101.568 102.816 101.568 102.816C101.121 102.74 100.449 102.915 100.449 103.528C100.449 103.905 100.776 104.201 101.161 104.201Z" fill="black"/>
</svg>
