<svg width="122" height="200" viewBox="0 0 122 200" fill="none" xmlns="http://www.w3.org/2000/svg">
<path d="M62.2484 199.641C62.3031 199.499 62.2841 199.173 62.1429 199.233L62.0278 199.782L62.2484 199.641Z" fill="#535353"/>
<path d="M61.3408 198.592C61.1691 198.855 60.9662 199.319 61.0575 199.828C61.2354 199.303 61.2682 199.526 61.4615 198.9C61.6029 198.84 61.6997 199.084 61.6702 199.286C61.7237 199.146 61.8833 199.414 61.9685 199.069C61.7996 198.638 61.5702 198.614 61.3198 198.959C61.2718 198.836 61.326 198.694 61.3408 198.592Z" fill="#535353"/>
<path d="M47.8161 197.249L47.892 197.323C47.8733 197.285 47.8471 197.262 47.8161 197.249Z" fill="#535353"/>
<path d="M42.6079 192.824C42.6388 192.878 42.6986 192.885 42.7472 192.873C42.6958 192.831 42.6498 192.797 42.6079 192.824Z" fill="#535353"/>
<path d="M42.4438 190.565C42.4541 190.616 42.4674 190.655 42.4774 190.701C42.4945 190.623 42.4902 190.561 42.4438 190.565Z" fill="#535353"/>
<path d="M47.8161 197.249L47.6276 197.048C47.5884 197.224 47.7177 197.195 47.8161 197.249Z" fill="#535353"/>
<path d="M59.4228 199.867C59.4708 199.841 59.5116 199.791 59.5495 199.725C59.51 199.748 59.4719 199.767 59.4327 199.781C59.4298 199.81 59.4272 199.836 59.4228 199.867Z" fill="#535353"/>
<path d="M51.4753 196.995L51.5438 196.996C51.5658 196.934 51.587 196.859 51.6074 196.774L51.4753 196.995Z" fill="#535353"/>
<path d="M54.3338 196.994C54.2698 196.972 54.2336 197.439 54.2028 197.643C54.245 197.452 54.2954 197.361 54.3531 197.327C54.3568 197.238 54.3515 197.131 54.3338 196.994Z" fill="#535353"/>
<path d="M58.8384 197.951L58.9207 197.888C58.8992 197.908 58.8634 197.926 58.8384 197.951Z" fill="#535353"/>
<path d="M49.4572 196.828C49.4559 196.758 49.4489 196.696 49.4401 196.659C49.4373 196.718 49.4445 196.774 49.4572 196.828Z" fill="#535353"/>
<path d="M2.89891 156.727C2.92469 156.748 2.94412 156.757 2.96722 156.775C2.93943 156.732 2.91556 156.708 2.89891 156.727Z" fill="#535353"/>
<path d="M6.93562 155.573L6.92056 155.623C6.97866 155.69 7.03572 155.756 7.09595 155.818L6.93562 155.573Z" fill="#535353"/>
<path d="M38.9171 188.799C38.9264 188.803 38.9297 188.803 38.9384 188.805C39.0652 188.731 38.9932 188.752 38.9171 188.799Z" fill="#535353"/>
<path d="M20.9126 184.546C20.7072 184.663 20.5703 184.588 20.4271 184.517C20.2839 184.448 20.135 184.381 19.91 184.572C20.0008 184.551 20.1865 184.624 20.3814 184.656C20.5764 184.689 20.7811 184.683 20.9126 184.546Z" fill="#535353"/>
<path d="M59.3506 199.803C59.3119 199.808 59.2726 199.81 59.2334 199.804C59.2863 199.821 59.3223 199.82 59.3506 199.803Z" fill="#535353"/>
<path d="M19.91 184.572L19.9059 184.573L19.8634 184.613C19.8827 184.596 19.8936 184.587 19.91 184.572Z" fill="#535353"/>
<path d="M32.6499 190.23C32.6745 190.31 32.7071 190.368 32.7403 190.424C32.7308 190.376 32.7083 190.321 32.6499 190.23Z" fill="#535353"/>
<path d="M37.1661 190.06L37.0424 190.019C37.0944 190.053 37.1336 190.061 37.1661 190.06Z" fill="#535353"/>
<path d="M30.527 191.152C30.467 191.121 30.4434 191.057 30.37 191.124C30.3789 191.148 30.3872 191.164 30.3976 191.18C30.4215 191.114 30.4563 191.083 30.527 191.152Z" fill="#535353"/>
<path d="M28.2684 191.176C28.278 191.212 28.292 191.24 28.3039 191.272C28.3268 191.264 28.3533 191.258 28.3768 191.251L28.2684 191.176Z" fill="#535353"/>
<path d="M1.59874 165.89C1.66642 165.756 1.76332 165.639 1.86592 165.531C1.6169 165.758 1.24163 165.397 1.59874 165.89Z" fill="#535353"/>
<path d="M59.4293 199.604C59.4115 199.721 59.3888 199.779 59.3506 199.803C59.3789 199.799 59.4061 199.79 59.4327 199.781C59.4419 199.711 59.4454 199.645 59.4293 199.604Z" fill="#535353"/>
<path d="M30.6957 194.844L30.2611 194.801C30.3836 194.839 30.5418 194.853 30.6957 194.844Z" fill="#535353"/>
<path d="M18.315 173.854L18.2212 173.89C18.2504 173.908 18.2822 173.901 18.315 173.854Z" fill="#535353"/>
<path d="M28.9532 194.895C28.8762 194.729 28.7954 194.632 28.7117 194.569C28.6926 194.605 28.671 194.635 28.6572 194.688L28.9532 194.895Z" fill="#535353"/>
<path d="M0.0107891 161.819C-0.0415048 162.122 0.103125 162.212 0.297162 162.242C0.491864 162.273 0.736852 162.255 0.907784 162.331C0.965667 162.656 0.859876 162.729 0.682463 162.749C0.50747 162.77 0.272118 162.727 0.112392 162.856C0.154315 162.977 0.224946 163.089 0.304859 163.19C0.387855 163.293 0.483163 163.386 0.571621 163.47C0.754438 163.641 0.913428 163.779 0.940524 163.941C0.847127 163.987 0.826641 164.062 0.685137 164.014C0.978174 164.197 1.08154 164.514 1.23772 164.811C1.39008 165.106 1.58897 165.376 1.96694 165.396C1.93834 165.453 1.90393 165.495 1.86951 165.528C2.08948 165.299 2.35187 165.127 2.54718 165.019C2.66051 165.179 3.05801 165.081 2.77301 165.373C2.71527 165.275 2.57765 165.361 2.4424 165.385C2.52889 165.41 2.61636 165.429 2.70221 165.448C2.34507 165.942 2.37684 165.342 2.02369 165.576C2.22298 165.706 2.49083 165.781 2.71103 165.859C2.93182 165.938 3.10827 166.017 3.14244 166.179C2.9531 166.39 2.80339 166.297 2.68621 166.221C2.57001 166.146 2.48296 166.093 2.42443 166.412C2.37517 166.245 2.3286 166.071 2.28649 165.898C2.04866 166.32 2.01749 166.254 1.97188 166.183C1.92915 166.115 1.87201 166.041 1.60703 166.48C1.76246 166.812 1.9443 166.909 2.11819 166.996C2.29347 167.084 2.46438 167.166 2.61329 167.433C2.93142 167.308 2.91644 167.078 3.23281 166.95C3.71533 167.04 3.58168 167.396 3.45255 167.733C3.32141 168.067 3.19572 168.376 3.68026 168.301C4.05321 168.126 4.56038 167.626 4.63835 168.184L4.1137 168.579C4.51318 168.997 4.94206 168.074 5.12979 168.772C4.89473 168.907 4.65286 168.666 4.67241 168.779C4.66248 169.413 5.10801 168.664 5.33734 168.836L5.04525 169.325C5.58626 169.623 6.36376 169.653 6.97088 169.9C6.85313 170.026 6.66222 170.117 6.7054 170.346C6.92124 170.398 7.12503 170.478 7.31758 170.585C7.50839 170.694 7.69363 170.82 7.86876 170.967C8.22026 171.257 8.54932 171.602 8.86231 171.925C9.0243 171.82 9.1862 171.708 9.34452 171.598C9.40862 171.631 9.38395 171.854 9.27439 171.911C9.50034 172.206 9.40846 171.631 9.62185 171.512C9.79787 171.549 9.73867 171.86 9.57618 171.956C9.74673 171.91 9.94451 171.871 10.1494 171.847C10.3542 171.824 10.5698 171.807 10.7732 171.823C11.1815 171.845 11.5511 171.973 11.7569 172.299L11.6091 172.408C11.7995 172.564 11.9894 172.357 12.1614 172.178C12.3339 171.997 12.4891 171.843 12.6299 172.114L12.5336 172.179C12.9698 172.399 13.4675 172.446 13.9184 172.547C14.3698 172.646 14.7773 172.797 15.0536 173.224C15.3137 172.556 15.8832 173.694 16.114 172.738C16.5303 173.308 16.3578 173.455 16.993 173.906C17.1666 173.986 17.3817 173.357 17.6311 173.301L17.5362 173.806L17.9491 173.34L17.9851 173.975L18.2212 173.89C18.1453 173.842 18.0923 173.628 18.136 173.485C18.5166 173.329 18.8512 174.011 18.7913 174.27C19.0706 174.19 19.356 174.109 19.6373 174.04C19.5657 174.235 19.4251 174.269 19.2962 174.37C19.8196 173.971 19.222 174.911 19.7014 174.545C19.6864 174.42 19.8115 174.258 19.8488 174.161C19.8954 174.334 20.012 174.455 20.1612 174.524L20.1894 174.537C20.1997 174.541 20.1985 174.542 20.2037 174.544C20.2111 174.548 20.2189 174.551 20.227 174.552C20.2409 174.556 20.2498 174.554 20.2632 174.552C20.2886 174.546 20.3191 174.532 20.3548 174.51C20.2936 174.613 20.235 174.718 20.1791 174.824C20.1919 174.877 20.2411 174.851 20.3236 174.837C20.4021 174.821 20.5137 174.823 20.5435 174.881C20.6195 174.823 20.8055 174.707 20.9904 174.611C21.1745 174.515 21.3643 174.449 21.4208 174.479C21.2384 174.578 21.0541 174.671 20.8654 174.761C21.0519 174.704 21.1005 174.667 21.1576 174.626C21.2139 174.588 21.2835 174.537 21.5304 174.508C21.5273 174.583 21.3586 174.662 21.1748 174.722C20.989 174.782 20.7861 174.835 20.6837 174.86C20.7232 174.856 20.7605 174.856 20.7986 174.857C20.8377 174.859 20.8776 174.861 20.9144 174.867C20.735 174.922 20.6369 174.932 20.4083 175.002C20.5965 174.953 20.4515 175.026 20.3327 175.061C20.2142 175.101 20.1323 175.102 20.4546 175.09L20.2754 175.104C20.2586 175.151 20.4375 175.208 20.4068 175.331C20.5095 175.388 20.585 175.42 20.6272 175.472C20.6719 175.519 20.6957 175.565 20.7148 175.613C20.7529 175.71 20.7728 175.816 20.9024 175.974C20.5866 176.228 20.0601 176.386 19.8355 176.807C19.8472 177.218 20.1153 177.105 20.2658 177.386C20.0795 177.281 19.929 177.335 19.8093 177.369C19.6886 177.405 19.5999 177.419 19.5422 177.227C19.4748 177.362 19.4193 177.472 19.3722 177.575C19.3242 177.68 19.2839 177.778 19.2486 177.884C19.2135 177.989 19.1822 178.107 19.1516 178.253C19.1212 178.396 19.0916 178.567 19.0607 178.787C19.2562 178.802 19.3712 178.759 19.4692 178.878C19.4547 179.038 19.145 179.068 18.9789 178.946L18.9614 178.89C19.0032 179.448 18.4749 179.751 17.9851 180.141C17.7451 180.339 17.5072 180.542 17.3775 180.784C17.3123 180.905 17.2649 181.023 17.2621 181.155C17.2581 181.286 17.2885 181.42 17.3646 181.554L17.3362 181.496C17.3912 181.824 17.4887 182.145 17.5765 182.45C17.5061 182.634 17.4383 182.564 17.347 182.473C17.2565 182.383 17.1514 182.27 16.991 182.395C17.128 182.667 17.1751 182.885 17.1811 183.082C17.1938 183.279 17.1578 183.455 17.1155 183.627C17.0462 183.969 16.9486 184.311 17.2087 184.682C17.0551 184.763 16.9408 184.86 16.8631 184.969C16.7882 185.077 16.7462 185.197 16.7279 185.323C16.6855 185.578 16.7603 185.855 16.8485 186.131C16.8893 186.269 16.9507 186.405 16.9989 186.54C17.0505 186.675 17.0893 186.81 17.1262 186.942C17.162 187.073 17.1825 187.204 17.1783 187.335C17.1762 187.401 17.1679 187.467 17.1523 187.533C17.1395 187.599 17.1192 187.665 17.0903 187.732L17.3534 187.587C17.701 187.688 17.2836 187.887 17.2784 188.065C17.4839 187.958 17.4448 187.751 17.6416 187.816C18.1284 188.578 18.4558 189.409 18.8873 190.283C18.9996 190.497 19.1135 190.717 19.2327 190.934C19.3574 191.143 19.4851 191.354 19.6178 191.565C19.756 191.769 19.905 191.965 20.0573 192.161C20.1322 192.262 20.2156 192.35 20.2985 192.44C20.3817 192.529 20.4666 192.617 20.5532 192.703C20.6181 192.764 20.6855 192.795 20.7551 192.801C20.8254 192.806 20.8965 192.788 20.9672 192.757C21.1086 192.696 21.2488 192.582 21.3807 192.486C21.5126 192.39 21.636 192.312 21.7444 192.322C21.7987 192.327 21.8492 192.354 21.8962 192.413C21.9447 192.468 21.9902 192.553 22.0342 192.68C21.8762 192.801 21.7149 192.921 21.5504 193.039C21.7407 193.052 21.9184 193.081 22.0876 193.123C22.1723 193.143 22.2544 193.169 22.3358 193.193C22.4178 193.216 22.4982 193.241 22.5773 193.269C22.7357 193.323 22.8888 193.389 23.0406 193.455C23.1936 193.516 23.3445 193.581 23.4954 193.647C23.5708 193.68 23.646 193.714 23.7219 193.744L23.9506 193.827C24.1037 193.88 24.2578 193.93 24.4139 193.968C24.5704 194 24.7288 194.022 24.889 194.029C24.9691 194.033 25.0496 194.033 25.1305 194.028C25.2115 194.021 25.293 194.009 25.3747 193.992C25.2749 194.099 25.2333 194.259 25.1165 194.23C25.1941 194.453 25.4339 194.513 25.6568 194.475C25.8804 194.439 26.0843 194.289 26.1157 194.131C26.2932 194.201 26.1051 194.429 26.1917 194.613C26.3004 194.751 26.4851 194.659 26.6452 194.569C26.8063 194.482 26.9451 194.413 26.988 194.619C27.0031 194.687 26.8996 194.739 26.8482 194.763C26.9449 194.677 27.1379 194.718 27.2936 194.712C27.4495 194.705 27.566 194.661 27.5091 194.424C27.7214 194.552 27.9416 194.526 28.1447 194.488C28.349 194.453 28.5382 194.426 28.7117 194.569C28.8341 194.312 29.0188 194.376 29.1883 194.413C29.3573 194.452 29.5081 194.456 29.5371 194.09C29.5269 194.468 29.7241 194.614 29.9593 194.621C30.1942 194.628 30.45 194.482 30.5743 194.299C30.4979 194.532 30.8279 194.52 30.7438 194.841C31.0571 194.805 31.3289 194.639 31.2379 194.259C31.5644 194.684 31.8314 194.466 32.0631 194.291C32.2935 194.109 32.4898 193.964 32.7283 194.515C33.5653 193.986 34.3057 193.572 35.0331 193.253C35.1473 193.998 34.2029 193.485 34.3744 194.254C35.0583 193.816 35.3461 193.101 36.0876 193.14C36.2902 193.205 36.047 193.48 36.0101 193.619C36.6648 193.174 37.3887 193.415 37.9309 192.898C37.9419 192.967 37.8892 193.055 37.8369 193.123C37.9541 193.076 38.1396 193.178 38.0641 192.845L37.9622 192.959C37.6747 192.507 38.2612 191.85 38.2397 191.589C38.2206 192.09 38.3861 192.123 38.5401 192.191C38.7066 192.257 38.8027 192.368 38.7781 193.001C38.8219 192.96 38.8236 192.902 38.8256 192.824C38.8271 192.746 38.8251 192.647 38.8065 192.534C38.8773 192.59 38.89 192.724 38.8758 192.989C38.9359 192.885 38.9662 192.741 38.9976 192.622C39.0294 192.502 39.0676 192.405 39.173 192.394C39.1474 192.566 39.1001 192.637 39.0661 192.84C39.1186 192.668 39.1916 192.494 39.277 192.376C39.3609 192.26 39.4603 192.197 39.5291 192.262C39.4808 192.37 39.4505 192.506 39.4041 192.509C39.4868 192.485 39.5928 192.397 39.723 192.31C39.8829 192.2 40.0783 192.102 40.2266 192.113C40.3751 192.119 40.4732 192.234 40.4353 192.466C39.8105 192.913 40.2864 192.774 39.759 193.205C39.8228 193.203 39.8879 193.208 39.9555 193.221C40.0392 193.147 40.1216 193.068 40.2026 192.984C40.2189 193.064 40.3377 193.079 40.4398 193.122C40.5419 193.164 40.6256 193.231 40.5533 193.343C40.4574 193.321 40.3647 193.31 40.2742 193.303L40.3231 193.366L40.3486 193.399C40.3533 193.406 40.3564 193.407 40.3625 193.419L40.3806 193.453L40.5296 193.731C40.5694 193.595 40.6081 193.461 40.6513 193.329C41.0536 193.545 41.3927 193.065 41.3543 193.517C41.2677 193.457 41.4449 193.815 41.1612 194.102C41.1612 194.102 41.1609 194.101 41.1593 194.101C41.4028 194.186 41.6535 194.256 41.6051 194.536C41.4475 194.675 40.9533 194.762 40.8483 194.853C41.1226 194.829 41.2342 194.998 41.367 195.168C41.4961 195.337 41.6439 195.508 41.9372 195.455C41.7895 195.462 41.5044 195.622 41.4598 195.677C41.607 195.648 41.7527 195.617 41.8969 195.583C41.8641 195.791 41.8297 195.848 41.5943 195.968C41.7068 196.206 41.8454 196.057 41.9652 195.941C42.0878 195.825 42.1787 195.737 42.2132 196.068C42.1587 196.052 42.1216 196.107 42.012 196.067C42.1116 196.365 42.3665 196.547 42.6076 196.702C42.6668 196.741 42.7256 196.781 42.7842 196.821C42.8451 196.857 42.9036 196.894 42.9584 196.935C43.0695 197.014 43.1597 197.117 43.2379 197.237C43.1163 197.531 42.9893 197.499 42.8802 197.435C42.7704 197.376 42.6674 197.306 42.5727 197.572C42.7543 197.699 42.972 197.775 43.1904 197.84C43.4062 197.911 43.6379 197.934 43.8528 197.974C43.9601 197.995 44.0683 198.005 44.1722 198.021C44.2762 198.036 44.3766 198.054 44.4727 198.078C44.6661 198.121 44.8448 198.175 45.0025 198.28L44.9003 198.164C45.1082 197.772 45.1832 197.921 45.2861 198.129C45.3854 198.339 45.5183 198.623 45.7507 198.466C45.6484 198.506 45.5017 198.907 45.5531 198.819C45.666 198.886 45.79 198.924 45.9234 198.942C46.0565 198.956 46.1983 198.944 46.3491 198.923C46.5001 198.904 46.6585 198.863 46.8261 198.82C46.9904 198.779 47.1661 198.735 47.3567 198.686L47.2362 198.899C47.4886 199.142 47.9592 199.11 48.2494 199.237C48.3584 199.018 48.5242 199.069 48.4477 198.731C48.8542 199.414 49.3131 199.261 49.7342 199.078C50.1588 198.892 50.5578 198.676 50.9344 199.226C50.8406 199.225 50.7053 199.418 50.7798 199.42L51.4531 199.231C51.4116 198.845 51.3725 198.996 51.2412 198.692C51.3323 198.466 51.5258 198.295 51.6912 198.3C51.3836 198.546 51.6756 198.918 51.7989 199.136C51.7806 199.018 51.8288 198.889 51.8214 198.769C52.1498 199.464 51.9026 197.996 52.3648 198.471L52.3337 198.673C52.5148 198.575 52.6868 198.312 52.8772 198.376C52.9437 198.823 52.6815 198.578 52.6585 198.944C52.929 198.926 53.2155 198.116 53.4466 198.567C53.3284 198.688 53.1636 198.685 53.0454 198.805C53.2959 199.335 53.3306 199.203 53.5257 199.292L53.5066 199.28L53.9563 199.53L53.8442 199.384C54.2159 198.234 54.5378 199.193 55.0149 198.446C54.5517 199.153 54.9296 198.86 54.8809 199.363C54.9929 199.507 55.1648 199.669 55.1103 199.81C55.3371 199.409 55.4597 200.14 55.7804 199.555C55.7893 199.717 56.0099 199.577 55.9494 199.984C56.2326 199.864 55.8917 199.699 55.9212 199.496C56.3682 198.953 56.9138 200.199 57.5557 199.455C58.0991 199.158 58.214 198.613 58.7178 198.355C58.8775 198.619 58.5634 198.942 58.5634 198.942C58.8263 199.189 59.0306 199.151 59.2905 198.973C59.2348 199.113 59.2844 199.234 59.3566 199.419C59.5619 199.383 59.5104 198.832 59.7726 199.079C59.7211 199.259 59.6533 199.547 59.5495 199.725C59.7945 199.583 60.0409 199.287 60.2943 199.148C60.352 199.433 60.1314 199.573 60.0382 199.755C60.3218 199.636 60.7709 199.519 60.8705 199.074L60.6956 198.909C60.7983 198.89 60.7368 199.295 60.6591 199.375C60.409 199.719 60.3178 199.209 60.309 199.046L60.4894 198.947C60.3353 197.989 59.7726 199.079 59.4172 199.013L59.5864 198.325L59.2033 198.889C59.1307 198.706 59.0888 198.318 59.2682 198.219C59.0223 197.869 59.0344 198.459 58.8257 198.071C58.8032 198.011 58.8152 197.978 58.8384 197.951L58.5823 198.15C58.6356 198.006 58.5551 197.66 58.7058 197.764C58.2687 197.351 57.9667 198.263 57.8131 197.733L57.8519 197.691C57.2222 197.907 57.7767 198.198 57.292 198.781L57.0145 197.517L56.9384 198.024C56.8746 198.004 56.7487 197.962 56.7781 197.759C56.5288 198.1 56.8124 197.982 56.664 198.306C56.3683 197.834 55.8049 198.498 55.759 197.685C55.6367 198.069 56.046 197.992 55.708 198.252C55.6394 197.377 55.3219 198.39 55.0512 197.982C55.1512 197.534 55.4118 197.78 55.1409 197.37C54.9481 198.126 54.5957 197.188 54.3531 197.327C54.3242 197.931 53.8275 197.564 53.4218 197.753C53.453 197.551 52.6791 197.399 52.3136 197.169L52.3275 197.068C52.2376 197.678 51.8572 197.551 51.5741 197.669C51.5959 197.303 51.6504 197.161 51.8065 197.001L51.5438 196.996C51.4761 197.19 51.3911 197.291 51.2187 197.356L51.2982 196.901C50.9487 196.916 50.5764 197.419 50.1395 197.1C50.0989 197.526 50.4617 198.299 49.9749 198.568C49.9647 198.337 49.9609 197.942 50.0876 197.852C50.0462 197.88 49.9365 198.039 49.8581 197.938L50.0598 197.556C49.8631 197.379 49.9428 197.877 49.7812 197.835C49.7964 197.507 49.6702 197.596 49.7038 197.336C49.7454 197.306 49.8394 197.476 49.9057 197.35C49.7247 197.286 49.5167 197.079 49.4573 196.828C49.464 197.015 49.4368 197.27 49.3024 197.307C48.9622 197.312 49.2079 196.905 49.0237 196.725C48.9281 196.949 48.7333 196.699 48.6921 197.188C48.5944 197.177 48.5945 196.947 48.5684 196.811C48.3775 197.019 47.7755 196.793 47.9055 197.335L47.946 197.374C47.9365 197.383 47.9266 197.383 47.9152 197.392C47.6034 197.602 47.3091 197.493 47.0405 197.336C46.9041 197.262 46.7748 197.172 46.6444 197.106C46.5789 197.074 46.5127 197.048 46.4445 197.034C46.3774 197.017 46.3093 197.009 46.2367 197.016L46.2802 196.858C46.1912 196.882 46.1009 196.89 46.0108 196.891C45.923 196.888 45.8359 196.879 45.7488 196.876C45.5722 196.873 45.407 196.878 45.2303 196.997C45.1371 196.958 45.1385 196.636 45.2563 196.472C45.1276 196.478 45.0353 196.518 44.9516 196.508C44.9098 196.504 44.8702 196.486 44.8301 196.446C44.7906 196.405 44.7553 196.334 44.7181 196.234C45.0554 196.098 44.7759 195.979 45.0209 196.164C44.9249 196.036 44.9093 195.9 44.8482 195.835C44.8191 195.801 44.7771 195.786 44.716 195.787C44.6554 195.788 44.5709 195.811 44.4438 195.858C44.6078 195.716 44.6417 195.577 44.6201 195.484C44.5937 195.393 44.5244 195.329 44.4374 195.339C44.4169 195.453 44.3965 195.573 44.3856 195.692C44.2359 195.647 44.1621 195.532 44.0902 195.423C44.2335 195.306 44.3777 195.183 44.5176 195.06C44.5262 194.963 44.5267 194.886 44.5007 194.837C44.4763 194.786 44.4323 194.758 44.3741 194.741C44.2624 194.704 44.0991 194.708 43.9432 194.688C43.6347 194.657 43.3514 194.527 43.7545 194.079C43.5491 194.106 43.522 194.202 43.4937 194.308C43.4636 194.413 43.4322 194.53 43.2009 194.581C43.1838 194.511 43.2054 194.418 43.2494 194.321C43.295 194.221 43.3621 194.117 43.431 194.022C43.5707 193.828 43.7181 193.671 43.7027 193.634C43.7749 193.412 43.5577 193.412 43.324 193.402C43.0909 193.394 42.8421 193.377 42.8726 193.139C42.703 193.252 42.221 193.484 41.9365 193.213C41.9109 192.891 42.6074 192.567 42.8238 192.739C42.8611 192.804 42.812 192.856 42.7471 192.873C42.846 192.946 42.9646 193.04 43.133 192.861L42.9328 192.885C42.9696 192.834 42.9881 192.772 43.0008 192.707C43.0073 192.674 43.0123 192.641 43.0173 192.607C43.0169 192.555 43.0156 192.505 43.0167 192.453C43.0209 192.252 43.0536 192.083 43.2285 192.107C43.0836 191.94 42.9983 191.937 42.9453 192.009C42.8925 192.082 42.8722 192.229 42.8624 192.383C42.9085 192.018 42.8365 191.754 42.7489 191.513C42.7005 191.396 42.6523 191.277 42.6073 191.147C42.5607 191.017 42.5172 190.875 42.4774 190.701C42.4437 190.867 42.2925 191.103 42.2541 191.014C42.2057 190.773 42.1351 190.653 42.07 190.6C42.0053 190.546 41.9407 190.559 41.8779 190.586C41.815 190.613 41.7496 190.656 41.677 190.67C41.6045 190.683 41.525 190.668 41.4204 190.587C41.4013 190.358 41.5191 190.229 41.5837 190.138C41.6149 190.091 41.6296 190.054 41.5972 190.017C41.5656 189.98 41.4831 189.944 41.3192 189.92C41.2075 189.745 41.2453 189.624 41.3512 189.533C41.4044 189.487 41.4716 189.454 41.5416 189.428C41.612 189.401 41.6832 189.385 41.7404 189.374C41.5334 189.371 41.3719 189.325 41.2352 189.256C41.0556 189.169 40.917 189.036 40.7818 188.912C40.7145 188.85 40.6488 188.79 40.5829 188.742C40.517 188.693 40.452 188.653 40.381 188.648C40.4516 188.615 40.5186 188.592 40.5851 188.573C40.6518 188.554 40.719 188.535 40.7861 188.518C40.6653 188.549 40.5641 188.558 40.4664 188.566C40.3653 188.582 40.2727 188.585 40.1788 188.589C40.22 188.719 40.2557 188.848 40.2861 188.977C40.0997 188.919 39.9224 188.927 39.9582 188.76C39.8231 188.897 39.8379 189.062 39.8177 189.239C39.8001 189.417 39.7463 189.608 39.5437 189.802C39.4422 189.71 39.2569 189.773 39.0967 189.818C38.9364 189.857 38.7993 189.851 38.7404 189.595C39.1353 189.623 39.1156 189.493 39.0827 189.332C39.0491 189.172 38.987 188.977 39.3735 188.882C39.2218 188.961 39.0472 188.991 38.8286 188.953C38.7939 188.899 38.8561 188.839 38.9171 188.799C38.6911 188.716 38.543 188.717 38.4503 188.765C38.3567 188.813 38.3148 188.909 38.2773 189.019C38.2424 189.128 38.1955 189.255 38.1604 189.353C38.1203 189.452 38.0513 189.53 37.9216 189.549C37.9363 189.246 37.7033 189.018 37.6291 189.095C37.8406 189.064 37.815 189.563 37.666 189.82C37.297 189.654 37.3416 190.055 37.1661 190.06L37.3811 190.13C37.3696 190.433 37.1992 190.424 36.9922 190.56C36.9295 190.337 37.1668 190.365 37.0674 190.281C36.9163 190.839 36.3983 189.861 36.1189 190.274C35.9192 190.108 35.9958 189.731 35.828 189.626C35.5149 190.079 35.3299 189.312 34.9876 189.702C35.1798 190.069 35.1821 189.97 34.9726 190.405L35.584 190L35.2677 190.652C35.4701 190.618 35.6444 190.322 35.7782 190.365C35.637 190.724 35.6387 190.623 35.7992 190.927C35.4078 190.397 35.3192 191.376 34.9241 191.043L34.7462 190.074C34.1913 189.735 34.001 190.732 33.3462 190.595L33.5715 190.73C33.5567 191.131 33.2041 190.848 33.033 191.038C32.9979 190.709 32.8552 190.613 32.7403 190.424C32.7881 190.663 32.3003 190.468 32.3397 191.127C32.2283 190.998 32.1187 190.865 32.0102 190.735C31.7574 190.679 31.6503 190.931 31.5421 191.186C31.4344 191.441 31.3239 191.708 31.0799 191.676C31.1861 191.307 30.9519 191.097 31.2352 190.809C31.0804 190.824 30.9377 190.776 30.9568 191.002C30.8509 190.803 30.5644 191.485 30.3976 191.18C30.3427 191.328 30.3434 191.673 30.1642 191.656C30.1411 191.591 30.1557 191.494 30.1557 191.494C30.1653 191.656 29.8894 191.732 30.0636 192.086C29.9261 191.84 29.778 191.715 29.6214 191.666C29.465 191.616 29.3004 191.634 29.1366 191.648C28.8103 191.687 28.481 191.722 28.3039 191.272C27.9679 191.361 27.5546 191.43 27.251 191.408C27.2836 191.313 27.2742 191.246 27.3259 191.287C26.9633 190.932 26.9288 192.188 26.4976 191.765C26.3556 191.2 26.8025 191.528 26.6883 191.303C26.7532 190.762 26.6125 190.782 26.43 190.835C26.2496 190.887 26.0117 190.991 25.9438 190.646C25.9728 190.631 26.0008 190.619 26.0301 190.603C25.9647 190.395 25.8098 190.456 25.6169 190.547C25.4236 190.642 25.2011 190.743 25.0306 190.646C25.0306 190.646 25.0799 190.562 25.0872 190.493C24.8714 190.716 24.6286 190.814 24.3822 190.858C24.1327 190.908 23.8958 190.878 23.6836 190.864C23.9807 190.537 23.9379 190.737 24.0623 190.32C23.9752 190.312 23.9092 190.472 23.8216 190.63C23.7344 190.786 23.6217 190.946 23.4354 190.917C23.4408 190.654 23.3241 190.356 23.5313 189.946L23.8067 190.072C23.8799 189.772 23.799 189.732 23.6819 189.743C23.6237 189.749 23.5568 189.768 23.4989 189.774C23.443 189.778 23.3964 189.77 23.3776 189.727L23.5317 189.518C23.3291 189.432 23.1271 189.53 22.9327 189.595C22.7405 189.658 22.5427 189.702 22.3546 189.526L22.2716 189.712C21.9548 189.871 21.9651 189.753 21.9937 189.631C22.021 189.505 22.0689 189.37 21.7965 189.451C21.9255 189.272 22.0539 189.096 22.1888 188.918C22.0741 188.913 21.8552 188.914 21.6156 188.89C21.4932 188.88 21.3783 188.854 21.2679 188.823C21.158 188.792 21.056 188.752 20.9761 188.705C21.2322 188.631 21.4668 188.624 21.6778 188.63C21.8909 188.634 22.097 188.642 22.2728 188.62C22.2182 188.558 22.1098 188.468 21.9813 188.407C21.8598 188.342 21.7091 188.309 21.5529 188.376C21.6479 188.39 21.8255 188.352 21.7907 188.469C21.53 188.556 21.2934 188.583 21.1023 188.54C20.9168 188.493 20.7568 188.392 20.6615 188.226C20.9378 188.067 21.0613 187.925 21.1058 187.796C21.1517 187.666 21.1089 187.553 21.0714 187.424C21.033 187.297 20.9702 187.171 20.9874 187.029C21.0012 186.888 21.0741 186.743 21.279 186.596C21.1163 186.513 21.0269 186.392 20.9699 186.26C20.9233 186.123 20.9164 185.973 20.9233 185.819C20.9416 185.667 20.9602 185.511 20.9794 185.351C21.0018 185.194 20.9939 185.041 20.9647 184.884C20.0031 185.233 20.917 184.697 19.9057 184.83C19.8623 184.746 19.8471 184.686 19.8508 184.645C19.8535 184.605 19.8733 184.583 19.9059 184.573C20.0038 184.481 20.1016 184.391 20.1992 184.306C20.2979 184.221 20.4055 184.14 20.5076 184.062C20.807 183.959 20.7289 184.214 20.9577 184.199C21.0014 184.038 21.1095 184.01 21.242 183.996C21.3755 183.982 21.5279 183.98 21.6693 183.895C21.3009 183.916 21.1596 183.756 21.3117 183.597C21.1496 183.659 20.986 183.729 20.8213 183.806C20.5725 183.554 20.7907 183.465 21.0224 183.404C21.1363 183.372 21.2497 183.342 21.3051 183.29C21.333 183.264 21.3455 183.232 21.338 183.19C21.3334 183.149 21.3075 183.098 21.2539 183.032C21.3482 183.099 21.4429 183.163 21.5378 183.225C21.5036 183.165 21.4981 183.088 21.4962 183C21.4959 182.955 21.4938 182.907 21.4946 182.859C21.4971 182.811 21.4976 182.761 21.4933 182.709C21.4672 182.503 21.403 182.255 21.0631 181.987C21.1908 181.989 21.4703 182.046 21.4964 182.17C21.6648 181.935 21.5939 181.551 21.6139 181.168C21.6144 180.979 21.6448 180.792 21.7042 180.643C21.771 180.492 21.8784 180.377 22.0551 180.33L22.2397 180.505C22.2452 180.359 21.9634 180.065 22.2624 180.06C22.3447 180.123 22.4445 180.238 22.4888 180.195C22.4521 180.092 22.313 179.661 22.5332 179.589L22.685 179.87C23.0139 179.663 23.026 179.333 22.9777 178.978C22.9294 178.622 22.8201 178.248 22.9138 177.93C23.5367 178.319 24.0678 177.907 24.3309 177.661L24.4165 177.72C24.5331 177.571 24.6981 177.155 24.7876 176.843C24.8135 176.763 24.8292 176.679 24.8426 176.596C24.8565 176.514 24.8683 176.432 24.8782 176.352C24.896 176.191 24.9149 176.037 24.9133 175.885C24.8971 175.273 24.7311 174.749 24.5321 174.206C24.575 174.152 24.6133 174.093 24.6432 174.031C24.6569 174 24.6759 173.967 24.6813 173.935C24.6927 173.902 24.7028 173.869 24.7116 173.834C24.7281 173.765 24.7438 173.692 24.7469 173.618C24.7494 173.544 24.7469 173.468 24.7401 173.389C24.7018 173.079 24.5638 172.749 24.3564 172.446C24.1488 172.143 23.8808 171.862 23.5992 171.606C23.3174 171.349 23.0253 171.114 22.7691 170.86C22.829 170.967 22.7379 171.081 22.6076 171.166C22.4774 171.25 22.3058 171.317 22.1883 171.303C22.0894 171.178 21.8402 171.214 21.6704 171.221C21.5007 171.225 21.3955 171.189 21.5289 170.878L21.6268 170.924C21.6292 170.838 21.6186 170.761 21.5993 170.693C21.5817 170.626 21.5543 170.568 21.519 170.517C21.4758 170.464 21.462 170.429 21.4295 170.395C21.3999 170.363 21.3661 170.337 21.3295 170.315C21.1826 170.225 20.9918 170.209 20.8384 170.159L20.5495 170.992C20.4385 170.629 20.2377 170.438 20.0055 170.347C19.8892 170.301 19.7641 170.277 19.6369 170.267C19.5105 170.258 19.3816 170.263 19.2557 170.268C19.0031 170.279 18.7659 170.303 18.578 170.247C18.3895 170.189 18.2521 170.055 18.2011 169.753C17.9702 169.932 17.7369 169.883 17.5131 170.066L17.6102 169.604C17.1157 169.389 16.8681 169.285 16.2276 169.283L16.4145 168.974C16.0701 168.88 15.7283 170.232 15.4014 170.199L15.4355 169.489C15.1349 169.437 14.8633 169.231 14.5871 169.098C14.4491 169.031 14.3064 168.985 14.1562 168.985C14.0071 168.984 13.8478 169.031 13.6693 169.154C13.7022 169.056 13.7655 168.862 13.8639 168.855C13.5908 168.779 12.9757 168.143 12.8161 169.098C12.8949 168.793 12.7589 168.739 12.5534 168.784C12.3495 168.828 12.0772 168.961 11.8838 169.047L12.0727 168.62C11.6427 169.106 11.581 169.252 11.1713 169.284C11.109 169.195 11.2276 168.908 11.2955 169.06C11.1091 168.729 10.9254 169.392 10.6798 169.03L10.9129 168.803C10.6484 168.659 10.6134 168.813 10.3222 169.068C10.0674 169.166 9.83476 168.72 9.97623 168.326C9.8319 168.542 9.53244 168.775 9.42252 168.587C9.47171 168.434 9.57422 168.374 9.62449 168.346C9.46808 168.096 9.24659 168.126 9.04036 168.151C8.83497 168.178 8.6553 168.185 8.61659 167.902C8.68726 167.766 8.70635 167.688 8.705 167.634C9.04136 167.842 9.31281 168.011 9.27081 168.027C9.46779 167.647 9.234 167.439 9.72818 167.031C9.5453 167.119 9.27769 167.263 9.03016 167.34C8.78155 167.421 8.55706 167.429 8.47824 167.263C8.48722 167.22 8.49618 167.178 8.52138 167.116L8.57349 167.091C8.53609 167.018 8.46133 167.02 8.3726 167.049C8.32861 166.937 8.30562 166.86 8.2314 166.803C8.31309 166.645 8.26586 166.558 8.18307 166.497C8.10199 166.435 7.98528 166.397 7.92723 166.347C7.67028 166.739 7.54208 166.558 7.48 166.986C7.47821 166.944 7.53687 166.957 7.63509 167.002C7.66264 167.004 7.68977 167.014 7.7183 167.001C7.70915 167.009 7.69804 167.018 7.68617 167.028C7.77872 167.079 7.90039 167.142 8.03397 167.221C7.80044 167.352 7.57096 167.447 7.57222 167.128C7.33419 167.329 7.07946 167.529 6.95141 167.617C7.04396 167.286 7.06072 166.984 7.07923 166.723C7.09741 166.463 7.11808 166.243 7.21977 166.065C7.08701 166.044 6.95833 165.998 6.82772 165.949C6.698 165.899 6.56972 165.842 6.43028 165.805C6.15208 165.729 5.8456 165.713 5.42817 165.932C5.24701 165.916 5.48144 165.634 5.53906 165.498C5.65819 165.489 5.7181 165.565 5.83521 165.502C5.65894 165.489 5.49319 165.364 5.31447 165.289C5.1384 165.212 4.94442 165.185 4.69936 165.375C4.67143 165.15 4.81199 165.089 4.90171 165.047C4.99377 165.005 5.03568 164.984 4.83791 164.847L5.01841 164.765C5.04076 164.43 4.9392 164.277 4.76717 164.193C4.59591 164.111 4.35244 164.096 4.11241 164.053C3.87391 164.012 3.63745 163.938 3.52067 163.783C3.40491 163.634 3.41299 163.395 3.69802 163.166C3.63007 163.227 3.59734 163.262 3.50008 163.293C3.59209 163.045 3.62472 162.837 3.63734 162.595C3.65299 162.356 3.65839 162.087 3.70106 161.804C3.74524 161.521 3.82764 161.229 3.98315 160.968C4.13921 160.706 4.37206 160.469 4.70417 160.314C5.02254 160.105 4.69584 159.884 4.5462 159.55L5.01722 159.742C4.9095 159.542 4.80858 159.34 4.70729 159.134C4.6651 158.801 5.05044 158.777 5.39856 158.731C5.74888 158.683 6.06054 158.616 5.93054 158.12L5.61049 157.982C5.70525 157.908 5.78103 157.733 5.8666 157.607C5.9551 157.484 6.05344 157.413 6.19159 157.552C6.15889 157.495 5.96727 157.267 6.16285 157.311L6.36914 157.475C6.37514 157.235 6.38661 156.992 6.40471 156.748C6.62594 156.644 6.80703 156.838 6.99118 156.996C7.17663 157.157 7.3625 157.284 7.59333 157.082C7.63582 156.965 7.61326 156.714 7.56405 156.483C7.51329 156.251 7.43196 156.036 7.33838 156.005C7.26011 156.063 7.04567 156.062 6.85385 155.88L6.92056 155.623C6.66573 155.329 6.43411 155.007 6.16691 154.759C5.89988 154.512 5.594 154.343 5.17713 154.373C5.18693 154.59 5.19871 154.804 5.21442 155.016L4.84534 154.859C4.92266 154.764 5.00226 154.67 5.08284 154.577C4.68072 154.48 4.81479 154.798 4.87313 155.05C4.70269 154.94 4.5563 154.89 4.44258 154.906C4.52939 155.18 4.61853 155.449 4.71426 155.717C4.44989 155.558 4.38502 155.174 4.06883 155.286C4.20074 155.662 4.70833 155.586 4.66957 155.98C4.26792 155.907 4.08342 155.682 4.16314 156.06C3.98622 155.961 3.91955 155.841 3.91368 155.709C3.95891 156.028 3.63016 156.227 3.88994 156.566C3.6525 156.519 3.56506 156.684 3.46713 156.801C3.37108 156.921 3.26166 156.995 2.96723 156.775C3.0679 156.933 3.22221 157.42 3.13954 157.598C2.8735 157.205 2.75869 157.351 2.62067 157.529C2.48051 157.703 2.3251 157.91 1.94689 157.622C2.20972 157.947 2.16106 158.203 2.06359 158.462C1.96765 158.72 1.82603 158.986 1.91198 159.298C1.86766 159.246 1.77955 159.141 1.835 159.122C1.65217 159.332 1.40598 159.298 1.19143 159.392C1.76244 159.71 1.71207 160.166 1.99708 160.537C1.64173 160.575 1.48117 160.461 1.33955 160.308C1.19686 160.156 1.07458 159.974 0.772705 159.909C1.01946 160.003 1.07808 160.204 1.13647 160.386C1.19476 160.57 1.25292 160.733 1.48148 160.749C1.25006 160.813 1.18585 160.862 1.10819 160.882C1.03055 160.904 0.941118 160.902 0.659203 160.899C1.041 161.048 1.0539 161.122 1.02245 161.212C0.993695 161.303 0.915381 161.411 1.13241 161.594C0.886433 161.764 0.695155 161.768 0.57987 161.783C0.467273 161.801 0.423369 161.837 0.511248 162.133C0.370155 162.249 0.242802 162.18 0.152391 162.071C0.107186 162.017 0.0713459 161.953 0.046996 161.904C0.0223634 161.853 0.0107891 161.819 0.0107891 161.819ZM7.05319 169.767C7.05086 169.771 7.04922 169.774 7.04836 169.775C6.9744 169.743 6.91135 169.715 6.87111 169.698C6.90858 169.713 6.96068 169.734 7.05319 169.767ZM7.72913 170.152C7.65567 170.089 7.5549 170.028 7.44499 169.969C7.50239 169.815 7.61111 169.686 7.67349 169.731C7.58349 169.804 7.69415 169.975 7.72913 170.152ZM8.13473 166.6C8.25725 166.6 8.23491 166.696 8.19414 166.784C8.14888 166.764 8.09237 166.746 8.01167 166.732C7.99941 166.745 7.98314 166.758 7.96957 166.773C8.02768 166.704 8.08384 166.641 8.13473 166.6Z" fill="#535353"/>
<path d="M7.63508 167.002C7.61673 167.001 7.59848 167.013 7.57969 167.005C7.57422 167.051 7.57112 167.092 7.57221 167.128C7.61133 167.094 7.65124 167.059 7.68616 167.028C7.66873 167.02 7.6517 167.009 7.63508 167.002Z" fill="#535353"/>
<path d="M47.9055 197.335L47.892 197.323C47.9021 197.342 47.9111 197.362 47.9152 197.392C47.9079 197.369 47.9096 197.354 47.9055 197.335Z" fill="#535353"/>
<path d="M17.514 173.922L17.5362 173.806L17.4558 173.896L17.514 173.922Z" fill="#535353"/>
<path d="M51.7989 199.136C51.8053 199.178 51.8191 199.221 51.8479 199.257C51.8465 199.227 51.8251 199.183 51.7989 199.136Z" fill="#535353"/>
<path d="M53.5257 199.292L53.7655 199.466C53.6624 199.368 53.5866 199.321 53.5257 199.292Z" fill="#535353"/>
<path d="M54.849 199.563C54.8682 199.482 54.8748 199.42 54.8809 199.363C54.8799 199.362 54.8791 199.362 54.8784 199.36L54.849 199.563Z" fill="#535353"/>
<path d="M37.837 193.123C37.8203 193.129 37.8044 193.138 37.7916 193.153C37.6931 193.264 37.7648 193.214 37.837 193.123Z" fill="#535353"/>
<path d="M41.1593 194.101C41.0555 194.064 40.9529 194.026 40.8775 193.972C40.8846 194.098 40.9082 194.191 41.1593 194.101Z" fill="#535353"/>
<path d="M30.7436 194.849C30.7442 194.846 30.7433 194.845 30.7438 194.841C30.7272 194.844 30.7124 194.843 30.6957 194.844L30.7436 194.849Z" fill="#535353"/>
<path d="M40.7853 193.674C40.7344 193.816 40.7856 193.906 40.8775 193.972C40.8749 193.869 40.8841 193.745 40.7853 193.674Z" fill="#535353"/>
<path d="M60.6075 199.945L60.6709 199.966C60.6708 199.935 60.6753 199.91 60.6808 199.891L60.6075 199.945Z" fill="#535353"/>
<path d="M60.6808 199.891L60.7536 199.838C60.7209 199.837 60.6924 199.84 60.6808 199.891Z" fill="#535353"/>
<path d="M60.9068 199.724L60.7536 199.838C60.8054 199.841 60.8689 199.857 60.9068 199.724Z" fill="#535353"/>
<path d="M58.8531 199.677L58.8279 199.846C58.8399 199.811 58.8487 199.756 58.8531 199.677Z" fill="#535353"/>
<path d="M58.3165 199.71C58.443 199.753 58.6261 200.082 58.8073 199.981L58.8279 199.846C58.7368 200.096 58.4462 199.428 58.3165 199.71Z" fill="#535353"/>
<path d="M56.1449 197.546L56.5893 197.695C56.5162 197.512 56.4203 197.266 56.6255 197.228C56.0762 196.672 56.7302 197.636 56.1449 197.546Z" fill="#535353"/>
<path d="M54.7624 197.243C55.0057 197.166 54.7673 196.98 54.783 196.878C54.6254 197.039 54.5872 197.079 54.7624 197.243Z" fill="#535353"/>
<path d="M45.248 196.284L45.4438 195.905C45.2899 195.897 45.3721 196.054 45.248 196.284Z" fill="#535353"/>
<path d="M42.4219 196.979C42.4117 197.094 42.4008 197.215 42.4005 197.328C42.5165 197.257 42.631 197.184 42.7438 197.109L42.5799 197.05C42.5266 197.028 42.475 197.003 42.4219 196.979Z" fill="#535353"/>
<path d="M44.1198 194.275L44.2007 194.285C44.1191 194.261 44.0415 194.223 43.9586 194.189L44.1198 194.275Z" fill="#535353"/>
<path d="M28.682 190.782L28.7143 191.309C28.8338 191.219 28.8706 190.632 28.682 190.782Z" fill="#535353"/>
<path d="M22.586 189.333C22.6952 189.087 22.691 188.85 22.4402 188.975C22.5169 189.089 22.4855 189.342 22.586 189.333Z" fill="#535353"/>
<path d="M20.3427 170.248L20.5431 170.12C20.4324 170.14 20.3227 170.161 20.2142 170.185L20.3427 170.248Z" fill="#535353"/>
<path d="M61.1575 187.898L61.8851 194.101L63.0504 193.844L64.4188 194.275L65.5206 195.102L69.6261 190.23L68.356 190.195L66.6397 189.639L65.9935 189.898L65.1463 189.954L64.2628 189.35L63.6978 188.829L62.7322 188.747L61.6628 188.238L61.1575 187.898Z" fill="#999999"/>
<path d="M61.9341 194.452L62.6447 198.404L64.0107 196.977L65.5206 195.102L64.5474 194.322L63.5259 193.994L62.0946 193.87L61.9341 194.452Z" fill="#3A3A3A"/>
<path d="M60.8428 187.376L61.6628 188.238L63.0806 188.845L63.6978 188.829L64.6798 189.785L65.6214 190.095L66.6397 189.639L67.3708 190.206L68.817 190.208L69.7018 190.013L118.501 13.0518L116.48 12.8141L113.169 12.0005L109.692 10.7048L60.8428 187.376Z" fill="#F7F7F7"/>
<path d="M110.74 6.43445L113.001 7.43984L116.89 8.55353L119.627 8.96927L118.501 13.0518L115.039 12.46L112.645 11.8562L109.692 10.7048L110.74 6.43445Z" fill="#727272"/>
<path d="M112.512 0.479868L110.859 6.46736L112.741 7.36838L115.912 8.24163L118.645 8.86797L119.627 8.96934L121.308 2.78316L118.37 2.03801L112.914 0.395386L112.512 0.479868Z" fill="#353535"/>
<path d="M60.9623 187.731C60.934 187.731 60.9052 187.727 60.8766 187.719C60.7053 187.672 60.6047 187.495 60.6519 187.324L109.379 10.6263C109.426 10.4551 109.603 10.3547 109.774 10.4017C109.946 10.4489 110.046 10.626 109.999 10.7972L61.2722 187.495C61.2329 187.637 61.1034 187.731 60.9623 187.731Z" fill="black"/>
<path d="M69.7511 190.157C69.7227 190.157 69.694 190.153 69.6654 190.145C69.4941 190.098 69.3935 189.921 69.4407 189.75L121.032 2.66377C121.08 2.49257 121.257 2.39218 121.428 2.43918C121.599 2.48641 121.7 2.66344 121.653 2.83458L70.061 189.921C70.0217 190.063 69.8922 190.157 69.7511 190.157Z" fill="black"/>
<path d="M118.371 13.4341C118.358 13.4342 118.346 13.4334 118.333 13.432C117.001 13.277 115.472 12.9683 113.914 12.5391C112.309 12.0971 110.803 11.564 109.559 10.9975L109.309 10.8838L110.811 5.43831C110.858 5.26711 111.035 5.16672 111.206 5.21372C111.378 5.26095 111.478 5.43797 111.431 5.60911L110.076 10.5241C111.239 11.0352 112.619 11.5154 114.085 11.9191C115.612 12.3398 117.107 12.642 118.408 12.7932C118.584 12.8137 118.71 12.9733 118.69 13.1497C118.671 13.3135 118.532 13.4341 118.371 13.4341Z" fill="black"/>
<path d="M61.7878 184.737C61.7595 184.737 61.7307 184.733 61.7022 184.726C61.5309 184.678 61.4302 184.501 61.4775 184.33L112.244 0.236231C112.291 0.0649744 112.469 -0.0356406 112.639 0.0116978C112.811 0.0588104 112.911 0.235891 112.864 0.407034L62.0978 184.501C62.0585 184.644 61.929 184.737 61.7878 184.737Z" fill="black"/>
<path d="M119.517 9.27804C119.504 9.27804 119.492 9.27736 119.479 9.27589C118.146 9.12092 116.618 8.81217 115.06 8.38302C113.455 7.94108 111.949 7.40797 110.705 6.84137C110.543 6.76774 110.472 6.57708 110.545 6.4155C110.619 6.25385 110.81 6.18254 110.971 6.25623C112.185 6.80897 113.658 7.33003 115.231 7.76303C116.758 8.18365 118.253 8.48589 119.554 8.63713C119.73 8.65766 119.857 8.81726 119.836 8.99367C119.817 9.1574 119.678 9.27804 119.517 9.27804Z" fill="black"/>
<path d="M121.334 3.05643C121.309 3.05643 121.283 3.05338 121.257 3.04699C119.982 2.7323 118.491 2.34093 116.945 1.91527C115.354 1.4769 113.836 1.03881 112.558 0.648275C112.388 0.596356 112.292 0.416616 112.344 0.246774C112.396 0.0770453 112.576 -0.0185942 112.746 0.0332696C114.019 0.422102 115.53 0.858499 117.116 1.29529C118.657 1.71953 120.142 2.10938 121.411 2.42271C121.583 2.4653 121.689 2.63955 121.646 2.81194C121.61 2.95848 121.479 3.05643 121.334 3.05643Z" fill="black"/>
<path d="M110.44 11.1437C110.432 11.1437 110.423 11.1426 110.414 11.1402C110.362 11.1258 110.331 11.0718 110.346 11.0197L111.49 6.87127C111.504 6.81907 111.558 6.78819 111.61 6.80284C111.663 6.8172 111.693 6.87116 111.679 6.9233L110.535 11.0717C110.523 11.1152 110.483 11.1437 110.44 11.1437Z" fill="black"/>
<path d="M111.129 11.4859C111.12 11.4859 111.112 11.4847 111.103 11.4823C111.051 11.4679 111.02 11.414 111.035 11.3618L112.178 7.2134C112.193 7.16119 112.247 7.13043 112.299 7.14496C112.351 7.15933 112.382 7.21328 112.368 7.26543L111.224 11.4139C111.212 11.4574 111.172 11.4859 111.129 11.4859Z" fill="black"/>
<path d="M111.857 11.6863C111.848 11.6863 111.839 11.6851 111.831 11.6827C111.779 11.6683 111.748 11.6144 111.762 11.5622L112.906 7.41385C112.921 7.36165 112.975 7.33083 113.027 7.34542C113.079 7.35978 113.11 7.41374 113.095 7.46589L111.951 11.6143C111.939 11.6578 111.9 11.6863 111.857 11.6863Z" fill="black"/>
<path d="M112.585 11.8867C112.576 11.8867 112.567 11.8856 112.559 11.8832C112.506 11.8688 112.476 11.8148 112.49 11.7627L113.634 7.61431C113.648 7.56211 113.702 7.53123 113.755 7.54588C113.807 7.56024 113.837 7.6142 113.823 7.66635L112.679 11.8147C112.667 11.8582 112.628 11.8867 112.585 11.8867Z" fill="black"/>
<path d="M113.312 12.0871C113.304 12.0871 113.295 12.086 113.286 12.0836C113.234 12.0692 113.204 12.0152 113.218 11.9631L114.362 7.81471C114.376 7.76251 114.43 7.73174 114.482 7.74628C114.535 7.76064 114.565 7.8146 114.551 7.86675L113.407 12.0151C113.395 12.0586 113.355 12.0871 113.312 12.0871Z" fill="black"/>
<path d="M114.04 12.2876C114.032 12.2876 114.023 12.2865 114.014 12.2841C113.962 12.2697 113.931 12.2157 113.946 12.1636L115.09 8.01515C115.104 7.96295 115.158 7.93218 115.21 7.94672C115.262 7.96108 115.293 8.01504 115.279 8.06719L114.135 12.2156C114.123 12.2591 114.083 12.2876 114.04 12.2876Z" fill="black"/>
<path d="M114.768 12.4881C114.759 12.4881 114.751 12.4869 114.742 12.4845C114.69 12.4701 114.659 12.4162 114.673 12.364L115.817 8.21561C115.832 8.16341 115.886 8.13259 115.938 8.14718C115.99 8.16154 116.021 8.2155 116.006 8.26764L114.862 12.4161C114.85 12.4596 114.811 12.4881 114.768 12.4881Z" fill="black"/>
<path d="M115.496 12.6885C115.487 12.6885 115.478 12.6874 115.47 12.685C115.417 12.6706 115.387 12.6166 115.401 12.5645L116.545 8.41607C116.56 8.36387 116.613 8.33299 116.666 8.34764C116.718 8.362 116.749 8.41596 116.734 8.4681L115.59 12.6165C115.578 12.66 115.539 12.6885 115.496 12.6885Z" fill="black"/>
<path d="M116.224 12.8889C116.215 12.8889 116.206 12.8877 116.198 12.8853C116.145 12.8709 116.115 12.817 116.129 12.7648L117.273 8.61647C117.287 8.56427 117.341 8.5335 117.394 8.54804C117.446 8.5624 117.476 8.61636 117.462 8.6685L116.318 12.8169C116.306 12.8604 116.267 12.8889 116.224 12.8889Z" fill="black"/>
<path d="M116.951 13.0893C116.943 13.0893 116.934 13.0882 116.925 13.0858C116.873 13.0714 116.843 13.0175 116.857 12.9653L118.001 8.81693C118.015 8.76473 118.069 8.7339 118.121 8.7485C118.174 8.76286 118.204 8.81682 118.19 8.86896L117.046 13.0173C117.034 13.0608 116.994 13.0893 116.951 13.0893Z" fill="black"/>
<path d="M117.718 13.1481C117.71 13.1481 117.701 13.1469 117.692 13.1445C117.64 13.1301 117.609 13.0762 117.624 13.024L118.768 8.87567C118.782 8.82346 118.836 8.79258 118.888 8.80723C118.94 8.8216 118.971 8.87555 118.957 8.9277L117.813 13.0761C117.801 13.1196 117.761 13.1481 117.718 13.1481Z" fill="black"/>
<path d="M63.7147 189.124C63.6864 189.124 63.6576 189.12 63.629 189.113C63.4577 189.065 63.3571 188.888 63.4043 188.717L112.223 11.6846C112.271 11.5134 112.448 11.4131 112.619 11.4601C112.79 11.5072 112.891 11.6843 112.844 11.8555L64.0247 188.888C63.9853 189.031 63.8558 189.124 63.7147 189.124Z" fill="black"/>
<path d="M66.6448 189.931C66.6165 189.931 66.5877 189.927 66.5591 189.92C66.3878 189.872 66.2872 189.695 66.3344 189.524L115.139 12.5431C115.187 12.3719 115.364 12.2716 115.535 12.3186C115.706 12.3658 115.807 12.5428 115.76 12.714L66.9548 189.695C66.9155 189.838 66.786 189.931 66.6448 189.931Z" fill="black"/>
<path d="M63.4885 189.156C61.4662 189.156 60.701 187.633 60.6683 187.566C60.5906 187.406 60.6572 187.213 60.817 187.136C60.9764 187.058 61.1684 187.124 61.2465 187.283C61.2753 187.341 61.93 188.603 63.6802 188.508C63.8579 188.497 64.0093 188.634 64.019 188.811C64.0287 188.989 63.8927 189.14 63.7153 189.15C63.6381 189.154 63.5624 189.156 63.4885 189.156Z" fill="black"/>
<path d="M68.365 190.52C67.8138 190.52 67.1559 190.374 66.46 189.906C66.3126 189.807 66.2735 189.607 66.3727 189.46C66.4719 189.312 66.6719 189.273 66.8193 189.372C68.2786 190.354 69.509 189.603 69.5606 189.57C69.7106 189.476 69.9092 189.52 70.0041 189.67C70.099 189.819 70.056 190.017 69.9071 190.112C69.8666 190.138 69.2551 190.52 68.365 190.52Z" fill="black"/>
<path d="M65.4336 190.299C65.2058 190.299 64.985 190.263 64.772 190.192C63.8455 189.88 63.4325 188.997 63.4154 188.96C63.3415 188.798 63.4126 188.608 63.5742 188.534C63.7355 188.46 63.9258 188.531 64.0001 188.691C64.0066 188.705 64.325 189.366 64.9828 189.584C65.4214 189.73 65.9282 189.651 66.489 189.351C66.6456 189.267 66.8406 189.325 66.9246 189.482C67.0086 189.638 66.9497 189.833 66.7931 189.917C66.3186 190.172 65.8636 190.299 65.4336 190.299Z" fill="black"/>
<path d="M62.7227 198.737C62.6702 198.737 62.6173 198.73 62.5651 198.716C62.3376 198.653 62.1696 198.462 62.1369 198.228L60.6354 187.483C60.6109 187.307 60.7336 187.144 60.9096 187.12C61.0856 187.095 61.2482 187.218 61.2727 187.394L62.7575 198.02L69.4937 189.657C69.6052 189.519 69.8077 189.497 69.9461 189.609C70.0845 189.72 70.1064 189.922 69.995 190.061L63.1831 198.517C63.0691 198.659 62.8989 198.737 62.7227 198.737Z" fill="black"/>
<path d="M65.5206 195.424C65.4337 195.424 65.347 195.389 65.2835 195.32C63.8561 193.766 62.0693 194.377 61.9939 194.404C61.8267 194.463 61.6427 194.376 61.5828 194.21C61.5229 194.043 61.6087 193.86 61.7753 193.799C61.8667 193.766 64.0338 193.009 65.7576 194.885C65.8777 195.016 65.869 195.219 65.7381 195.339C65.6763 195.396 65.5984 195.424 65.5206 195.424Z" fill="black"/>
</svg>
