<svg width="109" height="220" viewBox="0 0 109 220" fill="none" xmlns="http://www.w3.org/2000/svg">
<path d="M46.7643 0.395386H74.5553H89.351L94.5589 0.511693L98.6014 1.55154L101.963 3.40854L104.554 5.74567L106.605 8.6333L107.927 11.7635L108.605 14.7253V19.2277L108.567 204.726L108.225 207.096L107.506 209.455L106.397 211.731L104.908 213.843L102.61 216.1L100.085 217.759L97.8658 218.724L95.2393 219.605H91.1887H18.0731H15.3353L11.7465 218.411L8.51332 216.619L5.86329 214.23L3.67115 211.066L2.40413 207.863L1.83426 205.27V202.268V14.594L2.77828 10.9571L4.40217 7.68798L6.84051 4.76157L9.34578 2.8227L11.6802 1.61609L14.3031 0.782969L17.1525 0.409077L24.6033 0.395386H46.7643Z" fill="#727272"/>
<path d="M81.3947 5.15543L86.053 5.10559L91.1995 5.18035L94.4397 5.51741L96.8583 6.38981L99.5594 8.16187L101.502 10.264L102.915 12.7536L103.742 15.6411L103.896 18.8359L103.881 203.018L103.691 204.657L103.12 206.731L101.546 209.675L99.3959 211.977L96.4977 213.972L93.3053 214.707L90.1218 214.845H87.0647L18.0797 214.808L15.1836 214.235L12.4325 212.947L10.0248 210.978L8.41835 208.888L7.09878 205.919L6.63135 203.384L6.59229 200.146V15.8545L7.22386 13.6821L8.57989 10.8554L11.171 7.95902L13.882 6.27173L15.7177 5.60401L17.9392 5.18035L22.2499 5.10559H29.1339L29.0375 7.52666L29.2368 9.31732L30.4325 11.2113L31.8276 12.4076L34.518 12.7066L37.4576 12.6568L47.2229 12.7066L59.7284 12.6069L71.2375 12.6568H76.5187L78.2127 12.4574L79.6077 11.6599L80.6042 10.6132L81.25 8.9177L81.501 6.82517L81.3947 5.15543Z" fill="#E8E8E8"/>
<path d="M35.6954 85.4773L75.4073 85.5306L78.377 86.3423L80.8874 88.0117L82.6419 90.1727L83.653 92.5567L83.9881 95.9228V116.382L83.3771 119.028L82.0843 121.392L80.0569 123.401L77.4741 124.746L75.0244 125.252H62.0536L55.2154 132.719L48.371 125.252H35.6954L32.3267 124.507L29.9565 123.077L27.8635 120.68L26.4427 117.84V114.538L26.5674 93.5269L27.5815 90.5382L29.5713 87.9856L32.0065 86.3643L35.6954 85.4773Z" fill="#D6D6D6"/>
<path d="M55.1129 99.5063L56.2913 98.1065L58.64 96.4148L60.7589 95.9227L63.4633 96.3944L65.6186 97.8485L66.8064 99.5063L67.4699 101.608V103.859L66.6594 106.265L65.1972 108.83L63.1786 111.142L55.2153 118.066L50.0007 113.702L46.7658 110.653L44.3829 107.956L43.2914 104.907L42.9618 102.277L43.4571 99.8671L45.1227 97.553L47.6558 96.1552L49.9091 95.939L52.3293 96.6757L54.1402 98.1077L55.1129 99.5063Z" fill="#696969"/>
<path d="M41.1445 6.67568L41.6428 5.82835L42.533 5.39769L48.4685 5.37976L60.2765 5.52929L61.5221 6.17725L61.6217 7.47316V8.20608L60.571 8.91773L57.8255 8.93107H42.1761L41.5431 8.27065L41.1445 7.57432V6.67568Z" fill="#333333"/>
<path d="M64.362 5.77843L65.3584 5.47937L66.6386 5.6289L67.3015 6.6756L67.3975 7.51935L67.0524 8.27057L66.1718 8.93099H65.0736L64.362 8.56307L63.7641 7.57277V6.7503L64.362 5.77843Z" fill="#333333"/>
<path d="M1.68475 50.7368L0.457744 50.8236L0.389343 67.0853L1.8135 67.0823L1.68475 50.7368Z" fill="#727272"/>
<path d="M0.478302 71.4836L1.81361 71.3717L1.85721 87.6732H0.478302V71.4836Z" fill="#727272"/>
<path d="M92.624 220H17.815C13.4408 220 9.32841 218.296 6.23538 215.202C3.14237 212.107 1.439 207.993 1.439 203.618V16.3825C1.439 12.0065 3.14237 7.89255 6.23538 4.7983C9.32841 1.70405 13.4408 0 17.815 0H92.624C96.9982 0 101.111 1.70405 104.204 4.7983C107.297 7.89255 109 12.0066 109 16.3825V203.618C109 207.993 107.297 212.107 104.204 215.202C101.111 218.296 96.9982 220 92.624 220ZM17.815 0.790866C9.22114 0.790866 2.22956 7.78527 2.22956 16.3825V203.618C2.22956 212.215 9.22114 219.209 17.815 219.209H92.624C101.218 219.209 108.209 212.215 108.209 203.618V16.3825C108.209 7.78527 101.218 0.790866 92.624 0.790866H17.815Z" fill="black"/>
<path d="M91.4485 215.24H19.0402C15.6097 215.24 12.3845 213.903 9.95871 211.477C7.53295 209.05 6.19705 205.823 6.19705 202.392V17.6082C6.19705 14.1763 7.53295 10.9498 9.95871 8.52312C12.3845 6.09639 15.6097 4.75993 19.0402 4.75993L29.0107 4.71008H29.0127C29.2301 4.71008 29.4068 4.8858 29.4079 5.10357C29.409 5.32192 29.2329 5.49988 29.0146 5.50095L19.0422 5.55079C12.3944 5.55079 6.98761 10.9598 6.98761 17.6082V202.392C6.98761 209.04 12.3944 214.449 19.0402 214.449H91.4485C98.0944 214.449 103.501 209.04 103.501 202.392V17.6082C103.501 10.9598 98.0944 5.55079 91.4485 5.55079H81.3948C81.1764 5.55079 80.9995 5.37377 80.9995 5.15536C80.9995 4.93696 81.1764 4.75993 81.3948 4.75993H91.4485C94.8791 4.75993 98.1043 6.09639 100.53 8.52312C102.956 10.9498 104.292 14.1763 104.292 17.6082V202.392C104.292 205.823 102.956 209.05 100.53 211.477C98.1043 213.903 94.8791 215.24 91.4485 215.24Z" fill="black"/>
<path d="M2.22373 67.4747H0.73011C0.327525 67.4747 0 67.1471 0 66.7443V51.0276C0 50.6249 0.327525 50.2972 0.73011 50.2972H2.22373V67.4747ZM0.778872 66.6956H1.44486V51.0764H0.778872V66.6956Z" fill="black"/>
<path d="M2.22373 88.1597H0.73011C0.327525 88.1597 0 87.832 0 87.4293V71.7126C0 71.3099 0.327525 70.9822 0.73011 70.9822H2.22373V88.1597ZM0.778872 87.3805H1.44486V71.7614H0.778872V87.3805Z" fill="black"/>
<path d="M59.922 9.2689H42.854C41.6909 9.2689 40.7448 8.32233 40.7448 7.15881C40.7448 5.99528 41.6909 5.04871 42.854 5.04871H59.922C61.0851 5.04871 62.0313 5.99528 62.0313 7.15881C62.0313 8.32233 61.0851 9.2689 59.922 9.2689ZM42.854 5.74884C42.0768 5.74884 41.4446 6.38137 41.4446 7.15881C41.4446 7.93624 42.0768 8.56877 42.854 8.56877H59.922C60.6992 8.56877 61.3314 7.93624 61.3314 7.15881C61.3314 6.38137 60.6992 5.74884 59.922 5.74884H42.854Z" fill="black"/>
<path d="M65.6382 9.26775C64.4751 9.26775 63.5289 8.32117 63.5289 7.15765C63.5289 5.99413 64.4751 5.04761 65.6382 5.04761C66.8012 5.04761 67.7474 5.99418 67.7474 7.15765C67.7474 8.32113 66.8012 9.26775 65.6382 9.26775ZM65.6382 5.74774C64.861 5.74774 64.2288 6.38022 64.2288 7.15765C64.2288 7.93509 64.861 8.56762 65.6382 8.56762C66.4153 8.56762 67.0475 7.93509 67.0475 7.15765C67.0475 6.38022 66.4153 5.74774 65.6382 5.74774Z" fill="black"/>
<path d="M76.5066 13.0771H33.9323C31.0291 13.0771 28.6671 10.7143 28.6671 7.8099L28.6422 5.18409C28.6402 4.96569 28.8155 4.78701 29.0338 4.78491H29.0376C29.2542 4.78491 29.4307 4.95945 29.4328 5.17659L29.4577 7.80615C29.4577 10.2782 31.465 12.2863 33.9323 12.2863H76.5066C78.9739 12.2863 80.9811 10.2782 80.9811 7.8099L80.9563 5.18409C80.9542 4.96569 81.1295 4.78701 81.3478 4.78491H81.3516C81.5682 4.78491 81.7447 4.95945 81.7468 5.17659L81.7717 7.80615C81.7717 10.7143 79.4098 13.0771 76.5066 13.0771Z" fill="black"/>
<path d="M74.3914 125.647H62.0723C61.8539 125.647 61.677 125.47 61.677 125.252C61.677 125.033 61.8539 124.856 62.0723 124.856H74.3914C79.4651 124.856 83.5928 120.727 83.5928 115.651V95.0777C83.5928 90.002 79.4651 85.8727 74.3914 85.8727H36.0393C30.9657 85.8727 26.8379 90.002 26.8379 95.0777V115.651C26.8379 120.727 30.9657 124.856 36.0393 124.856H48.371C48.5893 124.856 48.7662 125.033 48.7662 125.252C48.7662 125.47 48.5893 125.647 48.371 125.647H36.0393C30.5297 125.647 26.0474 121.163 26.0474 115.651V95.0777C26.0474 89.566 30.5297 85.0818 36.0393 85.0818H74.3914C79.901 85.0818 84.3834 89.566 84.3834 95.0777V115.651C84.3834 121.163 79.901 125.647 74.3914 125.647Z" fill="black"/>
<path d="M55.2154 133.305L48.0857 125.519C47.9383 125.358 47.9492 125.108 48.1102 124.96C48.2712 124.813 48.5212 124.824 48.6687 124.985L55.2154 132.134L61.7621 124.985C61.9096 124.824 62.1596 124.813 62.3206 124.96C62.4816 125.108 62.4925 125.358 62.3451 125.519L55.2154 133.305Z" fill="black"/>
<path d="M55.2154 118.576L54.966 118.373C51.3289 115.416 48.9549 113.409 46.8291 111.278C44.446 108.939 43.4154 106.693 42.9711 105.222C42.5138 103.707 42.5611 102.679 42.5724 102.516C42.5694 102.443 42.5666 102.361 42.5666 102.277C42.5666 100.537 43.2938 98.8104 44.5616 97.539C45.8602 96.237 47.5711 95.5199 49.3793 95.5199C50.6919 95.5199 51.9821 95.9239 53.1104 96.6881C53.9658 97.2676 54.6834 98.0183 55.2154 98.8847C55.7473 98.0183 56.4649 97.2676 57.3204 96.6881C58.4486 95.9239 59.7388 95.5199 61.0515 95.5199C62.8597 95.5199 64.5706 96.237 65.8691 97.539C67.137 98.8104 67.8642 100.537 67.8642 102.277C67.8642 102.361 67.8614 102.443 67.8584 102.516C67.8697 102.679 67.9169 103.707 67.4597 105.222C67.0153 106.693 65.9848 108.939 63.5987 111.281C61.4757 113.409 59.1018 115.416 55.4647 118.373L55.2154 118.576ZM43.3598 102.926C43.375 103.339 43.4488 104.084 43.7415 105.038C44.1628 106.41 45.137 108.51 47.3857 110.717C49.4413 112.777 51.7393 114.727 55.2154 117.557C58.6914 114.727 60.9893 112.777 63.0421 110.72C65.2938 108.51 66.268 106.41 66.6892 105.038C66.9819 104.084 67.0557 103.339 67.0709 102.926H67.0498L67.0673 102.514C67.0703 102.441 67.0736 102.358 67.0736 102.277C67.0736 99.0431 64.3158 96.3108 61.0515 96.3108C58.7921 96.3108 56.5903 97.7454 55.5728 99.8806L55.4655 100.106H54.9666L54.8579 99.8806C53.8404 97.7453 51.6387 96.3108 49.3793 96.3108C46.115 96.3108 43.3572 99.0431 43.3572 102.277C43.3572 102.358 43.3604 102.441 43.3635 102.514L43.3809 102.926H43.3598Z" fill="black"/>
</svg>
