<svg width="147" height="165" viewBox="0 0 147 165" fill="none" xmlns="http://www.w3.org/2000/svg">
<path d="M2.1638 75.2714L1.79507 75.7742V164.459L2.29802 164.657H145.995L146.498 164.154V75.4844L146.436 75.0293V62.3907H30.8173L30.7613 70.3651L30.3285 71.3705L29.2699 71.8897H4.95746L3.87577 71.4656L3.36517 70.2978V62.3776H2.11704L1.79507 63.1322V74.9638L2.1638 75.2714Z" fill="#232323"/>
<path d="M0.343739 50.3266C0.343739 50.3266 0.308607 50.9129 0.343739 50.9087C0.378871 50.9046 3.27862 58.3035 3.27862 58.3035L3.36519 56.4862L3.3219 53.5872L3.71143 52.2892L4.57702 51.6834L6.91414 51.5536H16.857L23.5769 55.491L37.3832 50.4719L139.87 12.5257L140.246 11.972L136 0.343262L135.282 0.41056L131.041 1.92495L2.41303 49.5633L0.343739 50.3266Z" fill="#232323"/>
<path d="M3.32187 60.0774L3.36515 70.2978L3.87575 71.4655L5.2241 71.9364L9.82734 71.9087L20.1708 71.8533H28.3235L29.9041 71.8896L30.7614 70.9107L30.5545 60.0774L27.2124 57.5679L17.5022 51.9316L16.1499 51.6156L11.9071 51.5325L6.9141 51.5536L4.57699 51.6834L3.71139 52.2891L3.32187 53.5872V60.0774Z" fill="#3F3F3F"/>
<path d="M9.31611 58.0438C9.94953 58.0438 10.463 57.5305 10.463 56.8972C10.463 56.264 9.94953 55.7506 9.31611 55.7506C8.68268 55.7506 8.16919 56.264 8.16919 56.8972C8.16919 57.5305 8.68268 58.0438 9.31611 58.0438Z" fill="#A5A5A5"/>
<path d="M9.35944 67.7358C9.99287 67.7358 10.5064 67.2225 10.5064 66.5892C10.5064 65.956 9.99287 65.4426 9.35944 65.4426C8.72602 65.4426 8.21252 65.956 8.21252 66.5892C8.21252 67.2225 8.72602 67.7358 9.35944 67.7358Z" fill="#A5A5A5"/>
<path d="M25.4595 67.8223C26.0929 67.8223 26.6064 67.3089 26.6064 66.6757C26.6064 66.0424 26.0929 65.5291 25.4595 65.5291C24.8261 65.5291 24.3126 66.0424 24.3126 66.6757C24.3126 67.3089 24.8261 67.8223 25.4595 67.8223Z" fill="#A5A5A5"/>
<path d="M38.2593 75.2712L50.3103 62.3905H66.8586L54.8036 75.3026L38.2593 75.2712Z" fill="white"/>
<path d="M65.1339 39.9976L49.3095 32.2009L33.8273 38.0428L49.6664 45.8674L65.1339 39.9976Z" fill="white"/>
<path d="M85.086 32.642L69.2616 24.8453L53.7794 30.6872L69.6186 38.5118L85.086 32.642Z" fill="white"/>
<path d="M104.648 25.4162L88.8241 17.6195L73.3419 23.4614L89.1811 31.286L104.648 25.4162Z" fill="white"/>
<path d="M124.254 18.1903L108.43 10.3937L92.9476 16.2356L108.787 24.0602L124.254 18.1903Z" fill="white"/>
<path d="M59.3365 75.2712L71.3876 62.3905H87.9358L75.8808 75.3026L59.3365 75.2712Z" fill="white"/>
<path d="M80.2842 75.2712L92.3352 62.3905H108.883L96.8285 75.3026L80.2842 75.2712Z" fill="white"/>
<path d="M101.448 75.3146L113.499 62.4338H130.047L117.992 75.3459L101.448 75.3146Z" fill="white"/>
<path d="M3.25841 59.0195C3.11884 59.0195 2.98763 58.9338 2.93634 58.7953L0.0530931 51.0079C-0.0253937 50.796 -0.0166179 50.5661 0.0778041 50.3608C0.172226 50.1554 0.341006 49.9991 0.55302 49.9207L135.315 0.0526417C135.753 -0.109276 136.241 0.114929 136.403 0.552386L140.537 11.7185C140.615 11.9304 140.606 12.1603 140.512 12.3656C140.418 12.571 140.249 12.7273 140.037 12.8057L23.894 55.7838C23.7162 55.8496 23.5186 55.7588 23.4528 55.581C23.387 55.4032 23.4778 55.2058 23.6557 55.1399L139.798 12.1618C139.852 12.1419 139.878 12.1013 139.888 12.0788C139.898 12.0564 139.913 12.0108 139.893 11.9569L135.758 0.790736C135.728 0.708298 135.636 0.666041 135.553 0.696506L0.791387 50.5646C0.737456 50.5846 0.712115 50.6251 0.701792 50.6476C0.691479 50.67 0.677159 50.7156 0.697119 50.7696L3.5804 58.557C3.64622 58.7348 3.55542 58.9322 3.37756 58.9981C3.33826 59.0126 3.29799 59.0195 3.25841 59.0195Z" fill="black"/>
<path d="M145.996 75.633L2.29804 75.6329C1.83138 75.6329 1.45172 75.2534 1.45172 74.7869V62.8804C1.45172 62.4139 1.83138 62.0343 2.29804 62.0343H3.30112C3.49076 62.0343 3.64449 62.188 3.64449 62.3776C3.64449 62.5672 3.49076 62.7208 3.30112 62.7208H2.29804C2.21006 62.7208 2.13848 62.7924 2.13848 62.8804V74.7869C2.13848 74.8748 2.21006 74.9464 2.29804 74.9464L145.996 74.9464C146.084 74.9464 146.156 74.8749 146.156 74.7869V62.8804C146.156 62.7925 146.084 62.7209 145.996 62.7209L30.8174 62.7208C30.6277 62.7208 30.474 62.5672 30.474 62.3776C30.474 62.188 30.6277 62.0343 30.8174 62.0343L145.996 62.0343C146.463 62.0343 146.842 62.4139 146.842 62.8804V74.7869C146.842 75.2534 146.463 75.633 145.996 75.633Z" fill="black"/>
<path d="M145.996 165L2.29795 165C1.83129 165 1.45163 164.62 1.45163 164.154V75.7742C1.45163 75.3076 1.83129 74.9281 2.29795 74.9281L145.996 74.9283C146.463 74.9283 146.842 75.3078 146.842 75.7744V164.154C146.842 164.621 146.462 165 145.996 165ZM2.29795 75.6146C2.20997 75.6146 2.13838 75.6862 2.13838 75.7742V164.154C2.13838 164.242 2.20997 164.313 2.29795 164.313L145.996 164.314C146.084 164.314 146.155 164.242 146.155 164.154V75.7744C146.155 75.6864 146.084 75.6148 145.996 75.6148L2.29795 75.6146Z" fill="black"/>
<path d="M141.039 83.3059H6.26493C5.74265 83.3059 5.31927 82.8827 5.31927 82.3606C5.31927 81.8384 5.74265 81.4152 6.26493 81.4152H141.039C141.561 81.4152 141.984 81.8384 141.984 82.3606C141.984 82.8827 141.561 83.3059 141.039 83.3059Z" fill="white"/>
<path d="M141.039 113.031H6.26493C5.74265 113.031 5.31927 112.608 5.31927 112.086C5.31927 111.564 5.74265 111.14 6.26493 111.14H141.039C141.561 111.14 141.984 111.564 141.984 112.086C141.984 112.608 141.561 113.031 141.039 113.031Z" fill="white"/>
<path d="M98.5197 123.156H6.26492C5.74265 123.156 5.31927 122.733 5.31927 122.211C5.31927 121.689 5.74265 121.265 6.26492 121.265H98.5197C99.042 121.265 99.4653 121.689 99.4653 122.211C99.4653 122.733 99.042 123.156 98.5197 123.156Z" fill="white"/>
<path d="M141.039 133.281H6.26493C5.74265 133.281 5.31927 132.857 5.31927 132.335C5.31927 131.813 5.74265 131.39 6.26493 131.39H141.039C141.561 131.39 141.984 131.813 141.984 132.335C141.984 132.857 141.561 133.281 141.039 133.281Z" fill="white"/>
<path d="M141.039 147.386H6.26493C5.74265 147.386 5.31927 146.963 5.31927 146.441C5.31927 145.919 5.74265 145.495 6.26493 145.495H141.039C141.561 145.495 141.984 145.919 141.984 146.441C141.984 146.963 141.561 147.386 141.039 147.386Z" fill="white"/>
<path d="M51.579 113.031C51.0567 113.031 50.6333 112.608 50.6333 112.086V83.096C50.6333 82.5739 51.0567 82.1506 51.579 82.1506C52.1012 82.1506 52.5246 82.5739 52.5246 83.096V112.086C52.5246 112.608 52.1012 113.031 51.579 113.031Z" fill="white"/>
<path d="M98.6892 133.281C98.167 133.281 97.7436 132.857 97.7436 132.335V83.1176C97.7436 82.5955 98.167 82.1722 98.6892 82.1722C99.2115 82.1722 99.6349 82.5955 99.6349 83.1176V132.335C99.6349 132.857 99.2115 133.281 98.6892 133.281Z" fill="white"/>
<path d="M17.7544 88.4008C18.0206 88.537 18.4296 88.6734 18.8516 88.6734C19.3061 88.6734 19.5463 88.4852 19.5463 88.1995C19.5463 87.927 19.3385 87.7711 18.8126 87.5829C18.0856 87.3298 17.6116 86.9274 17.6116 86.2914C17.6116 85.545 18.2349 84.9736 19.2672 84.9736C19.7605 84.9736 20.1241 85.0777 20.3838 85.1944L20.1631 85.9928C19.9878 85.9084 19.6761 85.785 19.2477 85.785C18.8192 85.785 18.6114 85.9797 18.6114 86.207C18.6114 86.4859 18.8581 86.6094 19.4229 86.8236C20.1956 87.1091 20.5591 87.5115 20.5591 88.1281C20.5591 88.8616 19.9942 89.4847 18.7932 89.4847C18.2933 89.4847 17.7998 89.3549 17.5532 89.2185L17.7544 88.4008Z" fill="white"/>
<path d="M24.4412 89.2965C24.2594 89.3873 23.8505 89.4847 23.3181 89.4847C21.8054 89.4847 21.0263 88.5436 21.0263 87.2973C21.0263 85.8044 22.091 84.9736 23.4154 84.9736C23.9283 84.9736 24.3179 85.0777 24.4931 85.1684L24.2919 85.9537C24.0906 85.8693 23.8114 85.7915 23.4609 85.7915C22.6753 85.7915 22.065 86.2654 22.065 87.2389C22.065 88.1152 22.5844 88.6669 23.4674 88.6669C23.7661 88.6669 24.0971 88.6019 24.2919 88.5241L24.4412 89.2965Z" fill="white"/>
<path d="M27.6936 87.57H26.0836V88.6084H27.882V89.4198H25.0903V85.045H27.791V85.8564H26.0836V86.765H27.6936V87.57Z" fill="white"/>
<path d="M28.5569 89.4198V85.045H29.7125L30.6215 86.6483C30.8812 87.109 31.1408 87.6544 31.3356 88.1475H31.3551C31.2902 87.57 31.2707 86.9792 31.2707 86.3237V85.045H32.1797V89.4198H31.1408L30.206 87.7322C29.9462 87.2649 29.6606 86.7001 29.4463 86.1873L29.4269 86.1939C29.4529 86.7715 29.4658 87.3881 29.4658 88.1022V89.4198H28.5569Z" fill="white"/>
<path d="M35.6397 87.57H34.0297V88.6084H35.828V89.4198H33.0363V85.045H35.7371V85.8564H34.0297V86.765H35.6397V87.57Z" fill="white"/>
<path d="M68.0338 85.9193H66.8587V85.0885H70.2217V85.9193H69.0271V89.4632H68.0338V85.9193Z" fill="white"/>
<path d="M71.2992 88.3401L70.9876 89.4631H69.9619L71.2992 85.0884H72.5977L73.9546 89.4631H72.8899L72.5522 88.3401H71.2992ZM72.4094 87.6002L72.1368 86.6721C72.0589 86.4125 71.9809 86.0879 71.916 85.8283H71.903C71.8382 86.0879 71.7732 86.419 71.7017 86.6721L71.4421 87.6002H72.4094Z" fill="white"/>
<path d="M74.5386 85.0884H75.519V87.0225H75.5384C75.6358 86.8538 75.7397 86.6982 75.8371 86.5423L76.8304 85.0884H78.0445L76.5967 86.9513L78.1224 89.4631H76.9668L75.8955 87.5742L75.519 88.0352V89.4631H74.5386V85.0884Z" fill="white"/>
<path d="M81.1281 87.6133H79.5181V88.6518H81.3165V89.4631H78.5247V85.0884H81.2255V85.8997H79.5181V86.8083H81.1281V87.6133Z" fill="white"/>
<path d="M114.209 85.1046C114.527 85.0528 115.001 85.0139 115.527 85.0139C116.176 85.0139 116.631 85.1112 116.942 85.3578C117.202 85.5656 117.345 85.8705 117.345 86.2731C117.345 86.8312 116.949 87.2141 116.572 87.3505V87.3699C116.877 87.4932 117.046 87.7854 117.157 88.1878C117.293 88.6809 117.429 89.2523 117.514 89.421H116.501C116.429 89.2977 116.326 88.9406 116.196 88.402C116.079 87.8567 115.891 87.7074 115.488 87.7009H115.189V89.421H114.209V85.1046ZM115.189 86.987H115.579C116.072 86.987 116.365 86.7404 116.365 86.3575C116.365 85.9549 116.092 85.7538 115.637 85.7472C115.397 85.7472 115.261 85.7667 115.189 85.7798V86.987Z" fill="white"/>
<path d="M122.039 87.1871C122.039 88.6214 121.169 89.4911 119.89 89.4911C118.591 89.4911 117.832 88.511 117.832 87.2649C117.832 85.9537 118.669 84.9736 119.961 84.9736C121.305 84.9736 122.039 85.9797 122.039 87.1871ZM118.877 87.2455C118.877 88.1023 119.279 88.7058 119.942 88.7058C120.61 88.7058 120.993 88.0697 120.993 87.2195C120.993 86.4341 120.617 85.7592 119.935 85.7592C119.266 85.7592 118.877 86.3952 118.877 87.2455Z" fill="white"/>
<path d="M122.688 85.045H123.681V88.589H125.421V89.4198H122.688V85.045Z" fill="white"/>
<path d="M126.005 85.045H126.998V88.589H128.738V89.4198H126.005V85.045Z" fill="white"/>
<path d="M102.349 118.948C102.616 119.084 103.024 119.221 103.447 119.221C103.901 119.221 104.141 119.033 104.141 118.747C104.141 118.474 103.933 118.319 103.408 118.13C102.68 117.877 102.206 117.475 102.206 116.839C102.206 116.092 102.83 115.521 103.862 115.521C104.355 115.521 104.719 115.625 104.979 115.742L104.758 116.54C104.583 116.456 104.271 116.332 103.843 116.332C103.414 116.332 103.206 116.527 103.206 116.754C103.206 117.033 103.453 117.157 104.018 117.371C104.79 117.656 105.154 118.059 105.154 118.675C105.154 119.409 104.589 120.032 103.388 120.032C102.888 120.032 102.395 119.902 102.148 119.766L102.349 118.948Z" fill="white"/>
<path d="M109.828 117.735C109.828 119.169 108.958 120.039 107.679 120.039C106.381 120.039 105.621 119.059 105.621 117.812C105.621 116.501 106.459 115.521 107.751 115.521C109.095 115.521 109.828 116.527 109.828 117.735ZM106.666 117.793C106.666 118.65 107.069 119.253 107.731 119.253C108.4 119.253 108.783 118.617 108.783 117.767C108.783 116.982 108.406 116.307 107.725 116.307C107.056 116.307 106.666 116.943 106.666 117.793Z" fill="white"/>
<path d="M111.464 115.593V118.111C111.464 118.864 111.75 119.247 112.256 119.247C112.776 119.247 113.061 118.883 113.061 118.111V115.593H114.048V118.046C114.048 119.396 113.366 120.039 112.224 120.039C111.12 120.039 110.471 119.428 110.471 118.033V115.593H111.464Z" fill="white"/>
<path d="M114.905 119.967V115.593H116.06L116.969 117.196C117.229 117.657 117.489 118.202 117.683 118.695H117.703C117.638 118.117 117.618 117.527 117.618 116.871V115.593H118.527V119.967H117.489L116.554 118.28C116.294 117.812 116.008 117.248 115.794 116.735L115.775 116.741C115.801 117.319 115.814 117.936 115.814 118.65V119.967H114.905Z" fill="white"/>
<path d="M119.384 115.651C119.748 115.593 120.222 115.56 120.721 115.56C121.552 115.56 122.091 115.709 122.513 116.027C122.968 116.365 123.254 116.904 123.254 117.676C123.254 118.513 122.948 119.091 122.526 119.448C122.065 119.831 121.364 120.013 120.507 120.013C119.994 120.013 119.631 119.98 119.384 119.948V115.651ZM120.377 119.221C120.462 119.24 120.598 119.24 120.721 119.24C121.617 119.247 122.202 118.754 122.202 117.709C122.208 116.8 121.676 116.32 120.825 116.32C120.605 116.32 120.462 116.339 120.377 116.358V119.221Z" fill="white"/>
<path d="M6.68439 114.786C7.04797 114.727 7.52186 114.695 8.02177 114.695C8.85279 114.695 9.39171 114.844 9.81367 115.162C10.2681 115.5 10.5538 116.038 10.5538 116.811C10.5538 117.648 10.2486 118.226 9.82668 118.583C9.3657 118.966 8.66454 119.147 7.80751 119.147C7.2946 119.147 6.93111 119.115 6.68439 119.082V114.786ZM7.67774 118.355C7.76213 118.375 7.89845 118.375 8.02177 118.375C8.91772 118.381 9.50202 117.888 9.50202 116.843C9.50857 115.934 8.9762 115.454 8.12562 115.454C7.90491 115.454 7.76213 115.474 7.67774 115.493V118.355Z" fill="white"/>
<path d="M12.1183 117.979L11.8066 119.102H10.7809L12.1183 114.727H13.4168L14.7737 119.102H13.709L13.3713 117.979H12.1183ZM13.2285 117.239L12.9559 116.311C12.8779 116.051 12.8 115.727 12.7351 115.467H12.7221C12.6572 115.727 12.5923 116.058 12.5208 116.311L12.2612 117.239H13.2285Z" fill="white"/>
<path d="M15.6629 115.558H14.4878V114.727H17.8508V115.558H16.6562V119.102H15.6629V115.558Z" fill="white"/>
<path d="M20.9797 117.252H19.3697V118.291H21.1681V119.102H18.3764V114.727H21.0771V115.539H19.3697V116.447H20.9797V117.252Z" fill="white"/>
<path d="M6.68439 125.127C6.98949 125.076 7.41801 125.037 8.02177 125.037C8.63208 125.037 9.06705 125.153 9.35924 125.387C9.63844 125.608 9.82668 125.971 9.82668 126.4C9.82668 126.828 9.68381 127.191 9.42418 127.438C9.08651 127.756 8.58661 127.899 8.00231 127.899C7.87244 127.899 7.75558 127.892 7.66473 127.879V129.444H6.68439V125.127ZM7.66473 127.114C7.74913 127.133 7.85298 127.14 7.99585 127.14C8.52167 127.14 8.84633 126.873 8.84633 126.425C8.84633 126.023 8.56714 125.783 8.07369 125.783C7.87244 125.783 7.73612 125.803 7.66473 125.822V127.114Z" fill="white"/>
<path d="M10.4562 125.127C10.7743 125.075 11.2482 125.036 11.7741 125.036C12.4233 125.036 12.8778 125.133 13.1894 125.38C13.4491 125.588 13.5919 125.892 13.5919 126.295C13.5919 126.853 13.196 127.236 12.8194 127.372V127.392C13.1245 127.515 13.2933 127.807 13.4037 128.21C13.54 128.703 13.6764 129.274 13.7608 129.443H12.748C12.6765 129.32 12.5726 128.963 12.4428 128.424C12.3259 127.879 12.1377 127.729 11.7352 127.723H11.4365V129.443H10.4562V125.127ZM11.4365 127.009H11.826C12.3195 127.009 12.6116 126.762 12.6116 126.379C12.6116 125.977 12.3389 125.776 11.8845 125.769C11.6442 125.769 11.5079 125.789 11.4365 125.802V127.009Z" fill="white"/>
<path d="M18.2857 127.21C18.2857 128.644 17.4157 129.514 16.1368 129.514C14.8382 129.514 14.0787 128.534 14.0787 127.288C14.0787 125.977 14.9162 124.997 16.2082 124.997C17.5521 124.997 18.2857 126.003 18.2857 127.21ZM15.124 127.269C15.124 128.125 15.5265 128.729 16.1887 128.729C16.8574 128.729 17.2405 128.093 17.2405 127.243C17.2405 126.457 16.8639 125.782 16.1822 125.782C15.5135 125.782 15.124 126.418 15.124 127.269Z" fill="white"/>
<path d="M18.9347 125.127C19.2982 125.068 19.7721 125.036 20.272 125.036C21.1031 125.036 21.642 125.185 22.0639 125.503C22.5184 125.841 22.8041 126.379 22.8041 127.152C22.8041 127.989 22.4989 128.567 22.077 128.924C21.616 129.307 20.9148 129.488 20.0578 129.488C19.5449 129.488 19.1814 129.456 18.9347 129.424V125.127ZM19.928 128.697C20.0124 128.716 20.1487 128.716 20.272 128.716C21.168 128.723 21.7523 128.229 21.7523 127.184C21.7588 126.275 21.2265 125.795 20.3759 125.795C20.1552 125.795 20.0124 125.815 19.928 125.834V128.697Z" fill="white"/>
<path d="M23.0896 128.917C23.0896 128.567 23.3297 128.314 23.6739 128.314C24.0179 128.314 24.2516 128.56 24.2516 128.917C24.2516 129.261 24.0179 129.514 23.6673 129.514C23.3297 129.514 23.0896 129.261 23.0896 128.917Z" fill="white"/>
<path d="M29.4064 129.32C29.2246 129.41 28.8156 129.508 28.2832 129.508C26.7705 129.508 25.9914 128.567 25.9914 127.32C25.9914 125.828 27.0562 124.997 28.3805 124.997C28.8934 124.997 29.283 125.101 29.4583 125.191L29.257 125.977C29.0558 125.892 28.7766 125.815 28.426 125.815C27.6405 125.815 27.0302 126.288 27.0302 127.262C27.0302 128.138 27.5495 128.69 28.4326 128.69C28.7312 128.69 29.0622 128.625 29.257 128.547L29.4064 129.32Z" fill="white"/>
<path d="M33.8664 127.21C33.8664 128.644 32.9963 129.514 31.7173 129.514C30.4189 129.514 29.6593 128.534 29.6593 127.288C29.6593 125.977 30.4968 124.997 31.7888 124.997C33.1327 124.997 33.8664 126.003 33.8664 127.21ZM30.7046 127.269C30.7046 128.125 31.1071 128.729 31.7693 128.729C32.438 128.729 32.8211 128.093 32.8211 127.243C32.8211 126.457 32.4445 125.782 31.7628 125.782C31.0941 125.782 30.7046 126.418 30.7046 127.269Z" fill="white"/>
<path d="M34.1518 128.917C34.1518 128.567 34.392 128.314 34.7361 128.314C35.0801 128.314 35.3139 128.56 35.3139 128.917C35.3139 129.261 35.0801 129.514 34.7296 129.514C34.392 129.514 34.1518 129.261 34.1518 128.917Z" fill="white"/>
<path d="M6.68439 134.949C7.04797 134.891 7.52186 134.858 8.02177 134.858C8.85279 134.858 9.39171 135.008 9.81367 135.326C10.2681 135.663 10.5538 136.202 10.5538 136.974C10.5538 137.811 10.2486 138.389 9.82668 138.746C9.3657 139.129 8.66454 139.311 7.80751 139.311C7.2946 139.311 6.93111 139.278 6.68439 139.246V134.949ZM7.67774 138.519C7.76213 138.538 7.89845 138.538 8.02177 138.538C8.91772 138.545 9.50202 138.052 9.50202 137.007C9.50857 136.098 8.9762 135.618 8.12562 135.618C7.90491 135.618 7.76213 135.637 7.67774 135.657V138.519Z" fill="white"/>
<path d="M12.1961 134.89V139.265H11.2028V134.89H12.1961Z" fill="white"/>
<path d="M13.053 134.949C13.3711 134.897 13.845 134.858 14.3709 134.858C15.0201 134.858 15.4746 134.955 15.7862 135.202C16.0459 135.41 16.1887 135.715 16.1887 136.117C16.1887 136.675 15.7928 137.058 15.4162 137.194V137.214C15.7213 137.337 15.8901 137.629 16.0005 138.032C16.1368 138.525 16.2732 139.096 16.3576 139.265H15.3448C15.2733 139.142 15.1695 138.785 15.0396 138.246C14.9227 137.701 14.7345 137.551 14.332 137.545H14.0333V139.265H13.053V134.949ZM14.0333 136.831H14.4228C14.9163 136.831 15.2084 136.584 15.2084 136.201C15.2084 135.799 14.9357 135.598 14.4813 135.591C14.241 135.591 14.1047 135.611 14.0333 135.624V136.831Z" fill="white"/>
<path d="M19.506 137.415H17.8959V138.454H19.6943V139.265H16.9026V134.89H19.6034V135.702H17.8959V136.61H19.506V137.415Z" fill="white"/>
<path d="M23.5831 139.142C23.4013 139.232 22.9923 139.33 22.4599 139.33C20.9472 139.33 20.1681 138.389 20.1681 137.142C20.1681 135.65 21.2329 134.819 22.5572 134.819C23.0701 134.819 23.4597 134.923 23.635 135.013L23.4337 135.799C23.2325 135.714 22.9533 135.637 22.6027 135.637C21.8172 135.637 21.2068 136.11 21.2068 137.084C21.2068 137.96 21.7262 138.512 22.6093 138.512C22.9079 138.512 23.2389 138.447 23.4337 138.369L23.5831 139.142Z" fill="white"/>
<path d="M25.1669 135.721H23.9917V134.89H27.3547V135.721H26.1601V139.265H25.1669V135.721Z" fill="white"/>
<path d="M31.6978 137.032C31.6978 138.466 30.8278 139.336 29.5489 139.336C28.2504 139.336 27.4908 138.356 27.4908 137.11C27.4908 135.799 28.3283 134.819 29.6203 134.819C30.9642 134.819 31.6978 135.825 31.6978 137.032ZM28.5361 137.091C28.5361 137.947 28.9386 138.551 29.6008 138.551C30.2695 138.551 30.6526 137.915 30.6526 137.065C30.6526 136.279 30.276 135.604 29.5943 135.604C28.9256 135.604 28.5361 136.24 28.5361 137.091Z" fill="white"/>
<path d="M32.3468 134.949C32.6649 134.897 33.1388 134.858 33.6647 134.858C34.3139 134.858 34.7684 134.955 35.08 135.202C35.3398 135.41 35.4825 135.715 35.4825 136.117C35.4825 136.675 35.0866 137.058 34.71 137.194V137.214C35.0151 137.337 35.1839 137.629 35.2943 138.032C35.4306 138.525 35.567 139.096 35.6514 139.265H34.6386C34.5671 139.142 34.4633 138.785 34.3334 138.246C34.2166 137.701 34.0283 137.551 33.6258 137.545H33.3271V139.265H32.3468V134.949ZM33.3271 136.831H33.7166C34.2101 136.831 34.5022 136.584 34.5022 136.201C34.5022 135.799 34.2296 135.598 33.7751 135.591C33.5349 135.591 33.3985 135.611 33.3271 135.624V136.831Z" fill="white"/>
<path d="M9.89809 153.766C9.71629 153.857 9.30733 153.954 8.77496 153.954C7.26225 153.954 6.48315 153.013 6.48315 151.767C6.48315 150.274 7.54789 149.443 8.87227 149.443C9.38518 149.443 9.77477 149.547 9.95001 149.638L9.74876 150.423C9.54751 150.339 9.26832 150.261 8.91774 150.261C8.13219 150.261 7.52188 150.735 7.52188 151.709C7.52188 152.585 8.04125 153.137 8.92429 153.137C9.22294 153.137 9.55396 153.072 9.74876 152.994L9.89809 153.766Z" fill="white"/>
<path d="M11.6312 152.766L11.3196 153.889H10.2939L11.6312 149.515H12.9297L14.2866 153.889H13.2219L12.8842 152.766H11.6312ZM12.7414 152.027L12.4688 151.099C12.3909 150.839 12.3129 150.514 12.248 150.255H12.235C12.1702 150.514 12.1052 150.845 12.0337 151.099L11.7741 152.027H12.7414Z" fill="white"/>
<path d="M18.5712 152.215C18.5517 151.689 18.5323 151.053 18.5323 150.417H18.5128C18.3765 150.975 18.1947 151.598 18.0259 152.111L17.4936 153.818H16.7209L16.2535 152.124C16.1106 151.611 15.9613 150.988 15.8574 150.417H15.8444C15.8185 151.008 15.799 151.683 15.7666 152.228L15.6886 153.889H14.7732L15.0524 149.515H16.3703L16.7988 150.975C16.9352 151.481 17.0715 152.027 17.1689 152.539H17.1883C17.3118 152.033 17.4611 151.455 17.6039 150.969L18.0713 149.515H19.3633L19.6036 153.889H18.6361L18.5712 152.215Z" fill="white"/>
<path d="M22.9662 152.04H21.3562V153.078H23.1545V153.889H20.3628V149.515H23.0636V150.326H21.3562V151.235H22.9662V152.04Z" fill="white"/>
<path d="M23.8295 149.573C24.1476 149.521 24.6215 149.482 25.1474 149.482C25.7966 149.482 26.2511 149.58 26.5627 149.826C26.8225 150.034 26.9652 150.339 26.9652 150.742C26.9652 151.3 26.5693 151.683 26.1927 151.819V151.838C26.4978 151.962 26.6666 152.254 26.777 152.656C26.9133 153.149 27.0497 153.721 27.1341 153.89H26.1213C26.0498 153.766 25.946 153.409 25.8161 152.871C25.6992 152.325 25.511 152.176 25.1085 152.169H24.8098V153.89H23.8295V149.573ZM24.8098 151.455H25.1993C25.6928 151.455 25.9849 151.209 25.9849 150.826C25.9849 150.423 25.7123 150.222 25.2578 150.216C25.0176 150.216 24.8812 150.235 24.8098 150.248V151.455Z" fill="white"/>
<path d="M28.7568 152.766L28.4451 153.889H27.4194L28.7568 149.515H30.0552L31.4122 153.889H30.3474L30.0098 152.766H28.7568ZM29.867 152.027L29.5942 151.099C29.5164 150.839 29.4384 150.514 29.3735 150.255H29.3605C29.2957 150.514 29.2307 150.845 29.1593 151.099L28.8996 152.027H29.867Z" fill="white"/>
<path d="M35.6967 152.215C35.6773 151.689 35.6578 151.053 35.6578 150.417H35.6384C35.502 150.975 35.3203 151.598 35.1515 152.111L34.6191 153.818H33.8465L33.379 152.124C33.2362 151.611 33.0868 150.988 32.983 150.417H32.97C32.9441 151.008 32.9246 151.683 32.8921 152.228L32.8142 153.889H31.8988L32.178 149.515H33.4959L33.9244 150.975C34.0607 151.481 34.197 152.027 34.2944 152.539H34.3139C34.4373 152.033 34.5866 151.455 34.7294 150.969L35.1968 149.515H36.4888L36.7291 153.889H35.7617L35.6967 152.215Z" fill="white"/>
<path d="M38.4883 152.766L38.1766 153.889H37.1509L38.4883 149.515H39.7867L41.1437 153.889H40.0789L39.7412 152.766H38.4883ZM39.5985 152.027L39.3258 151.099C39.2479 150.839 39.17 150.514 39.105 150.255H39.092C39.0272 150.514 38.9622 150.845 38.8908 151.099L38.6311 152.027H39.5985Z" fill="white"/>
<path d="M41.7276 153.889V149.515H42.8832L43.7922 151.118C44.0519 151.579 44.3115 152.124 44.5063 152.617H44.5258C44.4609 152.04 44.4414 151.449 44.4414 150.793V149.515H45.3504V153.889H44.3115L43.3767 152.202C43.1169 151.735 42.8313 151.17 42.617 150.657L42.5976 150.664C42.6236 151.241 42.6365 151.858 42.6365 152.572V153.889H41.7276Z" fill="white"/>
<path d="M49.6664 46.2242C49.6155 46.2242 49.5638 46.2128 49.515 46.1888L33.5486 38.3289C33.3785 38.2451 33.3085 38.0393 33.3922 37.8692C33.476 37.6991 33.6818 37.6291 33.852 37.7129L49.8184 45.5729C49.9885 45.6567 50.0585 45.8624 49.9747 46.0325C49.915 46.1538 49.7931 46.2242 49.6664 46.2242Z" fill="black"/>
<path d="M65.2039 40.4695C65.153 40.4695 65.1013 40.4582 65.0525 40.4342L49.0861 32.5742C48.916 32.4904 48.846 32.2846 48.9297 32.1145C49.0135 31.9445 49.2195 31.8745 49.3895 31.9582L65.3559 39.8182C65.526 39.902 65.596 40.1078 65.5122 40.2778C65.4525 40.3991 65.3306 40.4695 65.2039 40.4695Z" fill="black"/>
<path d="M69.6185 38.8686C69.5676 38.8686 69.5158 38.8572 69.4671 38.8332L53.5007 30.9732C53.3306 30.8894 53.2606 30.6837 53.3444 30.5136C53.4281 30.3435 53.634 30.2736 53.8041 30.3572L69.7705 38.2172C69.9406 38.301 70.0106 38.5068 69.9268 38.6769C69.8671 38.7982 69.7452 38.8686 69.6185 38.8686Z" fill="black"/>
<path d="M85.156 33.1139C85.1051 33.1139 85.0534 33.1026 85.0046 33.0786L69.0382 25.2186C68.8681 25.1348 68.7981 24.929 68.8819 24.759C68.9656 24.5888 69.1716 24.5189 69.3416 24.6026L85.308 32.4626C85.4781 32.5464 85.5481 32.7522 85.4643 32.9222C85.4046 33.0435 85.2827 33.1139 85.156 33.1139Z" fill="black"/>
<path d="M89.1377 31.5994C89.0867 31.5994 89.035 31.588 88.9862 31.564L73.0199 23.7041C72.8497 23.6203 72.7798 23.4145 72.8635 23.2444C72.9473 23.0743 73.1532 23.0044 73.3233 23.0881L89.2896 30.9481C89.4598 31.0319 89.5298 31.2376 89.446 31.4077C89.3862 31.529 89.2644 31.5994 89.1377 31.5994Z" fill="black"/>
<path d="M104.675 25.8448C104.624 25.8448 104.573 25.8334 104.524 25.8094L88.5574 17.9494C88.3872 17.8656 88.3172 17.6599 88.401 17.4898C88.4848 17.3197 88.6907 17.2498 88.8607 17.3334L104.827 25.1934C104.997 25.2772 105.067 25.483 104.983 25.6531C104.924 25.7744 104.802 25.8448 104.675 25.8448Z" fill="black"/>
<path d="M108.83 24.3304C108.779 24.3304 108.727 24.319 108.679 24.295L92.7123 16.435C92.5421 16.3512 92.4721 16.1455 92.5559 15.9754C92.6397 15.8053 92.8456 15.7354 93.0157 15.819L108.982 23.679C109.152 23.7628 109.222 23.9686 109.138 24.1387C109.079 24.26 108.957 24.3304 108.83 24.3304Z" fill="black"/>
<path d="M124.368 18.5757C124.317 18.5757 124.265 18.5644 124.216 18.5404L108.25 10.6804C108.08 10.5966 108.01 10.3908 108.093 10.2207C108.177 10.0506 108.383 9.98074 108.553 10.0644L124.52 17.9244C124.69 18.0082 124.76 18.214 124.676 18.384C124.616 18.5053 124.494 18.5757 124.368 18.5757Z" fill="black"/>
<path d="M117.89 75.6459C117.805 75.6459 117.72 75.6147 117.654 75.5517C117.516 75.4213 117.511 75.204 117.641 75.0664L129.885 62.1544C130.016 62.0168 130.233 62.0109 130.371 62.1414C130.509 62.2718 130.514 62.4891 130.384 62.6267L118.14 75.5388C118.072 75.61 117.981 75.6459 117.89 75.6459Z" fill="black"/>
<path d="M101.321 75.6411C101.236 75.6411 101.151 75.61 101.085 75.547C100.947 75.4166 100.941 75.1993 101.072 75.0617L113.316 62.1496C113.447 62.012 113.664 62.0062 113.801 62.1366C113.939 62.2671 113.945 62.4843 113.814 62.622L101.57 75.534C101.503 75.6052 101.412 75.6411 101.321 75.6411Z" fill="black"/>
<path d="M96.6249 75.6459C96.5401 75.6459 96.4551 75.6147 96.3887 75.5517C96.2511 75.4213 96.2453 75.204 96.3757 75.0664L108.62 62.1544C108.751 62.0168 108.968 62.0109 109.106 62.1414C109.243 62.2718 109.249 62.4891 109.118 62.6267L96.8741 75.5388C96.8066 75.61 96.7158 75.6459 96.6249 75.6459Z" fill="black"/>
<path d="M80.0554 75.6411C79.9706 75.6411 79.8857 75.61 79.8193 75.547C79.6816 75.4166 79.6758 75.1993 79.8063 75.0617L92.0507 62.1496C92.1812 62.012 92.3985 62.0062 92.5361 62.1366C92.6737 62.2671 92.6796 62.4843 92.5491 62.622L80.3047 75.534C80.2372 75.6052 80.1464 75.6411 80.0554 75.6411Z" fill="black"/>
<path d="M75.7953 75.6459C75.7105 75.6459 75.6256 75.6147 75.5592 75.5517C75.4215 75.4213 75.4157 75.204 75.5462 75.0664L87.7906 62.1544C87.9211 62.0168 88.1384 62.0109 88.276 62.1414C88.4136 62.2718 88.4194 62.4891 88.289 62.6267L76.0446 75.5388C75.9771 75.61 75.8863 75.6459 75.7953 75.6459Z" fill="black"/>
<path d="M59.2259 75.6411C59.141 75.6411 59.0561 75.61 58.9897 75.547C58.8521 75.4166 58.8462 75.1993 58.9767 75.0617L71.2211 62.1496C71.3516 62.012 71.5689 62.0062 71.7065 62.1366C71.8441 62.2671 71.8499 62.4843 71.7195 62.622L59.4751 75.534C59.4076 75.6052 59.3168 75.6411 59.2259 75.6411Z" fill="black"/>
<path d="M54.8035 75.6459C54.7187 75.6459 54.6338 75.6147 54.5674 75.5517C54.4298 75.4213 54.4239 75.204 54.5544 75.0664L66.7988 62.1544C66.9293 62.0168 67.1466 62.0109 67.2842 62.1414C67.4218 62.2718 67.4276 62.4891 67.2972 62.6267L55.0528 75.5388C54.9853 75.61 54.8945 75.6459 54.8035 75.6459Z" fill="black"/>
<path d="M38.2341 75.6411C38.1493 75.6411 38.0643 75.61 37.9979 75.547C37.8603 75.4166 37.8545 75.1993 37.9849 75.0617L50.2293 62.1496C50.3598 62.012 50.5771 62.0062 50.7147 62.1366C50.8523 62.2671 50.8582 62.4843 50.7277 62.622L38.4833 75.534C38.4158 75.6052 38.325 75.6411 38.2341 75.6411Z" fill="black"/>
<path d="M29.0775 72.233H4.95743C3.8901 72.233 3.02176 71.3649 3.02176 70.2978V53.3669C3.02176 52.1777 3.98945 51.2103 5.17891 51.2103H16.3095C16.8661 51.2103 17.411 51.3643 17.8852 51.6556L30.1774 59.2069C30.7494 59.5583 31.1047 60.1935 31.1047 60.8646V70.2063C31.1047 71.3238 30.1953 72.233 29.0775 72.233ZM5.17891 51.8969C4.36813 51.8969 3.70851 52.5563 3.70851 53.3669V70.2978C3.70851 70.9863 4.26877 71.5464 4.95743 71.5464H29.0775C29.8166 71.5464 30.418 70.9452 30.418 70.2063V60.8646C30.418 60.4303 30.188 60.0192 29.8178 59.7919L17.5256 52.2405C17.1596 52.0157 16.7391 51.8969 16.3095 51.8969H5.17891Z" fill="black"/>
<path d="M9.33782 58.3871C8.52801 58.3871 7.86917 57.7284 7.86917 56.9188C7.86917 56.1092 8.52801 55.4506 9.33782 55.4506C10.1476 55.4506 10.8065 56.1092 10.8065 56.9188C10.8065 57.7284 10.1476 58.3871 9.33782 58.3871ZM9.33782 56.1371C8.90668 56.1371 8.55592 56.4878 8.55592 56.9188C8.55592 57.3498 8.90668 57.7005 9.33782 57.7005C9.76896 57.7005 10.1197 57.3498 10.1197 56.9188C10.1197 56.4878 9.76896 56.1371 9.33782 56.1371Z" fill="black"/>
<path d="M9.33782 68.1224C8.52801 68.1224 7.86917 67.4637 7.86917 66.6542C7.86917 65.8446 8.52801 65.1859 9.33782 65.1859C10.1476 65.1859 10.8065 65.8446 10.8065 66.6542C10.8065 67.4637 10.1476 68.1224 9.33782 68.1224ZM9.33782 65.8725C8.90668 65.8725 8.55592 66.2231 8.55592 66.6542C8.55592 67.0852 8.90668 67.4359 9.33782 67.4359C9.76896 67.4359 10.1197 67.0852 10.1197 66.6542C10.1197 66.2231 9.76896 65.8725 9.33782 65.8725Z" fill="black"/>
<path d="M25.4379 68.1224C24.6281 68.1224 23.9692 67.4637 23.9692 66.6542C23.9692 65.8446 24.6281 65.1859 25.4379 65.1859C26.2477 65.1859 26.9065 65.8446 26.9065 66.6542C26.9065 67.4637 26.2477 68.1224 25.4379 68.1224ZM25.4379 65.8725C25.0068 65.8725 24.656 66.2231 24.656 66.6542C24.656 67.0852 25.0068 67.4359 25.4379 67.4359C25.869 67.4359 26.2198 67.0852 26.2198 66.6542C26.2198 66.2231 25.869 65.8725 25.4379 65.8725Z" fill="black"/>
</svg>
