<svg width="184" height="163" viewBox="0 0 184 163" fill="none" xmlns="http://www.w3.org/2000/svg">
<path d="M178.121 0.634399H5.87895C2.98117 0.634399 0.632065 2.99187 0.632065 5.89995V129.852C0.632065 132.76 2.98117 135.117 5.87895 135.117H178.121C181.018 135.117 183.368 132.76 183.368 129.852V5.89995C183.368 2.99187 181.018 0.634399 178.121 0.634399Z" fill="#333333"/>
<path d="M0.632065 123.564V130.517L1.66266 132.975L3.5382 134.559L6.26784 135.117H25.7885L179.2 135.002L181.873 133.522L183.29 130.74L183.368 123.124H2.58307L0.632065 123.564Z" fill="#CECECE"/>
<path d="M112.889 135.052H70.8735L71.6286 137.371V144.51L70.9469 149.822L69.5711 154.139L67.1708 157.636L64.897 159.24L63.0299 160.19H60.4566L55.1153 161.931L61.0842 162.365L129.245 162.361L123.544 159.948L120.185 160.19L117.695 158.377L114.916 155.096L113.289 150.848L112.372 145.304L112.431 139.991L112.889 135.052Z" fill="#CECECE"/>
<path d="M60.4568 160.19L123.545 159.948L129.245 162.361H54.7L60.4568 160.19Z" fill="#6D6D6D"/>
<path d="M178.104 135.752H5.89593C2.64489 135.752 0 133.098 0 129.835V5.91692C0 2.65435 2.64489 0 5.89593 0H178.104C181.355 0 184 2.65435 184 5.91692V129.835C184 133.098 181.355 135.752 178.104 135.752ZM5.89593 1.26901C3.34214 1.26901 1.26446 3.35402 1.26446 5.91692V129.835C1.26446 132.398 3.34214 134.483 5.89593 134.483H178.104C180.658 134.483 182.735 132.398 182.735 129.835V5.91692C182.735 3.35402 180.658 1.26901 178.104 1.26901H5.89593Z" fill="black"/>
<path d="M177.732 6.1333H6.26801V118.171H177.732V6.1333Z" fill="#E8E8E8"/>
<path d="M178.291 118.732H5.70901V5.57227H178.291V118.732ZM6.82699 117.61H177.173V6.69421H6.82699V117.61Z" fill="black"/>
<path d="M53.7948 162.996C53.5282 162.996 53.2804 162.825 53.1936 162.557C53.0858 162.224 53.2676 161.866 53.5997 161.757L60.3568 159.556H60.4569C63.3236 159.556 65.6391 158.537 67.3391 156.529C70.1851 153.167 70.8926 147.572 70.985 143.47C71.0864 138.974 70.4891 135.257 70.4831 135.22C70.4266 134.874 70.6602 134.548 71.0048 134.491C71.3496 134.434 71.6745 134.669 71.7309 135.015C71.7564 135.171 72.3531 138.886 72.2492 143.499C72.1879 146.22 71.8923 148.683 71.3707 150.819C70.7088 153.53 69.6766 155.727 68.3028 157.35C66.3717 159.632 63.7666 160.8 60.5581 160.824L53.9902 162.964C53.9253 162.986 53.8595 162.996 53.7948 162.996Z" fill="black"/>
<path d="M130.207 162.996C130.142 162.996 130.076 162.986 130.011 162.964L123.443 160.824C120.235 160.8 117.63 159.632 115.699 157.35C114.325 155.727 113.293 153.53 112.631 150.819C112.109 148.683 111.814 146.22 111.752 143.499C111.648 138.886 112.245 135.171 112.271 135.015C112.327 134.669 112.652 134.434 112.997 134.491C113.341 134.548 113.575 134.874 113.519 135.22C113.512 135.257 112.913 138.993 113.017 143.492C113.111 147.587 113.82 153.172 116.664 156.53C118.363 158.538 120.679 159.555 123.545 159.555H123.645L130.402 161.757C130.734 161.866 130.916 162.224 130.808 162.557C130.721 162.825 130.473 162.996 130.207 162.996Z" fill="black"/>
<path d="M130.195 163H53.7933C53.4441 163 53.1611 162.716 53.1611 162.365C53.1611 162.015 53.4441 161.731 53.7933 161.731H130.195C130.545 161.731 130.828 162.015 130.828 162.365C130.828 162.716 130.545 163 130.195 163Z" fill="black"/>
<path d="M123.545 160.824H60.4568C60.1076 160.824 59.8246 160.54 59.8246 160.19C59.8246 159.84 60.1076 159.555 60.4568 159.555H123.545C123.894 159.555 124.177 159.84 124.177 160.19C124.177 160.54 123.894 160.824 123.545 160.824Z" fill="black"/>
<path d="M177.721 6.11169H6.25729V9.76799H177.721V6.11169Z" fill="#898989"/>
<path d="M178.28 10.329H5.69832V5.55078H178.28V10.329ZM6.81629 9.20706H177.162V6.67273H6.81629V9.20706Z" fill="black"/>
<path d="M83.2229 105.85H82.0946C81.7859 105.85 81.5356 105.599 81.5356 105.289C81.5356 104.979 81.7859 104.728 82.0946 104.728H82.1049V104.717C82.1049 104.408 82.3552 104.156 82.6639 104.156C82.9726 104.156 83.2229 104.408 83.2229 104.717V105.85Z" fill="black"/>
<path d="M79.2186 105.85H78.0682C77.7595 105.85 77.5093 105.598 77.5093 105.289C77.5093 104.979 77.7595 104.728 78.0682 104.728H79.2186C79.5274 104.728 79.7776 104.979 79.7776 105.289C79.7776 105.598 79.5274 105.85 79.2186 105.85ZM75.1923 105.85H74.0418C73.7331 105.85 73.4829 105.598 73.4829 105.289C73.4829 104.979 73.7331 104.728 74.0418 104.728H75.1923C75.501 104.728 75.7512 104.979 75.7512 105.289C75.7512 105.598 75.501 105.85 75.1923 105.85ZM71.1658 105.85H70.0155C69.7067 105.85 69.4565 105.598 69.4565 105.289C69.4565 104.979 69.7067 104.728 70.0155 104.728H71.1658C71.4746 104.728 71.7248 104.979 71.7248 105.289C71.7248 105.598 71.4746 105.85 71.1658 105.85ZM67.1395 105.85H65.989C65.6803 105.85 65.4301 105.598 65.4301 105.289C65.4301 104.979 65.6803 104.728 65.989 104.728H67.1395C67.4482 104.728 67.6984 104.979 67.6984 105.289C67.6984 105.598 67.4482 105.85 67.1395 105.85ZM63.1131 105.85H61.9627C61.654 105.85 61.4037 105.598 61.4037 105.289C61.4037 104.979 61.654 104.728 61.9627 104.728H63.1131C63.4218 104.728 63.6721 104.979 63.6721 105.289C63.6721 105.598 63.4218 105.85 63.1131 105.85ZM59.0867 105.85H57.9363C57.6275 105.85 57.3773 105.598 57.3773 105.289C57.3773 104.979 57.6275 104.728 57.9363 104.728H59.0867C59.3954 104.728 59.6456 104.979 59.6456 105.289C59.6456 105.598 59.3954 105.85 59.0867 105.85ZM55.0603 105.85H53.9099C53.6011 105.85 53.3509 105.598 53.3509 105.289C53.3509 104.979 53.6011 104.728 53.9099 104.728H55.0603C55.369 104.728 55.6193 104.979 55.6193 105.289C55.6193 105.598 55.369 105.85 55.0603 105.85ZM51.0339 105.85H49.8835C49.5747 105.85 49.3245 105.598 49.3245 105.289C49.3245 104.979 49.5747 104.728 49.8835 104.728H51.0339C51.3426 104.728 51.5929 104.979 51.5929 105.289C51.5929 105.598 51.3426 105.85 51.0339 105.85ZM47.0075 105.85H45.8571C45.5484 105.85 45.2981 105.598 45.2981 105.289C45.2981 104.979 45.5484 104.728 45.8571 104.728H47.0075C47.3162 104.728 47.5665 104.979 47.5665 105.289C47.5665 105.598 47.3162 105.85 47.0075 105.85ZM42.9811 105.85H41.8307C41.522 105.85 41.2717 105.598 41.2717 105.289C41.2717 104.979 41.522 104.728 41.8307 104.728H42.9811C43.2898 104.728 43.5401 104.979 43.5401 105.289C43.5401 105.598 43.2898 105.85 42.9811 105.85ZM38.9547 105.85H37.8043C37.4956 105.85 37.2453 105.598 37.2453 105.289C37.2453 104.979 37.4956 104.728 37.8043 104.728H38.9547C39.2634 104.728 39.5137 104.979 39.5137 105.289C39.5137 105.598 39.2634 105.85 38.9547 105.85ZM34.9283 105.85H33.7779C33.4692 105.85 33.2189 105.598 33.2189 105.289C33.2189 104.979 33.4692 104.728 33.7779 104.728H34.9283C35.237 104.728 35.4873 104.979 35.4873 105.289C35.4873 105.598 35.237 105.85 34.9283 105.85ZM30.9019 105.85H29.7515C29.4428 105.85 29.1925 105.598 29.1925 105.289C29.1925 104.979 29.4428 104.728 29.7515 104.728H30.9019C31.2106 104.728 31.4609 104.979 31.4609 105.289C31.4609 105.598 31.2106 105.85 30.9019 105.85Z" fill="black"/>
<path d="M26.8755 105.85H25.7472V104.717C25.7472 104.408 25.9975 104.156 26.3062 104.156C26.615 104.156 26.8652 104.408 26.8652 104.717V104.728H26.8755C27.1842 104.728 27.4345 104.979 27.4345 105.289C27.4345 105.599 27.1842 105.85 26.8755 105.85Z" fill="black"/>
<path d="M26.3062 102.428C25.9975 102.428 25.7472 102.177 25.7472 101.867V100.727C25.7472 100.417 25.9975 100.166 26.3062 100.166C26.615 100.166 26.8652 100.417 26.8652 100.727V101.867C26.8652 102.177 26.615 102.428 26.3062 102.428ZM26.3062 98.4378C25.9975 98.4378 25.7472 98.1866 25.7472 97.8768V96.7367C25.7472 96.4269 25.9975 96.1757 26.3062 96.1757C26.615 96.1757 26.8652 96.4269 26.8652 96.7367V97.8768C26.8652 98.1866 26.615 98.4378 26.3062 98.4378ZM26.3062 94.4474C25.9975 94.4474 25.7472 94.1962 25.7472 93.8864V92.7463C25.7472 92.4365 25.9975 92.1853 26.3062 92.1853C26.615 92.1853 26.8652 92.4365 26.8652 92.7463V93.8864C26.8652 94.1962 26.615 94.4474 26.3062 94.4474ZM26.3062 90.457C25.9975 90.457 25.7472 90.2058 25.7472 89.896V88.7559C25.7472 88.4461 25.9975 88.195 26.3062 88.195C26.615 88.195 26.8652 88.4461 26.8652 88.7559V89.896C26.8652 90.2058 26.615 90.457 26.3062 90.457ZM26.3062 86.4666C25.9975 86.4666 25.7472 86.2155 25.7472 85.9057V84.7656C25.7472 84.4558 25.9975 84.2046 26.3062 84.2046C26.615 84.2046 26.8652 84.4558 26.8652 84.7656V85.9057C26.8652 86.2155 26.615 86.4666 26.3062 86.4666ZM26.3062 82.4763C25.9975 82.4763 25.7472 82.2251 25.7472 81.9153V80.7752C25.7472 80.4654 25.9975 80.2142 26.3062 80.2142C26.615 80.2142 26.8652 80.4654 26.8652 80.7752V81.9153C26.8652 82.2251 26.615 82.4763 26.3062 82.4763ZM26.3062 78.4859C25.9975 78.4859 25.7472 78.2347 25.7472 77.9249V76.7848C25.7472 76.475 25.9975 76.2239 26.3062 76.2239C26.615 76.2239 26.8652 76.475 26.8652 76.7848V77.9249C26.8652 78.2347 26.615 78.4859 26.3062 78.4859ZM26.3062 74.4955C25.9975 74.4955 25.7472 74.2444 25.7472 73.9346V72.7944C25.7472 72.4846 25.9975 72.2335 26.3062 72.2335C26.615 72.2335 26.8652 72.4846 26.8652 72.7944V73.9346C26.8652 74.2444 26.615 74.4955 26.3062 74.4955ZM26.3062 70.5052C25.9975 70.5052 25.7472 70.254 25.7472 69.9442V68.8041C25.7472 68.4943 25.9975 68.2431 26.3062 68.2431C26.615 68.2431 26.8652 68.4943 26.8652 68.8041V69.9442C26.8652 70.254 26.615 70.5052 26.3062 70.5052ZM26.3062 66.5148C25.9975 66.5148 25.7472 66.2636 25.7472 65.9538V64.8137C25.7472 64.5039 25.9975 64.2527 26.3062 64.2527C26.615 64.2527 26.8652 64.5039 26.8652 64.8137V65.9538C26.8652 66.2636 26.615 66.5148 26.3062 66.5148ZM26.3062 62.5244C25.9975 62.5244 25.7472 62.2732 25.7472 61.9634V60.8233C25.7472 60.5135 25.9975 60.2624 26.3062 60.2624C26.615 60.2624 26.8652 60.5135 26.8652 60.8233V61.9634C26.8652 62.2732 26.615 62.5244 26.3062 62.5244ZM26.3062 58.534C25.9975 58.534 25.7472 58.2829 25.7472 57.9731V56.833C25.7472 56.5232 25.9975 56.272 26.3062 56.272C26.615 56.272 26.8652 56.5232 26.8652 56.833V57.9731C26.8652 58.2829 26.615 58.534 26.3062 58.534ZM26.3062 54.5437C25.9975 54.5437 25.7472 54.2925 25.7472 53.9827V52.8426C25.7472 52.5328 25.9975 52.2816 26.3062 52.2816C26.615 52.2816 26.8652 52.5328 26.8652 52.8426V53.9827C26.8652 54.2925 26.615 54.5437 26.3062 54.5437ZM26.3062 50.5533C25.9975 50.5533 25.7472 50.3021 25.7472 49.9923V48.8522C25.7472 48.5424 25.9975 48.2912 26.3062 48.2912C26.615 48.2912 26.8652 48.5424 26.8652 48.8522V49.9923C26.8652 50.3021 26.615 50.5533 26.3062 50.5533ZM26.3062 46.5629C25.9975 46.5629 25.7472 46.3118 25.7472 46.002V44.8618C25.7472 44.552 25.9975 44.3009 26.3062 44.3009C26.615 44.3009 26.8652 44.552 26.8652 44.8618V46.002C26.8652 46.3118 26.615 46.5629 26.3062 46.5629ZM26.3062 42.5725C25.9975 42.5725 25.7472 42.3214 25.7472 42.0116V40.8715C25.7472 40.5617 25.9975 40.3105 26.3062 40.3105C26.615 40.3105 26.8652 40.5617 26.8652 40.8715V42.0116C26.8652 42.3214 26.615 42.5725 26.3062 42.5725ZM26.3062 38.5822C25.9975 38.5822 25.7472 38.331 25.7472 38.0212V36.8811C25.7472 36.5713 25.9975 36.3201 26.3062 36.3201C26.615 36.3201 26.8652 36.5713 26.8652 36.8811V38.0212C26.8652 38.331 26.615 38.5822 26.3062 38.5822ZM26.3062 34.5918C25.9975 34.5918 25.7472 34.3406 25.7472 34.0308V32.8907C25.7472 32.5809 25.9975 32.3297 26.3062 32.3297C26.615 32.3297 26.8652 32.5809 26.8652 32.8907V34.0308C26.8652 34.3406 26.615 34.5918 26.3062 34.5918ZM26.3062 30.6014C25.9975 30.6014 25.7472 30.3502 25.7472 30.0404V28.9003C25.7472 28.5905 25.9975 28.3394 26.3062 28.3394C26.615 28.3394 26.8652 28.5905 26.8652 28.9003V30.0404C26.8652 30.3502 26.615 30.6014 26.3062 30.6014Z" fill="black"/>
<path d="M26.3062 26.611C25.9975 26.611 25.7472 26.3598 25.7472 26.05V24.9177H26.8755C27.1842 24.9177 27.4345 25.1689 27.4345 25.4787C27.4345 25.7885 27.1842 26.0397 26.8755 26.0397H26.8652V26.05C26.8652 26.3598 26.615 26.611 26.3062 26.611Z" fill="black"/>
<path d="M79.2186 26.0397H78.0682C77.7595 26.0397 77.5092 25.7885 77.5092 25.4787C77.5092 25.1689 77.7595 24.9177 78.0682 24.9177H79.2186C79.5273 24.9177 79.7776 25.1689 79.7776 25.4787C79.7776 25.7885 79.5273 26.0397 79.2186 26.0397ZM75.1922 26.0397H74.0418C73.7331 26.0397 73.4829 25.7885 73.4829 25.4787C73.4829 25.1689 73.7331 24.9177 74.0418 24.9177H75.1922C75.5009 24.9177 75.7512 25.1689 75.7512 25.4787C75.7512 25.7885 75.5009 26.0397 75.1922 26.0397ZM71.1658 26.0397H70.0154C69.7067 26.0397 69.4564 25.7885 69.4564 25.4787C69.4564 25.1689 69.7067 24.9177 70.0154 24.9177H71.1658C71.4746 24.9177 71.7248 25.1689 71.7248 25.4787C71.7248 25.7885 71.4746 26.0397 71.1658 26.0397ZM67.1395 26.0397H65.989C65.6803 26.0397 65.4301 25.7885 65.4301 25.4787C65.4301 25.1689 65.6803 24.9177 65.989 24.9177H67.1395C67.4482 24.9177 67.6984 25.1689 67.6984 25.4787C67.6984 25.7885 67.4482 26.0397 67.1395 26.0397ZM63.113 26.0397H61.9627C61.6539 26.0397 61.4037 25.7885 61.4037 25.4787C61.4037 25.1689 61.6539 24.9177 61.9627 24.9177H63.113C63.4218 24.9177 63.672 25.1689 63.672 25.4787C63.672 25.7885 63.4218 26.0397 63.113 26.0397ZM59.0866 26.0397H57.9362C57.6275 26.0397 57.3773 25.7885 57.3773 25.4787C57.3773 25.1689 57.6275 24.9177 57.9362 24.9177H59.0866C59.3954 24.9177 59.6456 25.1689 59.6456 25.4787C59.6456 25.7885 59.3954 26.0397 59.0866 26.0397ZM55.0603 26.0397H53.9099C53.6011 26.0397 53.3509 25.7885 53.3509 25.4787C53.3509 25.1689 53.6011 24.9177 53.9099 24.9177H55.0603C55.369 24.9177 55.6193 25.1689 55.6193 25.4787C55.6193 25.7885 55.369 26.0397 55.0603 26.0397ZM51.0339 26.0397H49.8835C49.5747 26.0397 49.3245 25.7885 49.3245 25.4787C49.3245 25.1689 49.5747 24.9177 49.8835 24.9177H51.0339C51.3426 24.9177 51.5928 25.1689 51.5928 25.4787C51.5928 25.7885 51.3426 26.0397 51.0339 26.0397ZM47.0075 26.0397H45.8571C45.5484 26.0397 45.2981 25.7885 45.2981 25.4787C45.2981 25.1689 45.5484 24.9177 45.8571 24.9177H47.0075C47.3162 24.9177 47.5664 25.1689 47.5664 25.4787C47.5664 25.7885 47.3162 26.0397 47.0075 26.0397ZM42.9811 26.0397H41.8307C41.522 26.0397 41.2717 25.7885 41.2717 25.4787C41.2717 25.1689 41.522 24.9177 41.8307 24.9177H42.9811C43.2898 24.9177 43.5401 25.1689 43.5401 25.4787C43.5401 25.7885 43.2898 26.0397 42.9811 26.0397ZM38.9547 26.0397H37.8043C37.4955 26.0397 37.2453 25.7885 37.2453 25.4787C37.2453 25.1689 37.4955 24.9177 37.8043 24.9177H38.9547C39.2634 24.9177 39.5137 25.1689 39.5137 25.4787C39.5137 25.7885 39.2634 26.0397 38.9547 26.0397ZM34.9283 26.0397H33.7779C33.4692 26.0397 33.2189 25.7885 33.2189 25.4787C33.2189 25.1689 33.4692 24.9177 33.7779 24.9177H34.9283C35.237 24.9177 35.4873 25.1689 35.4873 25.4787C35.4873 25.7885 35.237 26.0397 34.9283 26.0397ZM30.9019 26.0397H29.7515C29.4428 26.0397 29.1925 25.7885 29.1925 25.4787C29.1925 25.1689 29.4428 24.9177 29.7515 24.9177H30.9019C31.2106 24.9177 31.4609 25.1689 31.4609 25.4787C31.4609 25.7885 31.2106 26.0397 30.9019 26.0397Z" fill="black"/>
<path d="M82.6639 26.611C82.3552 26.611 82.1049 26.3598 82.1049 26.05V26.0397H82.0946C81.7859 26.0397 81.5356 25.7885 81.5356 25.4787C81.5356 25.1689 81.7859 24.9177 82.0946 24.9177H83.2229V26.05C83.2229 26.3598 82.9726 26.611 82.6639 26.611Z" fill="black"/>
<path d="M82.6639 102.428C82.3552 102.428 82.1049 102.177 82.1049 101.867V100.727C82.1049 100.417 82.3552 100.166 82.6639 100.166C82.9726 100.166 83.2229 100.417 83.2229 100.727V101.867C83.2229 102.177 82.9726 102.428 82.6639 102.428ZM82.6639 98.4378C82.3552 98.4378 82.1049 98.1866 82.1049 97.8768V96.7367C82.1049 96.4269 82.3552 96.1757 82.6639 96.1757C82.9726 96.1757 83.2229 96.4269 83.2229 96.7367V97.8768C83.2229 98.1866 82.9726 98.4378 82.6639 98.4378ZM82.6639 94.4474C82.3552 94.4474 82.1049 94.1962 82.1049 93.8864V92.7463C82.1049 92.4365 82.3552 92.1853 82.6639 92.1853C82.9726 92.1853 83.2229 92.4365 83.2229 92.7463V93.8864C83.2229 94.1962 82.9726 94.4474 82.6639 94.4474ZM82.6639 90.457C82.3552 90.457 82.1049 90.2058 82.1049 89.896V88.7559C82.1049 88.4461 82.3552 88.195 82.6639 88.195C82.9726 88.195 83.2229 88.4461 83.2229 88.7559V89.896C83.2229 90.2058 82.9726 90.457 82.6639 90.457ZM82.6639 86.4666C82.3552 86.4666 82.1049 86.2155 82.1049 85.9057V84.7656C82.1049 84.4558 82.3552 84.2046 82.6639 84.2046C82.9726 84.2046 83.2229 84.4558 83.2229 84.7656V85.9057C83.2229 86.2155 82.9726 86.4666 82.6639 86.4666ZM82.6639 82.4763C82.3552 82.4763 82.1049 82.2251 82.1049 81.9153V80.7752C82.1049 80.4654 82.3552 80.2142 82.6639 80.2142C82.9726 80.2142 83.2229 80.4654 83.2229 80.7752V81.9153C83.2229 82.2251 82.9726 82.4763 82.6639 82.4763ZM82.6639 78.4859C82.3552 78.4859 82.1049 78.2347 82.1049 77.9249V76.7848C82.1049 76.475 82.3552 76.2238 82.6639 76.2238C82.9726 76.2238 83.2229 76.475 83.2229 76.7848V77.9249C83.2229 78.2347 82.9726 78.4859 82.6639 78.4859ZM82.6639 74.4955C82.3552 74.4955 82.1049 74.2443 82.1049 73.9345V72.7944C82.1049 72.4846 82.3552 72.2335 82.6639 72.2335C82.9726 72.2335 83.2229 72.4846 83.2229 72.7944V73.9345C83.2229 74.2443 82.9726 74.4955 82.6639 74.4955ZM82.6639 70.5051C82.3552 70.5051 82.1049 70.2539 82.1049 69.9441V68.8041C82.1049 68.4943 82.3552 68.2431 82.6639 68.2431C82.9726 68.2431 83.2229 68.4943 83.2229 68.8041V69.9441C83.2229 70.2539 82.9726 70.5051 82.6639 70.5051ZM82.6639 66.5148C82.3552 66.5148 82.1049 66.2636 82.1049 65.9538V64.8137C82.1049 64.5039 82.3552 64.2527 82.6639 64.2527C82.9726 64.2527 83.2229 64.5039 83.2229 64.8137V65.9538C83.2229 66.2636 82.9726 66.5148 82.6639 66.5148ZM82.6639 62.5244C82.3552 62.5244 82.1049 62.2732 82.1049 61.9634V60.8233C82.1049 60.5135 82.3552 60.2623 82.6639 60.2623C82.9726 60.2623 83.2229 60.5135 83.2229 60.8233V61.9634C83.2229 62.2732 82.9726 62.5244 82.6639 62.5244ZM82.6639 58.534C82.3552 58.534 82.1049 58.2829 82.1049 57.9731V56.8329C82.1049 56.5231 82.3552 56.2719 82.6639 56.2719C82.9726 56.2719 83.2229 56.5231 83.2229 56.8329V57.9731C83.2229 58.2829 82.9726 58.534 82.6639 58.534ZM82.6639 54.5437C82.3552 54.5437 82.1049 54.2925 82.1049 53.9827V52.8426C82.1049 52.5328 82.3552 52.2816 82.6639 52.2816C82.9726 52.2816 83.2229 52.5328 83.2229 52.8426V53.9827C83.2229 54.2925 82.9726 54.5437 82.6639 54.5437ZM82.6639 50.5532C82.3552 50.5532 82.1049 50.3021 82.1049 49.9923V48.8522C82.1049 48.5424 82.3552 48.2912 82.6639 48.2912C82.9726 48.2912 83.2229 48.5424 83.2229 48.8522V49.9923C83.2229 50.3021 82.9726 50.5532 82.6639 50.5532ZM82.6639 46.5629C82.3552 46.5629 82.1049 46.3117 82.1049 46.0019V44.8618C82.1049 44.552 82.3552 44.3009 82.6639 44.3009C82.9726 44.3009 83.2229 44.552 83.2229 44.8618V46.0019C83.2229 46.3117 82.9726 46.5629 82.6639 46.5629ZM82.6639 42.5725C82.3552 42.5725 82.1049 42.3214 82.1049 42.0116V40.8715C82.1049 40.5617 82.3552 40.3105 82.6639 40.3105C82.9726 40.3105 83.2229 40.5617 83.2229 40.8715V42.0116C83.2229 42.3214 82.9726 42.5725 82.6639 42.5725ZM82.6639 38.5822C82.3552 38.5822 82.1049 38.331 82.1049 38.0212V36.8811C82.1049 36.5712 82.3552 36.3201 82.6639 36.3201C82.9726 36.3201 83.2229 36.5712 83.2229 36.8811V38.0212C83.2229 38.331 82.9726 38.5822 82.6639 38.5822ZM82.6639 34.5918C82.3552 34.5918 82.1049 34.3406 82.1049 34.0308V32.8907C82.1049 32.5809 82.3552 32.3297 82.6639 32.3297C82.9726 32.3297 83.2229 32.5809 83.2229 32.8907V34.0308C83.2229 34.3406 82.9726 34.5918 82.6639 34.5918ZM82.6639 30.6014C82.3552 30.6014 82.1049 30.3502 82.1049 30.0404V28.9003C82.1049 28.5905 82.3552 28.3394 82.6639 28.3394C82.9726 28.3394 83.2229 28.5905 83.2229 28.9003V30.0404C83.2229 30.3502 82.9726 30.6014 82.6639 30.6014Z" fill="black"/>
<path d="M158.253 65.9733H157.124C156.816 65.9733 156.565 65.7221 156.565 65.4123C156.565 65.1025 156.816 64.8513 157.124 64.8513H157.135V64.841C157.135 64.5312 157.385 64.28 157.694 64.28C158.002 64.28 158.253 64.5312 158.253 64.841V65.9733Z" fill="black"/>
<path d="M154.276 65.9733H153.136C152.827 65.9733 152.577 65.7221 152.577 65.4123C152.577 65.1025 152.827 64.8513 153.136 64.8513H154.276C154.584 64.8513 154.835 65.1025 154.835 65.4123C154.835 65.7221 154.584 65.9733 154.276 65.9733ZM150.287 65.9733H149.148C148.839 65.9733 148.589 65.7221 148.589 65.4123C148.589 65.1025 148.839 64.8513 149.148 64.8513H150.287C150.596 64.8513 150.846 65.1025 150.846 65.4123C150.846 65.7221 150.596 65.9733 150.287 65.9733ZM146.299 65.9733H145.159C144.851 65.9733 144.6 65.7221 144.6 65.4123C144.6 65.1025 144.851 64.8513 145.159 64.8513H146.299C146.608 64.8513 146.858 65.1025 146.858 65.4123C146.858 65.7221 146.608 65.9733 146.299 65.9733ZM142.311 65.9733H141.171C140.862 65.9733 140.612 65.7221 140.612 65.4123C140.612 65.1025 140.862 64.8513 141.171 64.8513H142.311C142.619 64.8513 142.87 65.1025 142.87 65.4123C142.87 65.7221 142.619 65.9733 142.311 65.9733ZM138.322 65.9733H137.183C136.874 65.9733 136.624 65.7221 136.624 65.4123C136.624 65.1025 136.874 64.8513 137.183 64.8513H138.322C138.631 64.8513 138.881 65.1025 138.881 65.4123C138.881 65.7221 138.631 65.9733 138.322 65.9733ZM134.334 65.9733H133.195C132.886 65.9733 132.636 65.7221 132.636 65.4123C132.636 65.1025 132.886 64.8513 133.195 64.8513H134.334C134.643 64.8513 134.893 65.1025 134.893 65.4123C134.893 65.7221 134.643 65.9733 134.334 65.9733ZM130.346 65.9733H129.206C128.898 65.9733 128.647 65.7221 128.647 65.4123C128.647 65.1025 128.898 64.8513 129.206 64.8513H130.346C130.655 64.8513 130.905 65.1025 130.905 65.4123C130.905 65.7221 130.655 65.9733 130.346 65.9733ZM126.357 65.9733H125.218C124.909 65.9733 124.659 65.7221 124.659 65.4123C124.659 65.1025 124.909 64.8513 125.218 64.8513H126.357C126.666 64.8513 126.917 65.1025 126.917 65.4123C126.917 65.7221 126.666 65.9733 126.357 65.9733ZM122.369 65.9733H121.23C120.921 65.9733 120.671 65.7221 120.671 65.4123C120.671 65.1025 120.921 64.8513 121.23 64.8513H122.369C122.678 64.8513 122.928 65.1025 122.928 65.4123C122.928 65.7221 122.678 65.9733 122.369 65.9733ZM118.381 65.9733H117.241C116.933 65.9733 116.682 65.7221 116.682 65.4123C116.682 65.1025 116.933 64.8513 117.241 64.8513H118.381C118.69 64.8513 118.94 65.1025 118.94 65.4123C118.94 65.7221 118.69 65.9733 118.381 65.9733ZM114.393 65.9733H113.253C112.944 65.9733 112.694 65.7221 112.694 65.4123C112.694 65.1025 112.944 64.8513 113.253 64.8513H114.393C114.701 64.8513 114.952 65.1025 114.952 65.4123C114.952 65.7221 114.701 65.9733 114.393 65.9733ZM110.404 65.9733H109.265C108.956 65.9733 108.706 65.7221 108.706 65.4123C108.706 65.1025 108.956 64.8513 109.265 64.8513H110.404C110.713 64.8513 110.963 65.1025 110.963 65.4123C110.963 65.7221 110.713 65.9733 110.404 65.9733ZM106.416 65.9733H105.277C104.968 65.9733 104.718 65.7221 104.718 65.4123C104.718 65.1025 104.968 64.8513 105.277 64.8513H106.416C106.725 64.8513 106.975 65.1025 106.975 65.4123C106.975 65.7221 106.725 65.9733 106.416 65.9733ZM102.428 65.9733H101.288C100.98 65.9733 100.729 65.7221 100.729 65.4123C100.729 65.1025 100.98 64.8513 101.288 64.8513H102.428C102.736 64.8513 102.987 65.1025 102.987 65.4123C102.987 65.7221 102.736 65.9733 102.428 65.9733ZM98.4395 65.9733H97.3C96.9912 65.9733 96.741 65.7221 96.741 65.4123C96.741 65.1025 96.9912 64.8513 97.3 64.8513H98.4395C98.7482 64.8513 98.9985 65.1025 98.9985 65.4123C98.9985 65.7221 98.7482 65.9733 98.4395 65.9733ZM94.4512 65.9733H93.3117C93.0029 65.9733 92.7527 65.7221 92.7527 65.4123C92.7527 65.1025 93.0029 64.8513 93.3117 64.8513H94.4512C94.7599 64.8513 95.0102 65.1025 95.0102 65.4123C95.0102 65.7221 94.7599 65.9733 94.4512 65.9733Z" fill="black"/>
<path d="M90.4629 65.9733H89.3346V64.841C89.3346 64.5312 89.5849 64.28 89.8936 64.28C90.2024 64.28 90.4526 64.5312 90.4526 64.841V64.8513H90.4629C90.7716 64.8513 91.0219 65.1025 91.0219 65.4123C91.0219 65.7221 90.7716 65.9733 90.4629 65.9733Z" fill="black"/>
<path d="M89.8936 62.5497C89.5849 62.5497 89.3346 62.2985 89.3346 61.9887V60.8478C89.3346 60.538 89.5849 60.2868 89.8936 60.2868C90.2024 60.2868 90.4526 60.538 90.4526 60.8478V61.9887C90.4526 62.2985 90.2024 62.5497 89.8936 62.5497ZM89.8936 58.5565C89.5849 58.5565 89.3346 58.3053 89.3346 57.9955V56.8546C89.3346 56.5448 89.5849 56.2936 89.8936 56.2936C90.2024 56.2936 90.4526 56.5448 90.4526 56.8546V57.9955C90.4526 58.3053 90.2024 58.5565 89.8936 58.5565ZM89.8936 54.5633C89.5849 54.5633 89.3346 54.3121 89.3346 54.0023V52.8614C89.3346 52.5516 89.5849 52.3004 89.8936 52.3004C90.2024 52.3004 90.4526 52.5516 90.4526 52.8614V54.0023C90.4526 54.3121 90.2024 54.5633 89.8936 54.5633ZM89.8936 50.5701C89.5849 50.5701 89.3346 50.3189 89.3346 50.0091V48.8682C89.3346 48.5584 89.5849 48.3072 89.8936 48.3072C90.2024 48.3072 90.4526 48.5584 90.4526 48.8682V50.0091C90.4526 50.3189 90.2024 50.5701 89.8936 50.5701ZM89.8936 46.5769C89.5849 46.5769 89.3346 46.3258 89.3346 46.016V44.8751C89.3346 44.5653 89.5849 44.3141 89.8936 44.3141C90.2024 44.3141 90.4526 44.5652 90.4526 44.8751V46.016C90.4526 46.3258 90.2024 46.5769 89.8936 46.5769ZM89.8936 42.5837C89.5849 42.5837 89.3346 42.3326 89.3346 42.0228V40.8818C89.3346 40.572 89.5849 40.3209 89.8936 40.3209C90.2024 40.3209 90.4526 40.572 90.4526 40.8818V42.0228C90.4526 42.3326 90.2024 42.5837 89.8936 42.5837ZM89.8936 38.5905C89.5849 38.5905 89.3346 38.3394 89.3346 38.0296V36.8887C89.3346 36.5789 89.5849 36.3277 89.8936 36.3277C90.2024 36.3277 90.4526 36.5789 90.4526 36.8887V38.0296C90.4526 38.3394 90.2024 38.5905 89.8936 38.5905ZM89.8936 34.5974C89.5849 34.5974 89.3346 34.3462 89.3346 34.0364V32.8955C89.3346 32.5857 89.5849 32.3345 89.8936 32.3345C90.2024 32.3345 90.4526 32.5857 90.4526 32.8955V34.0364C90.4526 34.3462 90.2024 34.5974 89.8936 34.5974ZM89.8936 30.6042C89.5849 30.6042 89.3346 30.353 89.3346 30.0432V28.9023C89.3346 28.5925 89.5849 28.3413 89.8936 28.3413C90.2024 28.3413 90.4526 28.5925 90.4526 28.9023V30.0432C90.4526 30.353 90.2024 30.6042 89.8936 30.6042Z" fill="black"/>
<path d="M89.8936 26.611C89.5849 26.611 89.3346 26.3598 89.3346 26.05V24.9177H90.4629C90.7716 24.9177 91.0219 25.1689 91.0219 25.4787C91.0219 25.7885 90.7716 26.0397 90.4629 26.0397H90.4526V26.05C90.4526 26.3598 90.2024 26.611 89.8936 26.611Z" fill="black"/>
<path d="M154.276 26.0397H153.136C152.827 26.0397 152.577 25.7885 152.577 25.4787C152.577 25.1689 152.827 24.9177 153.136 24.9177H154.276C154.584 24.9177 154.835 25.1689 154.835 25.4787C154.835 25.7885 154.584 26.0397 154.276 26.0397ZM150.287 26.0397H149.148C148.839 26.0397 148.589 25.7885 148.589 25.4787C148.589 25.1689 148.839 24.9177 149.148 24.9177H150.287C150.596 24.9177 150.846 25.1689 150.846 25.4787C150.846 25.7885 150.596 26.0397 150.287 26.0397ZM146.299 26.0397H145.159C144.851 26.0397 144.6 25.7885 144.6 25.4787C144.6 25.1689 144.851 24.9177 145.159 24.9177H146.299C146.608 24.9177 146.858 25.1689 146.858 25.4787C146.858 25.7885 146.608 26.0397 146.299 26.0397ZM142.311 26.0397H141.171C140.862 26.0397 140.612 25.7885 140.612 25.4787C140.612 25.1689 140.862 24.9177 141.171 24.9177H142.311C142.619 24.9177 142.87 25.1689 142.87 25.4787C142.87 25.7885 142.619 26.0397 142.311 26.0397ZM138.322 26.0397H137.183C136.874 26.0397 136.624 25.7885 136.624 25.4787C136.624 25.1689 136.874 24.9177 137.183 24.9177H138.322C138.631 24.9177 138.881 25.1689 138.881 25.4787C138.881 25.7885 138.631 26.0397 138.322 26.0397ZM134.334 26.0397H133.195C132.886 26.0397 132.636 25.7885 132.636 25.4787C132.636 25.1689 132.886 24.9177 133.195 24.9177H134.334C134.643 24.9177 134.893 25.1689 134.893 25.4787C134.893 25.7885 134.643 26.0397 134.334 26.0397ZM130.346 26.0397H129.206C128.898 26.0397 128.647 25.7885 128.647 25.4787C128.647 25.1689 128.898 24.9177 129.206 24.9177H130.346C130.655 24.9177 130.905 25.1689 130.905 25.4787C130.905 25.7885 130.655 26.0397 130.346 26.0397ZM126.357 26.0397H125.218C124.909 26.0397 124.659 25.7885 124.659 25.4787C124.659 25.1689 124.909 24.9177 125.218 24.9177H126.357C126.666 24.9177 126.917 25.1689 126.917 25.4787C126.917 25.7885 126.666 26.0397 126.357 26.0397ZM122.369 26.0397H121.23C120.921 26.0397 120.671 25.7885 120.671 25.4787C120.671 25.1689 120.921 24.9177 121.23 24.9177H122.369C122.678 24.9177 122.928 25.1689 122.928 25.4787C122.928 25.7885 122.678 26.0397 122.369 26.0397ZM118.381 26.0397H117.241C116.933 26.0397 116.682 25.7885 116.682 25.4787C116.682 25.1689 116.933 24.9177 117.241 24.9177H118.381C118.69 24.9177 118.94 25.1689 118.94 25.4787C118.94 25.7885 118.69 26.0397 118.381 26.0397ZM114.393 26.0397H113.253C112.944 26.0397 112.694 25.7885 112.694 25.4787C112.694 25.1689 112.944 24.9177 113.253 24.9177H114.393C114.701 24.9177 114.952 25.1689 114.952 25.4787C114.952 25.7885 114.701 26.0397 114.393 26.0397ZM110.404 26.0397H109.265C108.956 26.0397 108.706 25.7885 108.706 25.4787C108.706 25.1689 108.956 24.9177 109.265 24.9177H110.404C110.713 24.9177 110.963 25.1689 110.963 25.4787C110.963 25.7885 110.713 26.0397 110.404 26.0397ZM106.416 26.0397H105.277C104.968 26.0397 104.718 25.7885 104.718 25.4787C104.718 25.1689 104.968 24.9177 105.277 24.9177H106.416C106.725 24.9177 106.975 25.1689 106.975 25.4787C106.975 25.7885 106.725 26.0397 106.416 26.0397ZM102.428 26.0397H101.288C100.98 26.0397 100.729 25.7885 100.729 25.4787C100.729 25.1689 100.98 24.9177 101.288 24.9177H102.428C102.736 24.9177 102.987 25.1689 102.987 25.4787C102.987 25.7885 102.736 26.0397 102.428 26.0397ZM98.4395 26.0397H97.3C96.9912 26.0397 96.741 25.7885 96.741 25.4787C96.741 25.1689 96.9912 24.9177 97.3 24.9177H98.4395C98.7482 24.9177 98.9985 25.1689 98.9985 25.4787C98.9985 25.7885 98.7482 26.0397 98.4395 26.0397ZM94.4512 26.0397H93.3117C93.0029 26.0397 92.7527 25.7885 92.7527 25.4787C92.7527 25.1689 93.0029 24.9177 93.3117 24.9177H94.4512C94.7599 24.9177 95.0102 25.1689 95.0102 25.4787C95.0102 25.7885 94.7599 26.0397 94.4512 26.0397Z" fill="black"/>
<path d="M157.694 26.611C157.385 26.611 157.135 26.3598 157.135 26.05V26.0397H157.124C156.816 26.0397 156.565 25.7885 156.565 25.4787C156.565 25.1689 156.816 24.9177 157.124 24.9177H158.253V26.05C158.253 26.3598 158.002 26.611 157.694 26.611Z" fill="black"/>
<path d="M157.694 62.5497C157.385 62.5497 157.135 62.2985 157.135 61.9887V60.8478C157.135 60.538 157.385 60.2868 157.694 60.2868C158.002 60.2868 158.253 60.538 158.253 60.8478V61.9887C158.253 62.2985 158.002 62.5497 157.694 62.5497ZM157.694 58.5565C157.385 58.5565 157.135 58.3053 157.135 57.9955V56.8546C157.135 56.5448 157.385 56.2936 157.694 56.2936C158.002 56.2936 158.253 56.5448 158.253 56.8546V57.9955C158.253 58.3053 158.002 58.5565 157.694 58.5565ZM157.694 54.5633C157.385 54.5633 157.135 54.3121 157.135 54.0023V52.8614C157.135 52.5516 157.385 52.3004 157.694 52.3004C158.002 52.3004 158.253 52.5516 158.253 52.8614V54.0023C158.253 54.3121 158.002 54.5633 157.694 54.5633ZM157.694 50.5701C157.385 50.5701 157.135 50.3189 157.135 50.0091V48.8682C157.135 48.5584 157.385 48.3072 157.694 48.3072C158.002 48.3072 158.253 48.5584 158.253 48.8682V50.0091C158.253 50.3189 158.002 50.5701 157.694 50.5701ZM157.694 46.5769C157.385 46.5769 157.135 46.3257 157.135 46.0159V44.875C157.135 44.5652 157.385 44.314 157.694 44.314C158.002 44.314 158.253 44.5652 158.253 44.875V46.0159C158.253 46.3257 158.002 46.5769 157.694 46.5769ZM157.694 42.5837C157.385 42.5837 157.135 42.3326 157.135 42.0228V40.8818C157.135 40.572 157.385 40.3209 157.694 40.3209C158.002 40.3209 158.253 40.572 158.253 40.8818V42.0228C158.253 42.3326 158.002 42.5837 157.694 42.5837ZM157.694 38.5905C157.385 38.5905 157.135 38.3394 157.135 38.0296V36.8886C157.135 36.5788 157.385 36.3277 157.694 36.3277C158.002 36.3277 158.253 36.5788 158.253 36.8886V38.0296C158.253 38.3394 158.002 38.5905 157.694 38.5905ZM157.694 34.5973C157.385 34.5973 157.135 34.3462 157.135 34.0364V32.8955C157.135 32.5857 157.385 32.3345 157.694 32.3345C158.002 32.3345 158.253 32.5857 158.253 32.8955V34.0364C158.253 34.3462 158.002 34.5973 157.694 34.5973ZM157.694 30.6042C157.385 30.6042 157.135 30.353 157.135 30.0432V28.9023C157.135 28.5925 157.385 28.3413 157.694 28.3413C158.002 28.3413 158.253 28.5925 158.253 28.9023V30.0432C158.253 30.353 158.002 30.6042 157.694 30.6042Z" fill="black"/>
<path d="M158.291 105.888H157.124C156.795 105.888 156.527 105.62 156.527 105.289C156.527 104.967 156.78 104.704 157.097 104.69C157.111 104.372 157.373 104.118 157.694 104.118C158.023 104.118 158.291 104.386 158.291 104.717V105.888Z" fill="black"/>
<path d="M154.276 105.888H153.136C152.806 105.888 152.539 105.62 152.539 105.289C152.539 104.958 152.806 104.689 153.136 104.689H154.276C154.605 104.689 154.873 104.958 154.873 105.289C154.873 105.62 154.605 105.888 154.276 105.888ZM150.287 105.888H149.148C148.818 105.888 148.551 105.62 148.551 105.289C148.551 104.958 148.818 104.689 149.148 104.689H150.287C150.617 104.689 150.884 104.958 150.884 105.289C150.884 105.62 150.617 105.888 150.287 105.888ZM146.299 105.888H145.159C144.83 105.888 144.562 105.62 144.562 105.289C144.562 104.958 144.83 104.689 145.159 104.689H146.299C146.629 104.689 146.896 104.958 146.896 105.289C146.896 105.62 146.629 105.888 146.299 105.888ZM142.311 105.888H141.171C140.841 105.888 140.574 105.62 140.574 105.289C140.574 104.958 140.841 104.689 141.171 104.689H142.311C142.64 104.689 142.908 104.958 142.908 105.289C142.908 105.62 142.64 105.888 142.311 105.888ZM138.322 105.888H137.183C136.853 105.888 136.586 105.62 136.586 105.289C136.586 104.958 136.853 104.689 137.183 104.689H138.322C138.652 104.689 138.92 104.958 138.92 105.289C138.92 105.62 138.652 105.888 138.322 105.888ZM134.334 105.888H133.195C132.865 105.888 132.597 105.62 132.597 105.289C132.597 104.958 132.865 104.689 133.195 104.689H134.334C134.664 104.689 134.931 104.958 134.931 105.289C134.931 105.62 134.664 105.888 134.334 105.888ZM130.346 105.888H129.206C128.876 105.888 128.609 105.62 128.609 105.289C128.609 104.958 128.876 104.689 129.206 104.689H130.346C130.676 104.689 130.943 104.958 130.943 105.289C130.943 105.62 130.676 105.888 130.346 105.888ZM126.357 105.888H125.218C124.888 105.888 124.621 105.62 124.621 105.289C124.621 104.958 124.888 104.689 125.218 104.689H126.357C126.687 104.689 126.955 104.958 126.955 105.289C126.955 105.62 126.687 105.888 126.357 105.888ZM122.369 105.888H121.23C120.9 105.888 120.633 105.62 120.633 105.289C120.633 104.958 120.9 104.689 121.23 104.689H122.369C122.699 104.689 122.966 104.958 122.966 105.289C122.966 105.62 122.699 105.888 122.369 105.888ZM118.381 105.888H117.241C116.912 105.888 116.644 105.62 116.644 105.289C116.644 104.958 116.912 104.689 117.241 104.689H118.381C118.711 104.689 118.978 104.958 118.978 105.289C118.978 105.62 118.711 105.888 118.381 105.888ZM114.393 105.888H113.253C112.923 105.888 112.656 105.62 112.656 105.289C112.656 104.958 112.923 104.689 113.253 104.689H114.393C114.722 104.689 114.99 104.958 114.99 105.289C114.99 105.62 114.722 105.888 114.393 105.888ZM110.404 105.888H109.265C108.935 105.888 108.668 105.62 108.668 105.289C108.668 104.958 108.935 104.689 109.265 104.689H110.404C110.734 104.689 111.002 104.958 111.002 105.289C111.002 105.62 110.734 105.888 110.404 105.888ZM106.416 105.888H105.277C104.947 105.888 104.679 105.62 104.679 105.289C104.679 104.958 104.947 104.689 105.277 104.689H106.416C106.746 104.689 107.013 104.958 107.013 105.289C107.013 105.62 106.746 105.888 106.416 105.888ZM102.428 105.888H101.288C100.958 105.888 100.691 105.62 100.691 105.289C100.691 104.958 100.958 104.689 101.288 104.689H102.428C102.758 104.689 103.025 104.958 103.025 105.289C103.025 105.62 102.758 105.888 102.428 105.888ZM98.4395 105.888H97.3C96.9702 105.888 96.7028 105.62 96.7028 105.289C96.7028 104.958 96.9702 104.689 97.3 104.689H98.4395C98.7693 104.689 99.0367 104.958 99.0367 105.289C99.0367 105.62 98.7693 105.888 98.4395 105.888ZM94.4512 105.888H93.3117C92.9819 105.888 92.7145 105.62 92.7145 105.289C92.7145 104.958 92.9819 104.689 93.3117 104.689H94.4512C94.781 104.689 95.0483 104.958 95.0483 105.289C95.0483 105.62 94.781 105.888 94.4512 105.888Z" fill="black"/>
<path d="M90.4629 105.888H89.2964V104.717C89.2964 104.386 89.5638 104.118 89.8936 104.118C90.2143 104.118 90.4759 104.372 90.4902 104.69C90.8073 104.704 91.06 104.967 91.06 105.289C91.06 105.62 90.7927 105.888 90.4629 105.888Z" fill="black"/>
<path d="M89.8936 102.544C89.5638 102.544 89.2964 102.276 89.2964 101.945V100.836C89.2964 100.505 89.5638 100.237 89.8936 100.237C90.2234 100.237 90.4908 100.505 90.4908 100.836V101.945C90.4908 102.276 90.2234 102.544 89.8936 102.544ZM89.8936 98.6634C89.5638 98.6634 89.2964 98.3951 89.2964 98.0641V96.9552C89.2964 96.6242 89.5638 96.3559 89.8936 96.3559C90.2234 96.3559 90.4908 96.6242 90.4908 96.9552V98.0641C90.4908 98.3951 90.2234 98.6634 89.8936 98.6634ZM89.8936 94.7824C89.5638 94.7824 89.2964 94.5141 89.2964 94.1831V93.0742C89.2964 92.7432 89.5638 92.4749 89.8936 92.4749C90.2234 92.4749 90.4908 92.7432 90.4908 93.0742V94.1831C90.4908 94.5141 90.2234 94.7824 89.8936 94.7824ZM89.8936 90.9013C89.5638 90.9013 89.2964 90.633 89.2964 90.302V89.1932C89.2964 88.8622 89.5638 88.5939 89.8936 88.5939C90.2234 88.5939 90.4908 88.8622 90.4908 89.1932V90.302C90.4908 90.633 90.2234 90.9013 89.8936 90.9013ZM89.8936 87.0203C89.5638 87.0203 89.2964 86.752 89.2964 86.421V85.3121C89.2964 84.9811 89.5638 84.7128 89.8936 84.7128C90.2234 84.7128 90.4908 84.9811 90.4908 85.3121V86.421C90.4908 86.752 90.2234 87.0203 89.8936 87.0203ZM89.8936 83.1392C89.5638 83.1392 89.2964 82.8709 89.2964 82.5399V81.431C89.2964 81.1 89.5638 80.8317 89.8936 80.8317C90.2234 80.8317 90.4908 81.1 90.4908 81.431V82.5399C90.4908 82.8709 90.2234 83.1392 89.8936 83.1392ZM89.8936 79.2581C89.5638 79.2581 89.2964 78.9898 89.2964 78.6588V77.5499C89.2964 77.2189 89.5638 76.9506 89.8936 76.9506C90.2234 76.9506 90.4908 77.2189 90.4908 77.5499V78.6588C90.4908 78.9898 90.2234 79.2581 89.8936 79.2581ZM89.8936 75.3771C89.5638 75.3771 89.2964 75.1088 89.2964 74.7778V73.6689C89.2964 73.3379 89.5638 73.0696 89.8936 73.0696C90.2234 73.0696 90.4908 73.3379 90.4908 73.6689V74.7778C90.4908 75.1088 90.2234 75.3771 89.8936 75.3771Z" fill="black"/>
<path d="M89.8936 71.496C89.5638 71.496 89.2964 71.2277 89.2964 70.8967V69.7261H90.4629C90.7927 69.7261 91.06 69.9944 91.06 70.3254C91.06 70.6472 90.8073 70.9098 90.4902 70.9241C90.4759 71.2423 90.2143 71.496 89.8936 71.496Z" fill="black"/>
<path d="M154.276 70.9247H153.136C152.806 70.9247 152.539 70.6564 152.539 70.3254C152.539 69.9944 152.806 69.7261 153.136 69.7261H154.276C154.605 69.7261 154.873 69.9944 154.873 70.3254C154.873 70.6564 154.605 70.9247 154.276 70.9247ZM150.287 70.9247H149.148C148.818 70.9247 148.551 70.6564 148.551 70.3254C148.551 69.9944 148.818 69.7261 149.148 69.7261H150.287C150.617 69.7261 150.884 69.9944 150.884 70.3254C150.884 70.6564 150.617 70.9247 150.287 70.9247ZM146.299 70.9247H145.159C144.83 70.9247 144.562 70.6564 144.562 70.3254C144.562 69.9944 144.83 69.7261 145.159 69.7261H146.299C146.629 69.7261 146.896 69.9944 146.896 70.3254C146.896 70.6564 146.629 70.9247 146.299 70.9247ZM142.311 70.9247H141.171C140.841 70.9247 140.574 70.6564 140.574 70.3254C140.574 69.9944 140.841 69.7261 141.171 69.7261H142.311C142.64 69.7261 142.908 69.9944 142.908 70.3254C142.908 70.6564 142.64 70.9247 142.311 70.9247ZM138.322 70.9247H137.183C136.853 70.9247 136.586 70.6564 136.586 70.3254C136.586 69.9944 136.853 69.7261 137.183 69.7261H138.322C138.652 69.7261 138.92 69.9944 138.92 70.3254C138.92 70.6564 138.652 70.9247 138.322 70.9247ZM134.334 70.9247H133.195C132.865 70.9247 132.597 70.6564 132.597 70.3254C132.597 69.9944 132.865 69.7261 133.195 69.7261H134.334C134.664 69.7261 134.931 69.9944 134.931 70.3254C134.931 70.6564 134.664 70.9247 134.334 70.9247ZM130.346 70.9247H129.206C128.876 70.9247 128.609 70.6564 128.609 70.3254C128.609 69.9944 128.876 69.7261 129.206 69.7261H130.346C130.676 69.7261 130.943 69.9944 130.943 70.3254C130.943 70.6564 130.676 70.9247 130.346 70.9247ZM126.357 70.9247H125.218C124.888 70.9247 124.621 70.6564 124.621 70.3254C124.621 69.9944 124.888 69.7261 125.218 69.7261H126.357C126.687 69.7261 126.955 69.9944 126.955 70.3254C126.955 70.6564 126.687 70.9247 126.357 70.9247ZM122.369 70.9247H121.23C120.9 70.9247 120.633 70.6564 120.633 70.3254C120.633 69.9944 120.9 69.7261 121.23 69.7261H122.369C122.699 69.7261 122.966 69.9944 122.966 70.3254C122.966 70.6564 122.699 70.9247 122.369 70.9247ZM118.381 70.9247H117.241C116.912 70.9247 116.644 70.6564 116.644 70.3254C116.644 69.9944 116.912 69.7261 117.241 69.7261H118.381C118.711 69.7261 118.978 69.9944 118.978 70.3254C118.978 70.6564 118.711 70.9247 118.381 70.9247ZM114.393 70.9247H113.253C112.923 70.9247 112.656 70.6564 112.656 70.3254C112.656 69.9944 112.923 69.7261 113.253 69.7261H114.393C114.722 69.7261 114.99 69.9944 114.99 70.3254C114.99 70.6564 114.722 70.9247 114.393 70.9247ZM110.404 70.9247H109.265C108.935 70.9247 108.668 70.6564 108.668 70.3254C108.668 69.9944 108.935 69.7261 109.265 69.7261H110.404C110.734 69.7261 111.002 69.9944 111.002 70.3254C111.002 70.6564 110.734 70.9247 110.404 70.9247ZM106.416 70.9247H105.277C104.947 70.9247 104.679 70.6564 104.679 70.3254C104.679 69.9944 104.947 69.7261 105.277 69.7261H106.416C106.746 69.7261 107.013 69.9944 107.013 70.3254C107.013 70.6564 106.746 70.9247 106.416 70.9247ZM102.428 70.9247H101.288C100.958 70.9247 100.691 70.6564 100.691 70.3254C100.691 69.9944 100.958 69.7261 101.288 69.7261H102.428C102.758 69.7261 103.025 69.9944 103.025 70.3254C103.025 70.6564 102.758 70.9247 102.428 70.9247ZM98.4395 70.9247H97.3C96.9702 70.9247 96.7028 70.6564 96.7028 70.3254C96.7028 69.9944 96.9702 69.7261 97.3 69.7261H98.4395C98.7693 69.7261 99.0367 69.9944 99.0367 70.3254C99.0367 70.6564 98.7693 70.9247 98.4395 70.9247ZM94.4512 70.9247H93.3117C92.9819 70.9247 92.7145 70.6564 92.7145 70.3254C92.7145 69.9944 92.9819 69.7261 93.3117 69.7261H94.4512C94.781 69.7261 95.0483 69.9944 95.0483 70.3254C95.0483 70.6564 94.781 70.9247 94.4512 70.9247Z" fill="black"/>
<path d="M157.694 71.496C157.373 71.496 157.111 71.2423 157.097 70.9241C156.78 70.9098 156.527 70.6472 156.527 70.3254C156.527 69.9944 156.795 69.7261 157.124 69.7261H158.291V70.8967C158.291 71.2277 158.023 71.496 157.694 71.496Z" fill="black"/>
<path d="M157.694 102.544C157.364 102.544 157.096 102.276 157.096 101.945V100.836C157.096 100.505 157.364 100.237 157.694 100.237C158.023 100.237 158.291 100.505 158.291 100.836V101.945C158.291 102.276 158.023 102.544 157.694 102.544ZM157.694 98.6634C157.364 98.6634 157.096 98.3951 157.096 98.0641V96.9552C157.096 96.6242 157.364 96.3559 157.694 96.3559C158.023 96.3559 158.291 96.6242 158.291 96.9552V98.0641C158.291 98.3951 158.023 98.6634 157.694 98.6634ZM157.694 94.7824C157.364 94.7824 157.096 94.5141 157.096 94.1831V93.0742C157.096 92.7432 157.364 92.4749 157.694 92.4749C158.023 92.4749 158.291 92.7432 158.291 93.0742V94.1831C158.291 94.5141 158.023 94.7824 157.694 94.7824ZM157.694 90.9013C157.364 90.9013 157.096 90.633 157.096 90.302V89.1931C157.096 88.8621 157.364 88.5938 157.694 88.5938C158.023 88.5938 158.291 88.8621 158.291 89.1931V90.302C158.291 90.633 158.023 90.9013 157.694 90.9013ZM157.694 87.0202C157.364 87.0202 157.096 86.7519 157.096 86.4209V85.3121C157.096 84.9811 157.364 84.7128 157.694 84.7128C158.023 84.7128 158.291 84.9811 158.291 85.3121V86.4209C158.291 86.7519 158.023 87.0202 157.694 87.0202ZM157.694 83.1392C157.364 83.1392 157.096 82.8709 157.096 82.5399V81.431C157.096 81.1 157.364 80.8317 157.694 80.8317C158.023 80.8317 158.291 81.1 158.291 81.431V82.5399C158.291 82.8709 158.023 83.1392 157.694 83.1392ZM157.694 79.2581C157.364 79.2581 157.096 78.9898 157.096 78.6588V77.5499C157.096 77.2189 157.364 76.9506 157.694 76.9506C158.023 76.9506 158.291 77.2189 158.291 77.5499V78.6588C158.291 78.9898 158.023 79.2581 157.694 79.2581ZM157.694 75.3771C157.364 75.3771 157.096 75.1088 157.096 74.7778V73.6689C157.096 73.3379 157.364 73.0696 157.694 73.0696C158.023 73.0696 158.291 73.3379 158.291 73.6689V74.7778C158.291 75.1088 158.023 75.3771 157.694 75.3771Z" fill="black"/>
<path d="M89.8941 105.85C89.6912 105.85 89.4955 105.739 89.3964 105.545C89.2553 105.269 89.3636 104.931 89.6382 104.79L90.6508 104.267C90.9255 104.126 91.2624 104.234 91.4035 104.51C91.5446 104.786 91.4364 105.124 91.1618 105.265L90.1491 105.788C90.0673 105.83 89.9801 105.85 89.8941 105.85ZM93.4384 104.022C93.2356 104.022 93.0399 103.911 92.9408 103.717C92.7997 103.442 92.9079 103.104 93.1825 102.962L94.1951 102.44C94.4696 102.298 94.8067 102.407 94.9478 102.682C95.0889 102.958 94.9807 103.296 94.7061 103.438L93.6934 103.96C93.6117 104.002 93.5244 104.022 93.4384 104.022ZM96.9828 102.194C96.7799 102.194 96.5842 102.083 96.4851 101.889C96.344 101.614 96.4522 101.276 96.7268 101.134L97.7395 100.612C98.0141 100.47 98.351 100.579 98.4921 100.855C98.6332 101.13 98.525 101.468 98.2504 101.61L97.2378 102.132C97.156 102.174 97.0687 102.194 96.9828 102.194ZM100.527 100.366C100.324 100.366 100.129 100.255 100.029 100.062C99.8883 99.7861 99.9965 99.448 100.271 99.3064L101.284 98.7842C101.558 98.6425 101.895 98.7511 102.036 99.0268C102.178 99.3023 102.069 99.6405 101.795 99.7821L100.782 100.304C100.7 100.346 100.613 100.366 100.527 100.366ZM104.071 98.5387C103.869 98.5387 103.673 98.4275 103.574 98.234C103.433 97.9584 103.541 97.6203 103.815 97.4786L104.828 96.9565C105.103 96.8148 105.44 96.9234 105.581 97.199C105.722 97.4746 105.614 97.8127 105.339 97.9543L104.326 98.4766C104.245 98.5187 104.157 98.5387 104.071 98.5387ZM107.616 96.7109C107.413 96.7109 107.217 96.5998 107.118 96.4062C106.977 96.1306 107.085 95.7924 107.36 95.6508L108.372 95.1286C108.647 94.9872 108.984 95.0957 109.125 95.3713C109.266 95.6468 109.158 95.985 108.883 96.1266L107.871 96.6488C107.789 96.6909 107.702 96.7109 107.616 96.7109ZM111.16 94.8832C110.957 94.8832 110.762 94.772 110.662 94.5784C110.521 94.3029 110.63 93.9647 110.904 93.8231L111.917 93.3009C112.191 93.1592 112.528 93.2679 112.669 93.5435C112.811 93.8191 112.702 94.1573 112.428 94.2989L111.415 94.8211C111.333 94.8632 111.246 94.8832 111.16 94.8832ZM114.704 93.0554C114.502 93.0554 114.306 92.9443 114.207 92.7507C114.066 92.4751 114.174 92.137 114.448 91.9954L115.461 91.4731C115.736 91.3317 116.073 91.4402 116.214 91.7157C116.355 91.9913 116.247 92.3295 115.972 92.4711L114.959 92.9933C114.878 93.0354 114.79 93.0554 114.704 93.0554ZM118.249 91.2277C118.046 91.2277 117.85 91.1166 117.751 90.923C117.61 90.6475 117.718 90.3093 117.993 90.1677L119.005 89.6454C119.28 89.5038 119.617 89.6123 119.758 89.888C119.899 90.1635 119.791 90.5017 119.516 90.6433L118.504 91.1656C118.422 91.2077 118.335 91.2277 118.249 91.2277ZM121.793 89.4C121.59 89.4 121.395 89.2888 121.295 89.0953C121.154 88.8197 121.263 88.4815 121.537 88.3399L122.55 87.8177C122.824 87.6761 123.161 87.7847 123.302 88.0602C123.444 88.3358 123.335 88.674 123.061 88.8155L122.048 89.3378C121.966 89.38 121.879 89.4 121.793 89.4ZM125.337 87.5722C125.135 87.5722 124.939 87.4611 124.84 87.2675C124.699 86.992 124.807 86.6538 125.081 86.5122L126.094 85.9899C126.369 85.8483 126.706 85.9569 126.847 86.2325C126.988 86.508 126.88 86.8462 126.605 86.9878L125.592 87.5101C125.511 87.5522 125.423 87.5722 125.337 87.5722ZM128.882 85.7444C128.679 85.7444 128.483 85.6333 128.384 85.4398C128.243 85.1642 128.351 84.826 128.626 84.6844L129.638 84.1622C129.913 84.0207 130.25 84.1291 130.391 84.4048C130.532 84.6804 130.424 85.0185 130.149 85.1602L129.137 85.6824C129.055 85.7245 128.968 85.7444 128.882 85.7444ZM132.426 83.9167C132.223 83.9167 132.028 83.8056 131.928 83.612C131.787 83.3364 131.896 82.9982 132.17 82.8566L133.183 82.3345C133.457 82.1928 133.794 82.3014 133.935 82.577C134.077 82.8526 133.968 83.1908 133.694 83.3324L132.681 83.8546C132.599 83.8967 132.512 83.9167 132.426 83.9167ZM135.97 82.0889C135.768 82.0889 135.572 81.9778 135.473 81.7842C135.332 81.5087 135.44 81.1705 135.714 81.0289L136.727 80.5067C137.002 80.3652 137.339 80.4737 137.48 80.7493C137.621 81.0249 137.513 81.363 137.238 81.5046L136.225 82.0268C136.144 82.069 136.056 82.0889 135.97 82.0889ZM139.515 80.2612C139.312 80.2612 139.116 80.1501 139.017 79.9565C138.876 79.6809 138.984 79.3428 139.259 79.2011L140.271 78.679C140.546 78.5373 140.883 78.6459 141.024 78.9215C141.165 79.1971 141.057 79.5352 140.782 79.6769L139.77 80.199C139.688 80.2412 139.601 80.2612 139.515 80.2612ZM143.059 78.4334C142.856 78.4334 142.66 78.3223 142.561 78.1287C142.42 77.8531 142.529 77.515 142.803 77.3734L143.816 76.8512C144.09 76.7097 144.427 76.8181 144.568 77.0937C144.71 77.3693 144.601 77.7075 144.327 77.8491L143.314 78.3713C143.232 78.4135 143.145 78.4334 143.059 78.4334ZM146.603 76.6057C146.401 76.6057 146.205 76.4945 146.106 76.301C145.965 76.0254 146.073 75.6872 146.347 75.5456L147.36 75.0234C147.635 74.8819 147.972 74.9904 148.113 75.266C148.254 75.5416 148.146 75.8797 147.871 76.0214L146.858 76.5436C146.777 76.5857 146.689 76.6057 146.603 76.6057ZM150.148 74.7779C149.945 74.7779 149.749 74.6668 149.65 74.4733C149.509 74.1976 149.617 73.8595 149.892 73.7178L150.904 73.1957C151.179 73.0541 151.516 73.1626 151.657 73.4382C151.798 73.7138 151.69 74.052 151.415 74.1936L150.403 74.7158C150.321 74.758 150.234 74.7779 150.148 74.7779ZM153.692 72.9502C153.489 72.9502 153.293 72.839 153.194 72.6455C153.053 72.3699 153.162 72.0317 153.436 71.8901L154.449 71.3679C154.723 71.2265 155.06 71.3349 155.201 71.6105C155.343 71.8861 155.234 72.2242 154.96 72.3658L153.947 72.8881C153.865 72.9302 153.778 72.9502 153.692 72.9502ZM157.236 71.1224C157.034 71.1224 156.838 71.0112 156.739 70.8177C156.598 70.5421 156.706 70.2039 156.98 70.0623L157.438 69.8263C157.713 69.6849 158.05 69.7935 158.191 70.069C158.332 70.3445 158.224 70.6827 157.949 70.8243L157.491 71.0603C157.41 71.1024 157.322 71.1224 157.236 71.1224Z" fill="black"/>
<path d="M157.693 105.85C157.607 105.85 157.52 105.83 157.438 105.788L156.98 105.552C156.706 105.41 156.598 105.072 156.739 104.796C156.88 104.521 157.217 104.412 157.491 104.554L157.949 104.79C158.224 104.931 158.332 105.269 158.191 105.545C158.092 105.738 157.896 105.85 157.693 105.85ZM154.704 104.308C154.618 104.308 154.531 104.288 154.449 104.246L153.436 103.724C153.162 103.582 153.053 103.244 153.194 102.968C153.335 102.693 153.673 102.584 153.947 102.726L154.96 103.248C155.234 103.39 155.343 103.728 155.201 104.003C155.102 104.197 154.907 104.308 154.704 104.308ZM151.16 102.48C151.074 102.48 150.986 102.46 150.904 102.418L149.892 101.896C149.617 101.754 149.509 101.416 149.65 101.141C149.791 100.865 150.128 100.757 150.403 100.898L151.415 101.42C151.69 101.562 151.798 101.9 151.657 102.176C151.558 102.369 151.362 102.48 151.16 102.48ZM147.615 100.653C147.529 100.653 147.442 100.633 147.36 100.591L146.347 100.068C146.073 99.9267 145.965 99.5885 146.106 99.3129C146.247 99.0374 146.584 98.9289 146.858 99.0704L147.871 99.5926C148.146 99.7342 148.254 100.072 148.113 100.348C148.014 100.541 147.818 100.653 147.615 100.653ZM144.071 98.8249C143.985 98.8249 143.898 98.8049 143.816 98.7628L142.803 98.2405C142.529 98.0989 142.42 97.7608 142.561 97.4853C142.702 97.2096 143.04 97.1012 143.314 97.2426L144.327 97.7649C144.601 97.9064 144.71 98.2446 144.568 98.5202C144.469 98.7137 144.274 98.8249 144.071 98.8249ZM140.527 96.9971C140.441 96.9971 140.353 96.9772 140.271 96.935L139.259 96.4128C138.984 96.2712 138.876 95.933 139.017 95.6574C139.158 95.3819 139.495 95.2733 139.77 95.4149L140.782 95.9371C141.057 96.0787 141.165 96.4169 141.024 96.6925C140.925 96.8859 140.729 96.9971 140.527 96.9971ZM136.982 95.1694C136.896 95.1694 136.809 95.1494 136.727 95.1073L135.714 94.585C135.44 94.4434 135.332 94.1053 135.473 93.8297C135.614 93.5541 135.951 93.4456 136.225 93.5871L137.238 94.1094C137.513 94.251 137.621 94.5891 137.48 94.8646C137.381 95.0582 137.185 95.1694 136.982 95.1694ZM133.438 93.3416C133.352 93.3416 133.265 93.3217 133.183 93.2795L132.17 92.7573C131.896 92.6157 131.787 92.2775 131.928 92.002C132.07 91.7264 132.407 91.6179 132.681 91.7594L133.694 92.2815C133.968 92.4231 134.077 92.7613 133.935 93.037C133.836 93.2304 133.641 93.3416 133.438 93.3416ZM129.894 91.5139C129.808 91.5139 129.72 91.4939 129.638 91.4518L128.626 90.9296C128.351 90.788 128.243 90.4498 128.384 90.1742C128.525 89.8987 128.862 89.7902 129.137 89.9316L130.149 90.4538C130.424 90.5954 130.532 90.9336 130.391 91.2092C130.292 91.4027 130.096 91.5139 129.894 91.5139ZM126.349 89.6862C126.263 89.6862 126.176 89.6662 126.094 89.624L125.081 89.1018C124.807 88.9602 124.699 88.622 124.84 88.3464C124.981 88.0709 125.318 87.9624 125.592 88.1039L126.605 88.6262C126.88 88.7677 126.988 89.1059 126.847 89.3815C126.748 89.575 126.552 89.6862 126.349 89.6862ZM122.805 87.8584C122.719 87.8584 122.632 87.8385 122.55 87.7963L121.537 87.274C121.263 87.1324 121.154 86.7942 121.295 86.5187C121.437 86.2431 121.774 86.1346 122.048 86.2761L123.061 86.7984C123.335 86.94 123.444 87.2782 123.302 87.5537C123.203 87.7473 123.008 87.8584 122.805 87.8584ZM119.261 86.0307C119.174 86.0307 119.087 86.0107 119.005 85.9685L117.993 85.4463C117.718 85.3047 117.61 84.9665 117.751 84.6909C117.892 84.4154 118.229 84.3067 118.504 84.4484L119.516 84.9706C119.791 85.1122 119.899 85.4504 119.758 85.726C119.659 85.9195 119.463 86.0307 119.261 86.0307ZM115.716 84.2029C115.63 84.2029 115.543 84.1829 115.461 84.1408L114.448 83.6186C114.174 83.477 114.066 83.1388 114.207 82.8632C114.348 82.5877 114.685 82.479 114.959 82.6207L115.972 83.1429C116.247 83.2845 116.355 83.6226 116.214 83.8982C116.115 84.0917 115.919 84.2029 115.716 84.2029ZM112.172 82.3752C112.086 82.3752 111.999 82.3552 111.917 82.313L110.904 81.7909C110.63 81.6493 110.521 81.3111 110.662 81.0355C110.804 80.7599 111.141 80.6514 111.415 80.7929L112.428 81.3151C112.702 81.4567 112.811 81.7949 112.669 82.0705C112.57 82.264 112.375 82.3752 112.172 82.3752ZM108.627 80.5474C108.541 80.5474 108.454 80.5274 108.372 80.4853L107.36 79.9631C107.085 79.8215 106.977 79.4833 107.118 79.2077C107.259 78.9322 107.596 78.8236 107.871 78.9651L108.883 79.4873C109.158 79.629 109.266 79.9671 109.125 80.2427C109.026 80.4362 108.83 80.5474 108.627 80.5474ZM105.083 78.7197C104.997 78.7197 104.91 78.6997 104.828 78.6575L103.815 78.1354C103.541 77.9937 103.433 77.6556 103.574 77.38C103.715 77.1045 104.052 76.9959 104.326 77.1374L105.339 77.6596C105.614 77.8012 105.722 78.1394 105.581 78.415C105.482 78.6085 105.286 78.7197 105.083 78.7197ZM101.539 76.8919C101.453 76.8919 101.366 76.8719 101.284 76.8298L100.271 76.3076C99.9965 76.166 99.8883 75.8278 100.029 75.5522C100.171 75.2766 100.508 75.1681 100.782 75.3097L101.795 75.8318C102.069 75.9734 102.178 76.3116 102.036 76.5872C101.937 76.7807 101.742 76.8919 101.539 76.8919ZM97.9945 75.0641C97.9085 75.0641 97.8212 75.0442 97.7395 75.002L96.7268 74.4798C96.4522 74.3382 96.344 74 96.4851 73.7245C96.6262 73.4489 96.9631 73.3403 97.2378 73.4819L98.2504 74.0041C98.525 74.1457 98.6332 74.4839 98.4921 74.7594C98.3931 74.953 98.1973 75.0641 97.9945 75.0641ZM94.4502 73.2364C94.3642 73.2364 94.2769 73.2164 94.1951 73.1742L93.1825 72.6521C92.9079 72.5104 92.7997 72.1723 92.9408 71.8967C93.0819 71.6212 93.4189 71.5127 93.6934 71.6541L94.7061 72.1764C94.9807 72.318 95.0889 72.6561 94.9478 72.9317C94.8487 73.1252 94.653 73.2364 94.4502 73.2364ZM90.9058 71.4086C90.8199 71.4086 90.7326 71.3887 90.6508 71.3465L89.6382 70.8243C89.3636 70.6827 89.2553 70.3445 89.3964 70.0689C89.5376 69.7934 89.8746 69.6849 90.1491 69.8264L91.1618 70.3486C91.4364 70.4902 91.5446 70.8284 91.4035 71.1039C91.3044 71.2974 91.1087 71.4086 90.9058 71.4086Z" fill="black"/>
<path d="M89.8941 65.9733C89.7023 65.9733 89.5156 65.8742 89.4115 65.6962C89.2552 65.429 89.3444 65.0852 89.6107 64.9284L90.5926 64.3501C90.8588 64.1933 91.2014 64.2827 91.3576 64.5499C91.5139 64.8172 91.4247 65.1609 91.1585 65.3177L90.1766 65.896C90.0877 65.9484 89.9903 65.9733 89.8941 65.9733ZM93.3309 63.9491C93.1391 63.9491 92.9523 63.85 92.8482 63.6719C92.692 63.4048 92.7811 63.061 93.0474 62.9042L94.0293 62.3259C94.2955 62.1691 94.6381 62.2585 94.7943 62.5257C94.9506 62.793 94.8614 63.1367 94.5952 63.2935L93.6133 63.8718C93.5244 63.9242 93.427 63.9491 93.3309 63.9491ZM96.7676 61.9249C96.5758 61.9249 96.389 61.8258 96.2849 61.6478C96.1287 61.3806 96.2178 61.0368 96.4841 60.88L97.466 60.3017C97.7323 60.145 98.0748 60.2344 98.2311 60.5015C98.3873 60.7688 98.2982 61.1125 98.0319 61.2693L97.05 61.8477C96.9611 61.9 96.8637 61.9249 96.7676 61.9249ZM100.204 59.9007C100.012 59.9007 99.8257 59.8016 99.7216 59.6236C99.5654 59.3564 99.6546 59.0127 99.9208 58.8558L100.903 58.2775C101.169 58.1207 101.511 58.2102 101.668 58.4774C101.824 58.7446 101.735 59.0883 101.469 59.2451L100.487 59.8234C100.398 59.8758 100.3 59.9007 100.204 59.9007ZM103.641 57.8765C103.449 57.8765 103.262 57.7774 103.158 57.5994C103.002 57.3322 103.091 56.9885 103.358 56.8316L104.339 56.2533C104.606 56.0965 104.948 56.186 105.104 56.4532C105.261 56.7204 105.172 57.0641 104.905 57.2209L103.923 57.7993C103.835 57.8516 103.737 57.8765 103.641 57.8765ZM107.078 55.8523C106.886 55.8523 106.699 55.7532 106.595 55.5752C106.439 55.308 106.528 54.9643 106.794 54.8074L107.776 54.2291C108.042 54.0724 108.385 54.1618 108.541 54.429C108.697 54.6962 108.608 55.0399 108.342 55.1967L107.36 55.7751C107.271 55.8274 107.174 55.8523 107.078 55.8523ZM110.514 53.8281C110.323 53.8281 110.136 53.729 110.032 53.551C109.876 53.2838 109.965 52.9401 110.231 52.7832L111.213 52.2049C111.479 52.0481 111.822 52.1376 111.978 52.4048C112.134 52.672 112.045 53.0157 111.779 53.1726L110.797 53.7509C110.708 53.8032 110.61 53.8281 110.514 53.8281ZM113.951 51.8039C113.759 51.8039 113.573 51.7048 113.468 51.5268C113.312 51.2596 113.401 50.9159 113.668 50.759L114.65 50.1807C114.916 50.0239 115.258 50.1134 115.415 50.3806C115.571 50.6478 115.482 50.9915 115.215 51.1484L114.234 51.7267C114.145 51.779 114.047 51.8039 113.951 51.8039ZM117.388 49.7798C117.196 49.7798 117.009 49.6806 116.905 49.5026C116.749 49.2354 116.838 48.8917 117.104 48.7349L118.086 48.1565C118.353 47.9998 118.695 48.0892 118.851 48.3564C119.008 48.6236 118.918 48.9673 118.652 49.1242L117.67 49.7025C117.581 49.7548 117.484 49.7798 117.388 49.7798ZM120.825 47.7556C120.633 47.7556 120.446 47.6565 120.342 47.4785C120.186 47.2113 120.275 46.8675 120.541 46.7107L121.523 46.1323C121.789 45.9756 122.132 46.065 122.288 46.3322C122.444 46.5994 122.355 46.9431 122.089 47.1L121.107 47.6784C121.018 47.7307 120.921 47.7556 120.825 47.7556ZM124.261 45.7314C124.069 45.7314 123.883 45.6323 123.779 45.4543C123.622 45.1871 123.712 44.8434 123.978 44.6865L124.96 44.1081C125.226 43.9514 125.568 44.0408 125.725 44.308C125.881 44.5752 125.792 44.919 125.526 45.0758L124.544 45.6542C124.455 45.7065 124.357 45.7314 124.261 45.7314ZM127.698 43.7072C127.506 43.7072 127.319 43.6081 127.215 43.4301C127.059 43.163 127.148 42.8192 127.414 42.6623L128.396 42.084C128.663 41.9272 129.005 42.0166 129.161 42.2838C129.318 42.551 129.229 42.8948 128.962 43.0516L127.98 43.63C127.892 43.6823 127.794 43.7072 127.698 43.7072ZM131.135 41.6831C130.943 41.6831 130.756 41.5839 130.652 41.4059C130.496 41.1387 130.585 40.795 130.851 40.6381L131.833 40.0598C132.099 39.903 132.442 39.9925 132.598 40.2596C132.754 40.5268 132.665 40.8706 132.399 41.0274L131.417 41.6058C131.328 41.6581 131.231 41.6831 131.135 41.6831ZM134.571 39.6589C134.38 39.6589 134.193 39.5597 134.089 39.3817C133.932 39.1145 134.022 38.7708 134.288 38.614L135.27 38.0356C135.536 37.8787 135.879 37.9683 136.035 38.2355C136.191 38.5027 136.102 38.8464 135.836 39.0033L134.854 39.5816C134.765 39.6339 134.668 39.6589 134.571 39.6589ZM138.008 37.6347C137.816 37.6347 137.63 37.5355 137.525 37.3575C137.369 37.0903 137.458 36.7466 137.725 36.5898L138.707 36.0114C138.973 35.8546 139.315 35.9441 139.472 36.2113C139.628 36.4785 139.539 36.8222 139.272 36.9791L138.291 37.5574C138.202 37.6097 138.104 37.6347 138.008 37.6347ZM141.445 35.6105C141.253 35.6105 141.066 35.5113 140.962 35.3333C140.806 35.0661 140.895 34.7224 141.161 34.5656L142.143 33.9872C142.41 33.8304 142.752 33.9199 142.908 34.1871C143.065 34.4543 142.975 34.798 142.709 34.9549L141.727 35.5332C141.638 35.5855 141.541 35.6105 141.445 35.6105ZM144.882 33.5863C144.69 33.5863 144.503 33.4871 144.399 33.3091C144.243 33.0419 144.332 32.6982 144.598 32.5414L145.58 31.9631C145.846 31.8063 146.189 31.8957 146.345 32.1629C146.501 32.4301 146.412 32.7738 146.146 32.9307L145.164 33.509C145.075 33.5613 144.978 33.5863 144.882 33.5863ZM148.318 31.5621C148.126 31.5621 147.94 31.4629 147.836 31.2849C147.679 31.0177 147.769 30.674 148.035 30.5172L149.017 29.9389C149.283 29.782 149.625 29.8715 149.782 30.1387C149.938 30.4059 149.849 30.7497 149.583 30.9065L148.601 31.4848C148.512 31.5371 148.414 31.5621 148.318 31.5621ZM151.755 29.5379C151.563 29.5379 151.376 29.4387 151.272 29.2608C151.116 28.9935 151.205 28.6498 151.471 28.493L152.453 27.9147C152.72 27.7579 153.062 27.8473 153.218 28.1146C153.375 28.3817 153.286 28.7255 153.019 28.8823L152.037 29.4606C151.948 29.5129 151.851 29.5379 151.755 29.5379ZM155.192 27.5137C155 27.5137 154.813 27.4146 154.709 27.2366C154.553 26.9693 154.642 26.6256 154.908 26.4688L155.89 25.8905C156.156 25.7337 156.499 25.8231 156.655 26.0904C156.811 26.3575 156.722 26.7013 156.456 26.8581L155.474 27.4364C155.385 27.4888 155.288 27.5137 155.192 27.5137Z" fill="black"/>
<path d="M156.173 65.0777C156.076 65.0777 155.979 65.0528 155.89 65.0004L154.908 64.4221C154.642 64.2653 154.553 63.9215 154.709 63.6543C154.865 63.3871 155.208 63.2976 155.474 63.4545L156.456 64.0328C156.722 64.1896 156.811 64.5333 156.655 64.8005C156.551 64.9785 156.364 65.0777 156.173 65.0777ZM152.736 63.0535C152.64 63.0535 152.542 63.0286 152.453 62.9762L151.471 62.3979C151.205 62.2411 151.116 61.8974 151.272 61.6301C151.429 61.3629 151.771 61.2736 152.037 61.4303L153.019 62.0086C153.286 62.1654 153.375 62.5092 153.218 62.7763C153.114 62.9544 152.928 63.0535 152.736 63.0535ZM149.299 61.0293C149.203 61.0293 149.106 61.0044 149.017 60.952L148.035 60.3737C147.768 60.2169 147.679 59.8732 147.836 59.606C147.992 59.3387 148.334 59.2493 148.601 59.4061L149.583 59.9844C149.849 60.1412 149.938 60.485 149.782 60.7521C149.678 60.9302 149.491 61.0293 149.299 61.0293ZM145.862 59.0051C145.766 59.0051 145.669 58.9802 145.58 58.9278L144.598 58.3495C144.332 58.1927 144.243 57.849 144.399 57.5818C144.555 57.3146 144.898 57.2251 145.164 57.3819L146.146 57.9602C146.412 58.117 146.501 58.4608 146.345 58.728C146.241 58.906 146.054 59.0051 145.862 59.0051ZM142.426 56.9809C142.33 56.9809 142.232 56.956 142.143 56.9037L141.161 56.3253C140.895 56.1685 140.806 55.8248 140.962 55.5576C141.118 55.2904 141.461 55.2009 141.727 55.3577L142.709 55.936C142.975 56.0928 143.065 56.4366 142.908 56.7038C142.804 56.8818 142.617 56.9809 142.426 56.9809ZM138.989 54.9567C138.893 54.9567 138.795 54.9318 138.707 54.8795L137.725 54.3011C137.458 54.1443 137.369 53.8006 137.525 53.5334C137.682 53.2662 138.024 53.1767 138.29 53.3335L139.272 53.9118C139.539 54.0687 139.628 54.4124 139.472 54.6796C139.367 54.8576 139.181 54.9567 138.989 54.9567ZM135.552 52.9325C135.456 52.9325 135.359 52.9076 135.27 52.8553L134.288 52.2769C134.022 52.1201 133.932 51.7764 134.089 51.5092C134.245 51.242 134.587 51.1526 134.854 51.3093L135.836 51.8876C136.102 52.0445 136.191 52.3882 136.035 52.6554C135.931 52.8334 135.744 52.9325 135.552 52.9325ZM132.116 50.9084C132.019 50.9084 131.922 50.8835 131.833 50.8311L130.851 50.2528C130.585 50.0959 130.496 49.7521 130.652 49.485C130.808 49.2178 131.151 49.1285 131.417 49.2851L132.399 49.8635C132.665 50.0203 132.754 50.3641 132.598 50.6313C132.494 50.8093 132.307 50.9084 132.116 50.9084ZM128.679 48.8842C128.583 48.8842 128.485 48.8593 128.396 48.8069L127.414 48.2286C127.148 48.0717 127.059 47.728 127.215 47.4608C127.372 47.1936 127.714 47.1043 127.98 47.2609L128.962 47.8393C129.229 47.9961 129.318 48.3399 129.161 48.6071C129.057 48.7851 128.871 48.8842 128.679 48.8842ZM125.242 46.86C125.146 46.86 125.049 46.8351 124.96 46.7827L123.978 46.2044C123.712 46.0475 123.622 45.7038 123.779 45.4366C123.935 45.1694 124.277 45.0801 124.544 45.2367L125.526 45.8151C125.792 45.9719 125.881 46.3157 125.725 46.5829C125.621 46.7609 125.434 46.86 125.242 46.86ZM121.805 44.8358C121.709 44.8358 121.612 44.8109 121.523 44.7586L120.541 44.1802C120.275 44.0233 120.186 43.6796 120.342 43.4124C120.498 43.1452 120.841 43.0558 121.107 43.2125L122.089 43.7909C122.355 43.9477 122.444 44.2915 122.288 44.5587C122.184 44.7367 121.997 44.8358 121.805 44.8358ZM118.369 42.8116C118.273 42.8116 118.175 42.7867 118.086 42.7344L117.104 42.156C116.838 41.9992 116.749 41.6555 116.905 41.3883C117.061 41.1211 117.404 41.0316 117.67 41.1884L118.652 41.7667C118.918 41.9236 119.008 42.2673 118.851 42.5345C118.747 42.7125 118.56 42.8116 118.369 42.8116ZM114.932 40.7874C114.836 40.7874 114.738 40.7625 114.65 40.7102L113.668 40.1318C113.401 39.975 113.312 39.6313 113.468 39.3641C113.625 39.0968 113.967 39.0074 114.234 39.1642L115.215 39.7425C115.482 39.8994 115.571 40.2431 115.415 40.5103C115.311 40.6883 115.124 40.7874 114.932 40.7874ZM111.495 38.7632C111.399 38.7632 111.302 38.7383 111.213 38.686L110.231 38.1076C109.965 37.9508 109.876 37.6071 110.032 37.3399C110.188 37.0727 110.531 36.9833 110.797 37.14L111.779 37.7183C112.045 37.8752 112.134 38.2189 111.978 38.4861C111.874 38.6641 111.687 38.7632 111.495 38.7632ZM108.059 36.7391C107.962 36.7391 107.865 36.7141 107.776 36.6618L106.794 36.0835C106.528 35.9266 106.439 35.5829 106.595 35.3157C106.751 35.0485 107.094 34.9591 107.36 35.1158L108.342 35.6942C108.608 35.851 108.697 36.1947 108.541 36.4619C108.437 36.6399 108.25 36.7391 108.059 36.7391ZM104.622 34.7149C104.526 34.7149 104.428 34.69 104.339 34.6376L103.358 34.0593C103.091 33.9024 103.002 33.5587 103.158 33.2915C103.315 33.0243 103.657 32.935 103.923 33.0916L104.905 33.67C105.172 33.8268 105.261 34.1705 105.104 34.4377C105 34.6157 104.814 34.7149 104.622 34.7149ZM101.185 32.6907C101.089 32.6907 100.992 32.6658 100.903 32.6134L99.9208 32.0351C99.6545 31.8783 99.5654 31.5345 99.7217 31.2673C99.878 31.0001 100.22 30.9106 100.487 31.0674L101.469 31.6458C101.735 31.8026 101.824 32.1463 101.668 32.4135C101.564 32.5915 101.377 32.6907 101.185 32.6907ZM97.7484 30.6665C97.6523 30.6665 97.5549 30.6415 97.466 30.5892L96.4841 30.0109C96.2178 29.854 96.1287 29.5103 96.2849 29.2431C96.4412 28.9759 96.7837 28.8864 97.05 29.0433L98.0319 29.6216C98.2981 29.7784 98.3873 30.1221 98.231 30.3894C98.1269 30.5673 97.9402 30.6665 97.7484 30.6665ZM94.3117 28.6423C94.2156 28.6423 94.1182 28.6173 94.0293 28.565L93.0474 27.9867C92.7811 27.8299 92.692 27.4861 92.8482 27.219C93.0045 26.9517 93.347 26.8622 93.6133 27.0191L94.5952 27.5974C94.8614 27.7542 94.9506 28.0979 94.7943 28.3652C94.6902 28.5431 94.5035 28.6423 94.3117 28.6423ZM90.875 26.6181C90.7788 26.6181 90.6815 26.5932 90.5926 26.5408L89.6107 25.9625C89.3444 25.8057 89.2552 25.4619 89.4115 25.1947C89.5678 24.9275 89.9103 24.838 90.1765 24.9949L91.1585 25.5732C91.4247 25.73 91.5139 26.0737 91.3576 26.341C91.2535 26.519 91.0667 26.6181 90.875 26.6181Z" fill="black"/>
<path d="M26.3058 105.85C26.194 105.85 26.0812 105.816 25.9831 105.746C25.7312 105.567 25.6717 105.217 25.8502 104.964L26.5085 104.032C26.687 103.779 27.0359 103.719 27.2878 103.899C27.5397 104.078 27.5992 104.428 27.4207 104.681L26.7624 105.613C26.6534 105.767 26.4809 105.85 26.3058 105.85ZM28.6098 102.587C28.4981 102.587 28.3852 102.553 28.2871 102.483C28.0352 102.304 27.9757 101.954 28.1542 101.701L28.8125 100.769C28.991 100.516 29.34 100.457 29.5918 100.636C29.8437 100.815 29.9032 101.165 29.7247 101.418L29.0664 102.35C28.9574 102.504 28.785 102.587 28.6098 102.587ZM30.9139 99.3239C30.8021 99.3239 30.6893 99.2904 30.5912 99.2206C30.3393 99.0415 30.2798 98.6913 30.4583 98.4385L31.1166 97.5063C31.295 97.2536 31.6439 97.1937 31.8958 97.3729C32.1477 97.5521 32.2072 97.9022 32.0287 98.155L31.3705 99.0873C31.2615 99.2415 31.089 99.3239 30.9139 99.3239ZM33.2179 96.0611C33.1062 96.0611 32.9933 96.0276 32.8952 95.9578C32.6433 95.7786 32.5838 95.4285 32.7623 95.1757L33.4206 94.2435C33.5992 93.9906 33.948 93.9309 34.1999 94.1101C34.4518 94.2893 34.5113 94.6394 34.3328 94.8922L33.6745 95.8244C33.5655 95.9787 33.393 96.0611 33.2179 96.0611ZM35.522 92.7983C35.4102 92.7983 35.2974 92.7648 35.1992 92.695C34.9474 92.5158 34.8879 92.1657 35.0664 91.9129L35.7247 90.9806C35.9032 90.7278 36.252 90.6681 36.5039 90.8473C36.7558 91.0264 36.8153 91.3766 36.6368 91.6294L35.9785 92.5616C35.8696 92.7159 35.6971 92.7983 35.522 92.7983ZM37.826 89.5354C37.7143 89.5354 37.6014 89.5019 37.5033 89.4321C37.2514 89.253 37.1919 88.9028 37.3704 88.65L38.0287 87.7178C38.2072 87.4651 38.5561 87.4052 38.808 87.5844C39.0599 87.7636 39.1194 88.1137 38.9409 88.3665L38.2826 89.2988C38.1736 89.453 38.0011 89.5354 37.826 89.5354ZM40.1301 86.2726C40.0183 86.2726 39.9055 86.2391 39.8074 86.1693C39.5555 85.9902 39.496 85.64 39.6745 85.3872L40.3327 84.455C40.5112 84.2022 40.8602 84.1425 41.112 84.3216C41.3639 84.5008 41.4234 84.8509 41.2449 85.1037L40.5866 86.036C40.4777 86.1903 40.3052 86.2726 40.1301 86.2726ZM42.4341 83.0098C42.3223 83.0098 42.2095 82.9762 42.1114 82.9064C41.8595 82.7273 41.8 82.3772 41.9785 82.1244L42.6368 81.1921C42.8153 80.9393 43.1642 80.8796 43.4161 81.0588C43.668 81.2379 43.7275 81.5881 43.549 81.8408L42.8907 82.7731C42.7817 82.9274 42.6092 83.0098 42.4341 83.0098ZM44.7381 79.7469C44.6264 79.7469 44.5135 79.7134 44.4154 79.6436C44.1635 79.4644 44.104 79.1143 44.2825 78.8615L44.9409 77.9293C45.1194 77.6765 45.4682 77.6169 45.7201 77.796C45.972 77.9751 46.0315 78.3253 45.853 78.578L45.1947 79.5102C45.0857 79.6646 44.9133 79.7469 44.7381 79.7469ZM47.0422 76.4841C46.9304 76.4841 46.8176 76.4506 46.7195 76.3808C46.4676 76.2017 46.4081 75.8515 46.5866 75.5987L47.2449 74.6665C47.4234 74.4137 47.7723 74.354 48.0242 74.5331C48.2761 74.7123 48.3356 75.0624 48.1571 75.3152L47.4988 76.2475C47.3898 76.4017 47.2173 76.4841 47.0422 76.4841ZM49.3462 73.2213C49.2345 73.2213 49.1216 73.1877 49.0235 73.1179C48.7716 72.9388 48.7121 72.5886 48.8906 72.3359L49.549 71.4037C49.7274 71.1508 50.0764 71.0912 50.3282 71.2703C50.5801 71.4495 50.6396 71.7996 50.4611 72.0524L49.8028 72.9846C49.6938 73.1389 49.5214 73.2213 49.3462 73.2213ZM51.6503 69.9585C51.5385 69.9585 51.4257 69.9249 51.3275 69.8551C51.0756 69.676 51.0162 69.3259 51.1947 69.0731L51.853 68.1408C52.0315 67.888 52.3804 67.8284 52.6323 68.0075C52.8841 68.1866 52.9437 68.5368 52.7651 68.7895L52.1068 69.7218C51.9979 69.8761 51.8254 69.9585 51.6503 69.9585ZM53.9543 66.6956C53.8426 66.6956 53.7297 66.6621 53.6316 66.5923C53.3797 66.4131 53.3202 66.063 53.4987 65.8102L54.157 64.8779C54.3355 64.6252 54.6844 64.5655 54.9363 64.7446C55.1882 64.9237 55.2477 65.2739 55.0692 65.5267L54.4109 66.4589C54.3019 66.6132 54.1294 66.6956 53.9543 66.6956ZM56.2584 63.4328C56.1466 63.4328 56.0337 63.3992 55.9356 63.3294C55.6837 63.1503 55.6243 62.8001 55.8028 62.5474L56.4611 61.6152C56.6396 61.3623 56.9885 61.3027 57.2404 61.4818C57.4922 61.661 57.5517 62.0111 57.3732 62.2639L56.7149 63.1961C56.606 63.3504 56.4335 63.4328 56.2584 63.4328ZM58.5624 60.17C58.4506 60.17 58.3378 60.1364 58.2397 60.0666C57.9878 59.8875 57.9283 59.5373 58.1068 59.2846L58.7651 58.3523C58.9436 58.0996 59.2925 58.0398 59.5444 58.219C59.7963 58.3981 59.8558 58.7482 59.6773 59.001L59.019 59.9333C58.91 60.0876 58.7375 60.17 58.5624 60.17ZM60.8664 56.9071C60.7547 56.9071 60.6418 56.8736 60.5437 56.8038C60.2918 56.6246 60.2323 56.2745 60.4109 56.0217L61.0691 55.0895C61.2476 54.8367 61.5966 54.777 61.8484 54.9562C62.1003 55.1353 62.1598 55.4854 61.9813 55.7382L61.323 56.6704C61.214 56.8247 61.0416 56.9071 60.8664 56.9071ZM63.1705 53.6443C63.0587 53.6443 62.9459 53.6108 62.8478 53.541C62.5959 53.3618 62.5364 53.0117 62.7149 52.7589L63.3732 51.8266C63.5517 51.5739 63.9006 51.5142 64.1525 51.6933C64.4044 51.8724 64.4639 52.2226 64.2854 52.4754L63.6271 53.4076C63.5181 53.5619 63.3456 53.6443 63.1705 53.6443ZM65.4746 50.3814C65.3628 50.3814 65.25 50.3479 65.1518 50.2781C64.8999 50.099 64.8404 49.7488 65.0189 49.496L65.6772 48.5638C65.8558 48.3111 66.2047 48.2514 66.4565 48.4305C66.7084 48.6097 66.7679 48.9598 66.5894 49.2126L65.9311 50.1448C65.8221 50.2991 65.6497 50.3814 65.4746 50.3814ZM67.7786 47.1186C67.6668 47.1186 67.554 47.0851 67.4559 47.0153C67.204 46.8362 67.1445 46.486 67.323 46.2333L67.9813 45.301C68.1598 45.0483 68.5087 44.9885 68.7606 45.1677C69.0125 45.3468 69.072 45.6969 68.8935 45.9497L68.2352 46.882C68.1262 47.0363 67.9537 47.1186 67.7786 47.1186ZM70.0826 43.8558C69.9709 43.8558 69.858 43.8223 69.7599 43.7525C69.508 43.5733 69.4485 43.2232 69.627 42.9704L70.2853 42.0381C70.4638 41.7854 70.8127 41.7257 71.0646 41.9048C71.3165 42.0839 71.376 42.4341 71.1975 42.6869L70.5392 43.6191C70.4302 43.7734 70.2578 43.8558 70.0826 43.8558ZM72.3867 40.5929C72.2749 40.5929 72.1621 40.5594 72.0639 40.4896C71.812 40.3105 71.7526 39.9603 71.9311 39.7075L72.5894 38.7753C72.7679 38.5225 73.1168 38.4628 73.3687 38.642C73.6206 38.8211 73.68 39.1713 73.5015 39.4241L72.8432 40.3563C72.7343 40.5106 72.5618 40.5929 72.3867 40.5929ZM74.6907 37.3301C74.579 37.3301 74.4661 37.2966 74.368 37.2268C74.1161 37.0477 74.0566 36.6975 74.2351 36.4447L74.8934 35.5125C75.0719 35.2598 75.4208 35.2 75.6727 35.3791C75.9246 35.5583 75.9841 35.9084 75.8056 36.1612L75.1473 37.0935C75.0383 37.2477 74.8658 37.3301 74.6907 37.3301ZM76.9948 34.0673C76.883 34.0673 76.7702 34.0338 76.6721 33.964C76.4202 33.7848 76.3607 33.4347 76.5392 33.1819L77.1974 32.2497C77.376 31.9969 77.7248 31.9372 77.9768 32.1164C78.2286 32.2955 78.2881 32.6456 78.1096 32.8984L77.4513 33.8306C77.3424 33.9849 77.1699 34.0673 76.9948 34.0673ZM79.2988 30.8045C79.1871 30.8045 79.0742 30.771 78.9761 30.7012C78.7242 30.522 78.6647 30.1719 78.8432 29.9191L79.5015 28.9868C79.68 28.7341 80.0289 28.6743 80.2808 28.8535C80.5327 29.0326 80.5922 29.3828 80.4137 29.6356L79.7554 30.5678C79.6464 30.7221 79.4739 30.8045 79.2988 30.8045ZM81.6029 27.5416C81.4911 27.5416 81.3783 27.5081 81.2801 27.4383C81.0283 27.2592 80.9688 26.909 81.1473 26.6562L81.8056 25.724C81.9841 25.4712 82.3329 25.4115 82.5849 25.5906C82.8367 25.7698 82.8962 26.1199 82.7177 26.3727L82.0594 27.305C81.9505 27.4593 81.778 27.5416 81.6029 27.5416Z" fill="black"/>
<path d="M82.2621 105.28C82.087 105.28 81.9145 105.198 81.8056 105.043L81.1473 104.111C80.9688 103.858 81.0283 103.508 81.2801 103.329C81.532 103.15 81.8809 103.209 82.0594 103.462L82.7177 104.395C82.8962 104.647 82.8367 104.997 82.5849 105.177C82.4867 105.246 82.3739 105.28 82.2621 105.28ZM79.958 102.017C79.7829 102.017 79.6104 101.935 79.5015 101.78L78.8432 100.848C78.6647 100.595 78.7242 100.245 78.9761 100.066C79.228 99.8868 79.5769 99.9466 79.7554 100.199L80.4137 101.132C80.5922 101.384 80.5327 101.735 80.2808 101.914C80.1826 101.984 80.0698 102.017 79.958 102.017ZM77.654 98.7542C77.4789 98.7542 77.3064 98.6718 77.1974 98.5175L76.5392 97.5853C76.3607 97.3325 76.4202 96.9824 76.6721 96.8033C76.9239 96.6241 77.2728 96.6838 77.4513 96.9366L78.1096 97.8688C78.2881 98.1216 78.2286 98.4717 77.9768 98.6509C77.8786 98.7207 77.7658 98.7542 77.654 98.7542ZM75.35 95.4914C75.1749 95.4914 75.0024 95.4091 74.8934 95.2547L74.2351 94.3225C74.0566 94.0697 74.1161 93.7196 74.368 93.5404C74.6198 93.3613 74.9688 93.4209 75.1473 93.6737L75.8056 94.606C75.9841 94.8588 75.9246 95.2089 75.6727 95.3881C75.5746 95.4579 75.4617 95.4914 75.35 95.4914ZM73.0459 92.2285C72.8708 92.2285 72.6984 92.1462 72.5894 91.9919L71.9311 91.0597C71.7526 90.8069 71.812 90.4567 72.0639 90.2776C72.3158 90.0984 72.6647 90.1581 72.8432 90.4109L73.5015 91.3431C73.68 91.5959 73.6206 91.9461 73.3687 92.1252C73.2705 92.195 73.1577 92.2285 73.0459 92.2285ZM70.7419 88.9657C70.5668 88.9657 70.3943 88.8834 70.2853 88.7291L69.627 87.7968C69.4485 87.544 69.508 87.1939 69.7599 87.0147C70.0118 86.8355 70.3607 86.8954 70.5392 87.1481L71.1975 88.0803C71.376 88.3331 71.3165 88.6833 71.0646 88.8624C70.9665 88.9322 70.8536 88.9657 70.7419 88.9657ZM68.4378 85.7029C68.2627 85.7029 68.0902 85.6205 67.9813 85.4662L67.323 84.534C67.1445 84.2812 67.204 83.931 67.4559 83.7519C67.7076 83.5727 68.0566 83.6324 68.2352 83.8852L68.8935 84.8175C69.072 85.0703 69.0125 85.4204 68.7606 85.5996C68.6625 85.6694 68.5496 85.7029 68.4378 85.7029ZM66.1338 82.44C65.9587 82.44 65.7862 82.3577 65.6772 82.2034L65.0189 81.2712C64.8404 81.0184 64.8999 80.6682 65.1518 80.4891C65.4038 80.3099 65.7526 80.3697 65.9311 80.6224L66.5894 81.5546C66.7679 81.8074 66.7084 82.1576 66.4565 82.3367C66.3584 82.4065 66.2456 82.44 66.1338 82.44ZM63.8298 79.1772C63.6546 79.1772 63.4822 79.0949 63.3732 78.9406L62.7149 78.0083C62.5364 77.7555 62.5959 77.4054 62.8478 77.2262C63.0996 77.047 63.4485 77.1067 63.6271 77.3596L64.2854 78.2918C64.4639 78.5446 64.4044 78.8948 64.1525 79.0739C64.0544 79.1437 63.9415 79.1772 63.8298 79.1772ZM61.5257 75.9144C61.3505 75.9144 61.1781 75.832 61.0691 75.6777L60.4109 74.7455C60.2323 74.4927 60.2918 74.1426 60.5437 73.9634C60.7956 73.7843 61.1445 73.844 61.323 74.0968L61.9813 75.029C62.1598 75.2818 62.1003 75.6319 61.8484 75.8111C61.7503 75.8808 61.6375 75.9144 61.5257 75.9144ZM59.2217 72.6516C59.0465 72.6516 58.8741 72.5692 58.7651 72.4149L58.1068 71.4827C57.9283 71.2299 57.9878 70.8797 58.2397 70.7006C58.4915 70.5214 58.8405 70.5811 59.019 70.8339L59.6773 71.7662C59.8558 72.019 59.7963 72.3691 59.5444 72.5483C59.4463 72.6181 59.3334 72.6516 59.2217 72.6516ZM56.9176 69.3887C56.7425 69.3887 56.57 69.3064 56.4611 69.1521L55.8028 68.2199C55.6243 67.9671 55.6837 67.6169 55.9356 67.4378C56.1875 67.2586 56.5364 67.3183 56.7149 67.5711L57.3732 68.5033C57.5517 68.7561 57.4922 69.1063 57.2404 69.2854C57.1422 69.3552 57.0294 69.3887 56.9176 69.3887ZM54.6136 66.1259C54.4385 66.1259 54.266 66.0436 54.157 65.8893L53.4987 64.957C53.3202 64.7042 53.3797 64.3541 53.6316 64.1749C53.8834 63.9957 54.2324 64.0554 54.4109 64.3083L55.0692 65.2405C55.2477 65.4933 55.1882 65.8435 54.9363 66.0226C54.8382 66.0924 54.7253 66.1259 54.6136 66.1259ZM52.3095 62.8631C52.1344 62.8631 51.9619 62.7807 51.853 62.6264L51.1947 61.6941C51.0162 61.4414 51.0756 61.0912 51.3275 60.9121C51.5794 60.7329 51.9283 60.7926 52.1068 61.0454L52.7651 61.9777C52.9437 62.2305 52.8841 62.5806 52.6323 62.7598C52.5342 62.8295 52.4213 62.8631 52.3095 62.8631ZM50.0055 59.6002C49.8303 59.6002 49.6579 59.5179 49.549 59.3636L48.8906 58.4314C48.7121 58.1786 48.7716 57.8284 49.0235 57.6493C49.2754 57.4701 49.6242 57.5298 49.8028 57.7826L50.4611 58.7148C50.6396 58.9676 50.5801 59.3177 50.3282 59.4969C50.2301 59.5667 50.1173 59.6002 50.0055 59.6002ZM47.7015 56.3374C47.5263 56.3374 47.3539 56.2551 47.2449 56.1008L46.5866 55.1685C46.4081 54.9157 46.4676 54.5656 46.7195 54.3864C46.9712 54.2072 47.3203 54.2669 47.4988 54.5198L48.1571 55.452C48.3356 55.7048 48.2761 56.055 48.0242 56.2341C47.9261 56.3039 47.8132 56.3374 47.7015 56.3374ZM45.3974 53.0746C45.2223 53.0746 45.0498 52.9922 44.9409 52.8379L44.2825 51.9057C44.104 51.6529 44.1635 51.3028 44.4154 51.1236C44.6673 50.9445 45.0162 51.0042 45.1947 51.257L45.853 52.1892C46.0315 52.442 45.972 52.7921 45.7201 52.9712C45.622 53.041 45.5092 53.0746 45.3974 53.0746ZM43.0934 49.8118C42.9182 49.8118 42.7458 49.7294 42.6368 49.5751L41.9785 48.6428C41.8 48.3901 41.8595 48.0399 42.1114 47.8608C42.3632 47.6815 42.7121 47.7413 42.8907 47.9941L43.549 48.9264C43.7275 49.1792 43.668 49.5293 43.4161 49.7084C43.318 49.7782 43.2051 49.8118 43.0934 49.8118ZM40.7893 46.5489C40.6142 46.5489 40.4417 46.4666 40.3327 46.3122L39.6745 45.38C39.496 45.1272 39.5555 44.7771 39.8074 44.5979C40.0592 44.4188 40.4081 44.4785 40.5866 44.7313L41.2449 45.6635C41.4234 45.9163 41.3639 46.2664 41.112 46.4456C41.0139 46.5154 40.9011 46.5489 40.7893 46.5489ZM38.4853 43.2861C38.3101 43.2861 38.1377 43.2038 38.0287 43.0495L37.3704 42.1172C37.1919 41.8644 37.2514 41.5143 37.5033 41.3351C37.7552 41.1559 38.1041 41.2157 38.2826 41.4685L38.9409 42.4007C39.1194 42.6535 39.0599 43.0037 38.808 43.1828C38.7099 43.2526 38.597 43.2861 38.4853 43.2861ZM36.1812 40.0233C36.0061 40.0233 35.8336 39.9409 35.7247 39.7866L35.0664 38.8543C34.8879 38.6015 34.9474 38.2514 35.1992 38.0723C35.4511 37.8931 35.8 37.9528 35.9785 38.2056L36.6368 39.1379C36.8153 39.3906 36.7558 39.7408 36.5039 39.9199C36.4058 39.9897 36.293 40.0233 36.1812 40.0233ZM33.8772 36.7604C33.702 36.7604 33.5296 36.6781 33.4206 36.5237L32.7623 35.5915C32.5838 35.3388 32.6433 34.9886 32.8952 34.8095C33.1471 34.6302 33.4959 34.69 33.6745 34.9428L34.3328 35.875C34.5113 36.1278 34.4518 36.4779 34.1999 36.6571C34.1018 36.7269 33.9889 36.7604 33.8772 36.7604ZM31.5731 33.4976C31.398 33.4976 31.2255 33.4153 31.1166 33.2609L30.4583 32.3287C30.2798 32.0759 30.3393 31.7257 30.5912 31.5466C30.843 31.3674 31.1919 31.4272 31.3705 31.6799L32.0287 32.6122C32.2072 32.865 32.1477 33.2151 31.8958 33.3943C31.7977 33.4641 31.6849 33.4976 31.5731 33.4976ZM29.2691 30.2348C29.094 30.2348 28.9215 30.1524 28.8125 29.9981L28.1542 29.0659C27.9757 28.8131 28.0352 28.463 28.2871 28.2838C28.539 28.1046 28.8879 28.1644 29.0664 28.4172L29.7247 29.3494C29.9032 29.6021 29.8437 29.9523 29.5918 30.1314C29.4937 30.2012 29.3808 30.2348 29.2691 30.2348ZM26.9651 26.972C26.7899 26.972 26.6175 26.8896 26.5085 26.7353L25.8502 25.803C25.6717 25.5502 25.7312 25.2001 25.9831 25.021C26.2349 24.8418 26.5838 24.9015 26.7624 25.1543L27.4207 26.0866C27.5992 26.3393 27.5397 26.6895 27.2878 26.8686C27.1897 26.9384 27.0768 26.972 26.9651 26.972Z" fill="black"/>
<path d="M183.368 123.758H0.632215C0.283037 123.758 0 123.474 0 123.124C0 122.773 0.283037 122.489 0.632215 122.489H183.368C183.717 122.489 184 122.773 184 123.124C184 123.474 183.717 123.758 183.368 123.758Z" fill="black"/>
</svg>
